<svg xmlns="http://www.w3.org/2000/svg" width="60" height="60" fill="none"><g clip-path="url(#a)"><path fill="#063" d="M9.086 12.003h-6.4v4.269l20.267 13.523L2.685 43.32v4.269h6.4L30.42 33.355h27.016v-7.119H30.42L9.086 12.003z"/><path fill="#039" d="M13.354 47.588h44.082v-11.86H31.13l-17.775 11.86z"/><path fill="#C33" d="M13.354 12.003 31.13 23.868h26.307V12.003H13.355z"/><path fill="#FC0" d="M2.663 16.272v2.85l16.013 10.673L2.663 40.473v2.846l20.286-13.524L2.663 16.272z"/><path fill="#000" d="M2.663 19.122v21.351l16.013-10.678L2.663 19.122z"/><path fill="#fff" d="M13.354 12.003H9.086L30.42 26.236h27.016v-2.368H31.13L13.354 12.003zM9.086 47.588h4.268l17.775-11.86h26.307v-2.373H30.42L9.086 47.588z"/></g><defs><clipPath id="a"><path fill="#fff" d="M2.663 12.003h54.773v35.585H2.663z"/></clipPath></defs></svg>