<svg xmlns="http://www.w3.org/2000/svg" width="60" height="60" fill="none"><path fill="#fff" d="M2 12h55v36H2z"/><g clip-path="url(#a)"><path fill="#fff" d="M2 12h55v36H2z"/><path fill="#FFB400" fill-rule="evenodd" d="M2 12v37h56V12H2z" clip-rule="evenodd"/><mask id="b" width="56" height="37" x="2" y="12" maskUnits="userSpaceOnUse" style="mask-type:luminance"><path fill="#fff" fill-rule="evenodd" d="M2 12v37h56V12H2z" clip-rule="evenodd"/></mask><g mask="url(#b)"><path fill="#C51918" fill-rule="evenodd" d="M2 12v9h56v-9H2zm0 27v10h56V39H2z" clip-rule="evenodd"/><path fill="#F1F9FF" d="M10.054 27.336h1.727v8.979h-1.727z"/><path fill="#C88A02" fill-rule="evenodd" d="M12.472 25.782H9.364v.863h.518v.691h2.072v-.69h.518v-.864zm-.518 11.051h.518v.863H9.364v-.863h.518v-.691h2.072v.69z" clip-rule="evenodd"/><path fill="#AD1619" fill-rule="evenodd" d="M10.918 25.955c.375 0 .414-.142.635-.353.172-.164.573-.368.573-.597 0-.524-.54-.95-1.208-.95-.668 0-1.209.425-1.209.95 0 .255.276.426.485.597.22.18.381.353.724.353z" clip-rule="evenodd"/><path fill="#005BBF" fill-rule="evenodd" d="M9.364 37.696h3.108v1.381s-.389-.172-.777-.172c-.389 0-.777.172-.777.172s-.389-.172-.777-.172c-.389 0-.777.172-.777.172v-1.381z" clip-rule="evenodd"/><mask id="c" width="4" height="3" x="9" y="37" maskUnits="userSpaceOnUse" style="mask-type:luminance"><path fill="#fff" fill-rule="evenodd" d="M9.364 37.696h3.108v1.381s-.389-.172-.777-.172c-.389 0-.777.172-.777.172s-.389-.172-.777-.172c-.389 0-.777.172-.777.172v-1.381z" clip-rule="evenodd"/></mask><g fill="#fff" mask="url(#c)"><path d="m9.336 38.806-.068-.165c.28-.125.56-.188.842-.188.182 0 .277.026.438.098a.756.756 0 0 0 .37.082c.155 0 .229-.02.37-.082a.914.914 0 0 1 .439-.098c.281 0 .562.063.842.188l-.068.165a1.89 1.89 0 0 0-.774-.173.756.756 0 0 0-.37.083.915.915 0 0 1-.439.097.914.914 0 0 1-.438-.097.756.756 0 0 0-.37-.083c-.257 0-.515.058-.774.173zm0-.518-.068-.165c.28-.125.56-.188.842-.188.182 0 .277.026.438.098a.756.756 0 0 0 .37.082c.155 0 .229-.02.37-.082a.914.914 0 0 1 .439-.098c.281 0 .562.063.842.188l-.068.165a1.89 1.89 0 0 0-.774-.173.756.756 0 0 0-.37.083.915.915 0 0 1-.439.097.914.914 0 0 1-.438-.097.756.756 0 0 0-.37-.083c-.257 0-.515.058-.774.173z"/></g><path fill="#F1F9FF" d="M26.976 27.336h1.727v8.979h-1.727z"/><path fill="#C88A02" fill-rule="evenodd" d="M29.393 25.782h-3.108v.863h.518v.691h2.072v-.69h.518v-.864zm-.518 11.051h.518v.863h-3.108v-.863h.518v-.691h2.072v.69z" clip-rule="evenodd"/><path fill="#AD1619" fill-rule="evenodd" d="M27.839 25.955c.376 0 .414-.142.636-.353.172-.164.573-.368.573-.597 0-.524-.541-.95-1.209-.95-.667 0-1.209.425-1.209.95 0 .255.277.426.485.597.22.18.382.353.724.353z" clip-rule="evenodd"/><path fill="#005BBF" fill-rule="evenodd" d="M26.285 37.696h3.108v1.381s-.388-.172-.777-.172c-.388 0-.777.172-.777.172s-.388-.172-.777-.172c-.388 0-.777.172-.777.172v-1.381z" clip-rule="evenodd"/><mask id="d" width="4" height="3" x="26" y="37" maskUnits="userSpaceOnUse" style="mask-type:luminance"><path fill="#fff" fill-rule="evenodd" d="M26.285 37.696h3.108v1.381s-.388-.172-.777-.172c-.388 0-.777.172-.777.172s-.388-.172-.777-.172c-.388 0-.777.172-.777.172v-1.381z" clip-rule="evenodd"/></mask><g fill="#fff" mask="url(#d)"><path d="m26.257 38.806-.068-.165c.28-.125.561-.188.842-.188.182 0 .277.026.439.098a.756.756 0 0 0 .37.082c.155 0 .228-.02.37-.082a.914.914 0 0 1 .438-.098c.281 0 .562.063.842.188l-.068.165a1.891 1.891 0 0 0-.774-.173.756.756 0 0 0-.37.083.915.915 0 0 1-.438.097.914.914 0 0 1-.438-.097.757.757 0 0 0-.37-.083c-.258 0-.516.058-.775.173zm0-.518-.068-.165c.28-.125.561-.188.842-.188.182 0 .277.026.439.098a.756.756 0 0 0 .37.082c.155 0 .228-.02.37-.082a.914.914 0 0 1 .438-.098c.281 0 .562.063.842.188l-.068.165a1.891 1.891 0 0 0-.774-.173.756.756 0 0 0-.37.083.915.915 0 0 1-.438.097.914.914 0 0 1-.438-.097.757.757 0 0 0-.37-.083c-.258 0-.516.058-.775.173z"/></g><path fill="#AD1619" fill-rule="evenodd" d="M10.024 35.673c.31-.377.485-.72.485-1.085a.975.975 0 0 0-.188-.59l.02-.01c-.002 0 .341-.149.46-.206.223-.107.419-.22.61-.358.122-.09.285-.186.534-.32l.233-.123.064-.034a9.36 9.36 0 0 0 .295-.163c.26-.151.433-.276.565-.443.312-.396.247-.933-.19-1.23-.215-.147-.504-.23-.928-.296l-.088-.014-.519-.08a32.815 32.815 0 0 1-.545-.09c1.062-.177 2.577-.112 3.244.232l.634-1.227c-1.359-.701-4.455-.63-5.611.166-.848.585-.734 1.468.148 1.848.369.159.85.264 1.74.407-.15.087-.274.166-.389.25a2.464 2.464 0 0 1-.393.23c-.073.034-.288.128-.386.172l-.05.021c-.719.327-1.068.78-.963 1.596l.056.442.101.03 1.06.875zm-.89-1.142-.001.007.001-.005v-.002zm18.955.057c0 .364.174.708.485 1.085l1.06-.874.101-.031.057-.442c.104-.816-.245-1.269-.964-1.596l-.05-.021a19.959 19.959 0 0 1-.385-.173 2.46 2.46 0 0 1-.394-.23 4.43 4.43 0 0 0-.388-.249c.89-.143 1.37-.248 1.74-.407.882-.38.996-1.263.148-1.848-1.157-.796-4.253-.867-5.612-.166l.634 1.227c.667-.344 2.183-.409 3.244-.232a35 35 0 0 1-.545.09l-.519.08-.088.014c-.424.066-.713.15-.927.295a.824.824 0 0 0-.19 1.23c.132.168.304.293.565.444.083.049.174.098.294.163l.064.033.233.125c.25.133.413.23.535.319.19.138.386.251.608.358.12.057.463.207.462.206l.02.01a.975.975 0 0 0-.188.59z" clip-rule="evenodd"/><path fill="#F1F9FF" d="m11.466 30.617.51.105v.76c-.544.433-1.922 1.163-1.922 1.163v-2.028h1.412zm16.019 0-.51.105v.76c.543.433 1.921 1.163 1.921 1.163v-2.028h-1.41z"/><path fill="#AD1619" fill-rule="evenodd" d="M25.113 22.61v-.254c-.888-.637-1.818-.956-2.79-.956-.932-.412-1.875-.572-2.83-.48v-.004c-1.434-.14-2.88.484-2.88.484-1.459 0-2.791.956-2.791.956v.253l1.742 1.75s.49 1.683 3.923 1.287v.004s2.273-.062 2.432-.115l.197-.06c.445-.13.953-.278 1.256-1.117l1.741-1.749zM19.487 21c-.05.588-.332 4.09 0 4.634V21z" clip-rule="evenodd"/><path fill="#C88A02" fill-rule="evenodd" d="m15.15 24.064.002-.005-1.225-1.153.118-.126 1.15 1.082.029-.135c.188.04.325.055.406.047v-.235l.254.138c.126.068.305.086.542.048.173-.029.29-.23.329-.66l.077-.867.26.831c.117.376.296.542.551.542.25 0 .35-.091.36-.321l.032-.653.295.583c.106.21.253.305.461.305.299 0 .498-.248.498-.639h.351c0 .39.2.64.497.64.209 0 .356-.096.462-.306l.295-.583.032.653c.01.23.11.321.36.321.255 0 .434-.166.551-.542l.26-.831.077.867c.038.43.155.631.33.66.236.038.415.02.54-.048l.255-.138v.235c.08.008.218-.007.406-.047l.055.25 1.272-1.197.119.126-1.584 1.49c-.231.425-.348.706-.348.823 0 .178-.463.284-1.367.392a22.26 22.26 0 0 1-2.227.15v.002h-.173v-.001a22.26 22.26 0 0 1-2.227-.15c-.904-.11-1.367-.215-1.367-.393a.363.363 0 0 0-.013-.084c-.09-.116-.155-.305-.197-.476a8.644 8.644 0 0 0-.138-.263l-.35-.33-.01-.002zm8.488.028c-.283.05-.487.045-.595-.043-.17.049-.368.054-.595.017-.243-.04-.412-.201-.513-.468a.79.79 0 0 1-.501.306c1.105.157 1.879.377 1.879.377s-.02.164-.066.356c.05-.1.108-.212.175-.336l.017-.021.2-.188zm-2.726-.253a.556.556 0 0 1-.228-.206.77.77 0 0 1-.28.158c.174.014.343.03.508.048zm-1.118-.081a.791.791 0 0 1-.33-.29.79.79 0 0 1-.327.288l.239-.005h.139l.28.007zm-4.168.51-.16-.152c.192.02.335.001.42-.067.17.049.368.054.595.017.243-.04.411-.201.513-.468.129.164.29.267.484.303-.953.134-1.664.316-1.852.367zm2.891-.479c-.167.012-.33.027-.49.044a.553.553 0 0 0 .218-.2.77.77 0 0 0 .272.156zm4.248 1.433c.122.057.218 0 .295-.108a.565.565 0 0 0-.012.081.304.304 0 0 1-.046.024 1.824 1.824 0 0 1-.257.075c-.222.05-.538.1-.913.146a21.91 21.91 0 0 1-2.293.15 21.908 21.908 0 0 1-2.294-.15 9.48 9.48 0 0 1-.913-.146 1.926 1.926 0 0 1-.226-.064.225.225 0 0 0 .018-.008c.377-.176 2.872-.342 3.32-.37.45.028 2.944.194 3.322.37zm.476-.031-.002.002v-.001l.002-.001z" clip-rule="evenodd"/><path fill="#005BBF" fill-rule="evenodd" d="M19.465 19.744a.518.518 0 1 0 0-1.036.518.518 0 0 0 0 1.036z" clip-rule="evenodd"/><path fill="#C88A02" fill-rule="evenodd" d="M19.128 22.287c.011.057.028.11.05.157a.655.655 0 0 0-.231-.04c-.239 0-.432.115-.432.258 0 .143.193.26.432.26.238 0 .431-.117.431-.26v-.008.008c0 .143.194.26.432.26.239 0 .432-.117.432-.26 0-.143-.194-.259-.432-.259a.686.686 0 0 0-.17.02.652.652 0 0 0-.003-.235c-.046-.234-.197-.402-.337-.374-.14.027-.217.239-.172.473zm-2.54.33a.687.687 0 0 1-.05-.158c-.045-.234.032-.445.172-.473.14-.027.291.14.337.375a.654.654 0 0 1 .004.235.68.68 0 0 1 .169-.02c.238 0 .431.116.431.259 0 .143-.193.259-.431.259-.235 0-.426-.112-.432-.252-.006.14-.197.252-.431.252-.239 0-.432-.116-.432-.26 0-.142.193-.258.432-.258.085 0 .164.015.231.04zm.2.21v.001zm4.744.144c.234.032.44-.053.463-.192-.015.14.159.279.392.312.236.033.444-.055.464-.197.02-.141-.155-.283-.392-.316a.684.684 0 0 0-.17-.003.654.654 0 0 0 .029-.235c-.013-.238-.139-.425-.282-.417-.143.007-.248.206-.236.444a.692.692 0 0 0 .028.163.653.653 0 0 0-.223-.072c-.236-.034-.444.054-.464.196-.02.142.156.283.392.317zm.465-.204v.002-.002zm1.643.692c.21.112.436.1.503-.026l.003-.007a.165.165 0 0 0 .074.046c.136.042.304-.109.373-.337.07-.228.016-.446-.121-.488-.137-.042-.304.109-.374.337a.69.69 0 0 0-.03.162.655.655 0 0 0-.185-.144c-.21-.112-.435-.1-.502.026-.068.126.049.32.259.431zm-8.472.053c-.21.112-.436.1-.503-.026a.156.156 0 0 1-.004-.007.168.168 0 0 1-.073.046c-.137.042-.304-.109-.374-.337-.07-.228-.015-.447.122-.488.136-.042.304.109.374.337a.69.69 0 0 1 .029.162.653.653 0 0 1 .185-.144c.21-.112.436-.1.503.026s-.049.319-.26.43zm4.104-5.727h.36v.227h.234v.36h-.235v.72h.235v.359h-.833v-.36h.239v-.72h-.239v-.359h.239v-.227z" clip-rule="evenodd"/><path fill="#C88A02" d="M19.206 19.739h.691v2.245h-.691z"/><path fill="#fff" d="m16.425 20.115-.003.172c-1.53-.026-2.409.197-2.632.642-.23.46-.188 1.02.136 1.685l-.156.076c-.344-.71-.391-1.324-.134-1.838.264-.529 1.194-.765 2.79-.737z"/><path fill="#fff" d="m16.722 21.646-.089.148c-.333-.2-.5-.539-.5-1.007 0-.673.346-1.068 1.113-1.338.49-.172 1.158-.101 2.008.207l-.06.162c-.815-.296-1.446-.362-1.89-.206-.704.248-.998.584-.998 1.175 0 .41.138.693.416.859z"/><path fill="#C88A02" d="m14.143 22.35-.326.114c-.338-.963-.241-1.616.336-1.898.51-.249 1.251-.35 2.23-.31l-.014.345c-.927-.038-1.616.056-2.064.275-.38.185-.45.655-.162 1.473z"/><path fill="#C88A02" d="M17.95 19.885c-.79 0-1.114.192-1.3.76-.117.362-.003.67.368.959l-.211.272c-.481-.373-.65-.83-.485-1.338.236-.724.7-.999 1.628-.999.608 0 1.082.16 1.412.485l.051.051v1.665h-.345v-1.517c-.258-.224-.628-.338-1.118-.338z"/><path fill="#fff" d="m22.45 20.287.004.173c1.53-.027 2.409.197 2.632.642.23.46.187 1.02-.135 1.685l.155.075c.344-.709.391-1.323.134-1.837-.264-.53-1.194-.765-2.79-.738z"/><path fill="#fff" d="m21.91 21.682.089.148c.333-.2.5-.539.5-1.007 0-.673-.347-1.068-1.113-1.338-.49-.172-1.158-.101-2.008.207l.06.162c.815-.296 1.446-.362 1.89-.206.704.248.998.584.998 1.175 0 .41-.138.693-.416.859z"/><path fill="#C88A02" d="m24.84 22.522.326.115c.339-.963.242-1.617-.336-1.899-.509-.248-1.25-.35-2.229-.31l.014.345c.927-.037 1.616.057 2.064.276.38.185.449.655.162 1.473z"/><path fill="#C88A02" d="M21.014 19.911c.79 0 1.114.193 1.3.76.117.362.003.671-.368.96l.211.272c.481-.373.65-.83.485-1.339-.236-.723-.7-.998-1.628-.998-.608 0-1.082.16-1.412.485l-.051.05v1.666h.345V20.25c.258-.224.628-.339 1.118-.339z"/><path fill="#E1E5E8" fill-rule="evenodd" d="M13.853 25.782h11.223v10.084s-.834 3.384-5.612 3.384c-4.777 0-5.611-3.474-5.611-3.474v-9.994z" clip-rule="evenodd" opacity=".3"/><mask id="e" width="13" height="15" x="13" y="25" maskUnits="userSpaceOnUse" style="mask-type:luminance"><path fill="#fff" fill-rule="evenodd" d="M13.853 25.782h11.223v10.084s-.834 3.384-5.612 3.384c-4.777 0-5.611-3.474-5.611-3.474v-9.994z" clip-rule="evenodd"/></mask><g mask="url(#e)"><path fill="#FFC034" d="M13.853 31.998h5.698v6.734h-5.698z"/><path fill="#AD1619" d="M14.543 32.343h.691v6.389h-.691zm2.418 0h.691v6.389h-.691zm-1.209 0h.691v6.389h-.691zm2.417 0h.691v6.389h-.691zm-4.316-6.734h5.698v6.561h-5.698z"/><path fill="#AD1619" d="M19.378 31.825h5.698v6.561h-5.698z"/><path fill="#F1F9FF" d="M19.378 25.782h6.043v6.389h-6.043z"/><path fill="#C88A02" fill-rule="evenodd" d="M16.27 26.3h.518v1.433h.345v-.717h.518v.717h.518v.895h-.518v1.611h.518v.896h-3.108v-.896h.518v-1.611h-.518v-.895h.346v-.717h.518v.717h.345V26.3z" clip-rule="evenodd"/><path fill="#C88A02" d="m22.343 26.6.353-.378.742.694-.353.378-.742-.693z"/><path fill="#FFC034" fill-rule="evenodd" d="M24.472 36.383v-3.78h-4.317v3.748l.007.03c.218.93.963 1.401 2.151 1.401 1.188 0 1.932-.459 2.152-1.37l.007-.03zm-2.159.881c-.954 0-1.474-.32-1.64-.974v-3.17h3.28v3.2c-.165.632-.686.944-1.64.944z" clip-rule="evenodd"/><path fill="#FFC034" fill-rule="evenodd" d="M22.492 32.918h-.36v1.714l-1.418-1.542-.254.234 1.282 1.394H20.58v.518h1.19l-1.31 1.426.254.234 1.418-1.543v2.004h.36v-1.823l1.252 1.362.254-.234-1.31-1.426h1.462v-.518h-1.434l1.282-1.394-.254-.234-1.252 1.362v-1.534z" clip-rule="evenodd"/><path fill="#F1F9FF" fill-rule="evenodd" d="M23.12 38.39s-3.658.288-3.658-2.07c0 0-.035 2.07-3.853 2.07v1.863h7.51V38.39z" clip-rule="evenodd"/><path fill="#005BBF" fill-rule="evenodd" stroke="#AD1619" stroke-width="1.799" d="M19.464 33.38c.716 0 1.295-.62 1.295-1.382 0-.763-.58-1.381-1.295-1.381s-1.295.618-1.295 1.381.58 1.381 1.295 1.381z" clip-rule="evenodd"/></g></g></g><defs><clipPath id="a"><path fill="#fff" d="M2 12h55v36H2z"/></clipPath></defs></svg>