<svg xmlns="http://www.w3.org/2000/svg" width="60" height="60" fill="none"><g clip-path="url(#a)"><g clip-path="url(#b)"><path fill="#C00" d="M57.433 12.5H3v35.669h54.433V12.5z"/><path fill="#fff" d="m32.517 25.705 1.973 2.686 3.09-1.007-1.907 2.686 1.907 2.685-3.09-1.007-1.973 2.686v-3.357l-3.09-1.007 3.09-1.008v-3.357z"/><path fill="#fff" d="M30.02 25.37c-.46-.739-1.513-2.283-3.55-3.358-1.841-.94-3.42-1.007-3.945-1.007-2.695 0-5.851 1.343-7.626 4.298-1.84 3.088-1.578 6.916.132 9.736 2.103 3.357 5.653 3.961 6.048 4.028.197 0 4.076.605 7.165-2.148.855-.739 1.38-1.545 1.71-2.082-.33.403-1.973 2.216-4.734 2.485-3.09.268-5.127-1.612-5.456-1.948-.263-.268-2.433-2.417-2.235-5.707 0-.336.263-3.492 3.024-5.439.526-.335 2.235-1.477 4.667-1.275 2.761.268 4.405 2.081 4.734 2.484l.065-.067z"/></g></g><defs><clipPath id="a"><path fill="#fff" d="M3 12.5h54.433V48H3z"/></clipPath><clipPath id="b"><path fill="#fff" d="M3 12.5h54.433v35.629H3z"/></clipPath></defs></svg>