<svg xmlns="http://www.w3.org/2000/svg" width="60" height="60" fill="none"><g clip-path="url(#a)"><path fill="#009" d="M57.526 12.303H2.753v35.604h54.773V12.303z"/><path fill="#fff" d="m18.217 37.156 1.592-2.347-2.65 1.012-.866-2.715-.856 2.71-2.623-.975 1.56 2.324-2.444 1.404 2.807.253-.377 2.77 1.938-2.024 1.937 2.034-.391-2.79 2.858-.22-2.485-1.436zm27.49 2.697.722-1.072-1.205.465-.396-1.239-.391 1.234-1.197-.442.709 1.059-1.114.64 1.28.114-.17 1.266.883-.925.883.93-.174-1.27 1.302-.106-1.132-.654zM38.283 28.19l.727-1.072-1.21.465-.391-1.238-.392 1.233-1.2-.441.713 1.058-1.114.64 1.28.115-.17 1.266.883-.925.883.93-.18-1.271 1.308-.106-1.137-.654zm14.033-1.983.727-1.072-1.21.464-.396-1.242-.391 1.238-1.197-.447.709 1.064-1.114.64 1.284.114-.175 1.266.884-.925.888.93-.18-1.275 1.303-.102-1.132-.653zm-8.197-5.261-.175 1.261.884-.92.883.925-.174-1.27 1.302-.102-1.132-.658.722-1.067-1.205.46-.396-1.238-.391 1.233-1.197-.442.709 1.059-1.114.64 1.284.12zm4.036 10.01-.35-.708-.35.708-.782.116.566.552-.133.778.7-.369.7.369-.134-.778.566-.552-.783-.116zm-29.427-7.971h-.912v7.12h.912v-3.944l6.098 3.944h.998l-7.096-4.63v-1.302l9.154 5.932h2.26V29.6l-8.33-5.426h8.33v-1.188H18.727zm-4.566 1.188v1.302l-7.097 4.63h1.003l6.094-3.944v3.944h.916v-7.12H2.753v1.188h8.33l-8.33 5.426v.506h2.26l9.149-5.932zm3.654-4.75h12.326v-1.188h-6.099l6.099-3.944v-.68l-7.102 4.624h-2.053l9.155-5.932h-3.084l-8.33 5.43v-5.43h-.912v7.12zm-2.738 0v-7.12h-.916v5.43l-8.33-5.43h-3.08l9.155 5.932H9.849L2.753 13.61v.681l6.093 3.944H2.753v1.188h12.325z"/><path fill="#CF142B" d="m18.727 25.475 7.097 4.63h2.058l-9.155-5.932v1.302z"/><path fill="#009" d="M14.162 12.303h-8.33l8.33 5.43v-5.43z"/><path fill="#CF142B" d="m11.907 18.235-9.154-5.932v1.307l7.096 4.625h2.058z"/><path fill="#009" d="M2.753 14.291v3.944h6.093l-6.093-3.944zm0 9.882v5.426l8.33-5.426h-8.33z"/><path fill="#CF142B" d="m14.162 24.173-9.15 5.932h2.053l7.097-4.63v-1.302z"/><path fill="#009" d="M27.058 12.303h-8.33v5.43l8.33-5.43z"/><path fill="#CF142B" d="m23.04 18.235 7.102-4.625v-1.307l-9.155 5.932h2.053z"/><path fill="#CF142B" d="M15.078 30.105h2.738v-7.12h12.326v-3.562H17.817v-7.12h-2.74v7.12H2.753v3.562h12.326v7.12z"/></g><defs><clipPath id="a"><path fill="#fff" d="M2.753 12.303h54.773v35.604H2.753z"/></clipPath></defs></svg>