<svg xmlns="http://www.w3.org/2000/svg" width="60" height="60" fill="none"><g clip-path="url(#a)"><path fill="#339" d="M59.019 12H1.98v37h57.04V12z"/><path fill="#339" d="M13.624 30.052h1.667l.53-1.447.53 1.447h1.667l-1.364.896.53 1.447-1.363-.896-1.364.896.53-1.447-1.363-.896zm5.303 8.475-1.364-.896-1.363.896.53-1.447-1.364-.896h1.667l.53-1.447.53 1.447h1.667l-1.364.896.53 1.447zm-.53-13.78.53 1.447-1.364-.896-1.363.896.53-1.447-1.364-.896h1.667l.53-1.447.53 1.447h1.667l-1.364.896zm5.53 18.328-1.364-.896-1.364.895.53-1.446-1.363-.896h1.666l.53-1.447.53 1.447h1.667l-1.363.896.53 1.447zm-.531-22.738.53 1.447-1.363-.896-1.364.896.53-1.447-1.363-.896h1.666l.53-1.447.53 1.447h1.667l-1.363.896zm7.272 24.391-1.364-.896-1.363.896.53-1.447-1.363-.895h1.666l.53-1.447.53 1.447h1.667l-1.364.895.53 1.447zm-.455-26.113.53 1.447-1.363-.896-1.363.895.53-1.446-1.364-.896h1.667l.53-1.447.53 1.447h1.667l-1.364.896zm5.378.826.53-1.447.53 1.447h1.667l-1.363.896.53 1.447-1.363-.896-1.364.896.53-1.447-1.363-.896h1.666zm1.894 23.634-1.363-.896-1.364.895.53-1.446-1.363-.896h1.666l.53-1.447.53 1.447h1.667l-1.363.896.53 1.447zm3.106-19.155.53-1.447.53 1.447h1.667l-1.364.896.53 1.447-1.363-.896-1.363.896.53-1.447-1.364-.896h1.667zm1.894 14.607-1.364-.896-1.363.896.53-1.447-1.364-.896h1.667l.53-1.447.53 1.447h1.667l-1.364.896.53 1.447zm1.818-6.132-1.364-.896-1.363.896.53-1.447-1.364-.896h1.667l.53-1.447.53 1.447h1.667l-1.364.896.53 1.447z"/><path fill="#E7BA1F" d="m29.38 16.272-.53 1.447h-1.667l1.364.896-.53 1.447 1.363-.896 1.288.895-.455-1.446 1.288-.896h-1.666l-.455-1.447zm-6.817 1.723-.53 1.447h-1.667l1.363.895-.53 1.447 1.364-.896 1.363.896-.53-1.447 1.363-.895h-1.666l-.53-1.447zm-5 4.478-.454 1.447h-1.667l1.288.827-.455 1.447 1.288-.896 1.364.896-.53-1.447 1.363-.827h-1.667l-.53-1.447zM15.821 31.5l1.364.895-.53-1.447 1.363-.896H16.35l-.53-1.447-.53 1.447h-1.667l1.364.896-.53 1.447 1.363-.896zm2.272 4.753-.53-1.447-.53 1.447h-1.667l1.364.827-.53 1.447 1.363-.896 1.364.896-.53-1.447 1.363-.827h-1.667zm5 4.479-.53-1.447-.53 1.447h-1.667l1.363.896-.53 1.447 1.364-.896 1.363.896-.53-1.447 1.363-.896h-1.666zm6.742 1.654-.455-1.447-.53 1.447h-1.667l1.364.895-.53 1.447 1.363-.895 1.288.895-.455-1.447 1.288-.895h-1.666zm6.817-1.654-.53-1.447-.455 1.447h-1.666l1.288.896-.455 1.447 1.288-.896 1.363.896-.53-1.447 1.363-.896h-1.666zm4.999-4.479-.53-1.447-.53 1.447h-1.667l1.364.827-.53 1.447 1.363-.896 1.363.896-.53-1.447 1.364-.827H41.65zm1.819-6.201-.531-1.447-.53 1.447h-1.667l1.364.896-.53 1.447 1.363-.896 1.363.896-.53-1.447 1.364-.896h-1.667zm-3.712-3.858 1.363-.896 1.363.896-.53-1.447 1.364-.827H41.65l-.53-1.447-.53 1.447h-1.667l1.364.827-.53 1.447zm-5-4.41 1.364-.896 1.363.896-.53-1.447 1.364-.895h-1.667l-.53-1.447-.53 1.447h-1.667l1.364.895-.53 1.447z"/></g><defs><clipPath id="a"><path fill="#fff" d="M2.5 12h56v37h-56z"/></clipPath></defs></svg>