<svg xmlns="http://www.w3.org/2000/svg" width="60" height="60" fill="none"><g clip-path="url(#a)"><path fill="#fff" d="M2.57 31.174v2.737h54.773v-2.737H2.57z"/><path fill="#B22234" d="M57.343 33.911H2.57v2.737h54.773v-2.737zm0 5.479H2.57v2.737h54.773V39.39zm0-10.953H26.844v2.737h30.5v-2.737zm0 16.431H2.57v2.737h54.773v-2.737z"/><path fill="#fff" d="M57.343 42.127H2.57v2.737h54.773v-2.737zm0-5.474H2.57v2.737h54.773v-2.737z"/><path fill="#B22234" d="M57.343 17.481H26.844v2.737h30.5v-2.737zm0-5.478H26.844v2.737h30.5v-2.737z"/><path fill="#fff" d="M57.343 25.696H26.844v2.737h30.5v-2.737zm0-10.956H26.844v2.737h30.5V14.74z"/><path fill="#B22234" d="M57.343 22.96H26.844v2.736h30.5V22.96z"/><path fill="#fff" d="M57.343 20.218H26.844v2.737h30.5v-2.737z"/><path fill="#3C3B6E" d="M26.844 28.437V12.003H2.57v19.171h24.274v-2.737zM5.15 30.193l-.557-.452-.558.453.214-.731-.557-.452h.687l.088-.303.02-.065.061-.206.045-.153.044.153.06.206.02.065.09.303h.686l-.557.452.214.73zm-.214-4.553.016.06.073.243.02.064.105.363-.448-.363-.081-.064-.028-.025-.029.025-.08.064-.449.363.105-.363.02-.064.073-.243.016-.06-.557-.452h.687l.214-.731.214.73h.686l-.557.453zm0-3.823.214.73-.557-.452-.558.453.214-.731-.557-.452h.687l.214-.731.214.73h.686l-.557.453zm.198-3.985-.081.065-.117.093.214.73-.557-.452-.558.453.214-.731-.117-.093-.08-.065-.36-.29h.687l.016-.057.198-.67.193.67.017.057h.686l-.36.29h.005zm-.198-3.665.17.577.044.154-.19-.154-.367-.299-.368.3-.19.153.045-.154.165-.577-.557-.452h.687l.214-.731.213.73h.687l-.557.453h.004zM7.188 28.28l-.557-.452-.557.452.214-.73-.557-.453h.686l.214-.73.214.73h.686l-.557.452.214.731zm.311-4.978-.52.424.213.731-.557-.452-.557.452.214-.73-.52-.425-.037-.028h.686l.012-.04.081-.279.121-.411.121.411.081.279.012.04h.686l-.036.028zm-.52-3.399.092.32.093.314.02.065.008.032-.04-.032-.08-.065-.388-.315-.049-.04-.048.04-.388.315-.08.065-.04.032.007-.032.02-.065.093-.315.093-.319-.557-.452h.686l.214-.73.214.73h.686l-.557.452zm0-3.823.213.731-.557-.452-.557.452.214-.73-.557-.453h.686l.125-.436.02-.064.07-.23.068.23.02.064.125.436h.686l-.557.452zm2.22 14.114-.557-.453-.557.453.213-.731-.557-.452h.687l.088-.303.02-.065.061-.206.045-.153.044.153.06.206.02.065.09.303h.686l-.557.452.21.73h.004zm-.21-4.554.016.06.073.243.02.064.105.363-.448-.363-.081-.064-.028-.025-.029.025-.08.064-.448.363.105-.363.02-.064.068-.243.016-.06-.557-.452h.687l.214-.731.214.73h.686l-.557.453h.004zm0-3.823.21.73-.557-.452-.557.453.213-.731-.557-.452h.687l.214-.731.214.73h.686l-.557.453h.004zm.198-3.985-.081.065-.117.093.21.73-.557-.452-.557.453.213-.731-.117-.093-.08-.065-.36-.29h.687l.016-.057.198-.67.193.67.017.057h.686l-.36.29h.009zm-.198-3.665.165.577.045.154-.19-.154-.367-.299-.368.3-.19.153.045-.154.165-.577-.557-.452h.687l.214-.731.214.73h.686l-.557.453h.008zm2.248 14.113-.557-.452-.557.452.214-.73-.557-.453h.686l.214-.73.214.73h.687l-.558.452.214.731zm.311-4.978-.52.424.213.731-.557-.452-.557.452.214-.73-.52-.425-.037-.028h.686l.012-.04.081-.279.121-.411.121.411.081.279.012.04h.687l-.037.028zm-.52-3.399.092.32.093.314.02.065.008.032-.04-.032-.08-.065-.388-.315-.049-.04-.048.04-.388.315-.08.065-.04.032.007-.032.02-.065.093-.315.093-.319-.557-.452h.686l.214-.73.214.73h.687l-.558.452zm0-3.823.213.731-.557-.452-.557.452.214-.73-.557-.453h.686l.125-.436.02-.064.07-.23.068.23.02.064.125.436h.687l-.558.452zm2.22 14.114-.557-.453-.557.453.213-.731-.557-.452h.687l.088-.303.02-.065.061-.206.045-.153.044.153.06.206.02.065.09.303h.686l-.557.452.214.73zm-.214-4.554.016.06.073.243.02.064.105.363-.448-.363-.081-.064-.028-.025-.029.025-.08.064-.448.363.104-.363.02-.064.073-.243.017-.06-.558-.452h.687l.214-.731.214.73h.686l-.557.453zm0-3.823.214.73-.557-.452-.557.453.213-.731-.557-.452h.687l.214-.731.214.73h.686l-.557.453zm.198-3.985-.081.065-.117.093.214.73-.557-.452-.557.453.213-.731-.117-.093-.08-.065-.36-.29h.687l.016-.057.198-.67.193.67.017.057h.686l-.36.29h.005zm-.198-3.665.17.577.044.154-.19-.154-.367-.299-.368.3-.19.153.045-.154.165-.577-.557-.452h.687l.214-.731.214.73h.686l-.557.453h.004zm2.252 14.113-.557-.452-.557.452.214-.73-.557-.453h.686l.21-.73.214.73h.687l-.558.452.214.731h.004zm.311-4.978-.52.424.213.731-.557-.452-.557.452.214-.73-.52-.425-.037-.028h.686l.008-.04.081-.279.121-.411.121.411.081.279.012.04h.687l-.037.028h.004zm-.52-3.399.092.32.093.314.02.065.008.032-.04-.032-.08-.065-.388-.315-.049-.04-.048.04-.388.315-.08.065-.04.032.007-.032.02-.065.093-.315.093-.319-.557-.452h.686l.21-.73.214.73h.687l-.558.452h.005zm0-3.823.213.731-.557-.452-.557.452.214-.73-.557-.453h.686l.126-.436.02-.064.068-.23.069.23.02.064.125.436h.687l-.558.452zm2.22 14.114-.557-.453-.557.453.214-.731-.557-.452h.686l.089-.303.02-.065.06-.206.045-.153.044.153.06.206.02.065.09.303h.686l-.557.452.214.73zm-.214-4.554.016.06.073.243.02.064.105.363-.448-.363-.081-.064-.028-.025-.028.025-.081.064-.448.363.105-.363.02-.064.072-.243.017-.06-.557-.452h.686l.214-.731.214.73h.686l-.557.453zm0-3.823.214.73-.557-.452-.557.453.214-.731-.557-.452h.686l.214-.731.214.73h.686l-.557.453zm.198-3.985-.081.065-.117.093.214.73-.557-.452-.557.453.214-.731-.117-.093-.081-.065-.36-.29h.687l.016-.057.194-.67.194.67.016.057h.686l-.36.29h.009zm-.198-3.665.17.577.044.154-.19-.154-.367-.299-.368.3-.19.153.045-.154.166-.577-.558-.452h.687l.214-.731.214.73h.686l-.557.453h.004zm2.253 14.113-.558-.452-.557.452.214-.73-.557-.453h.686l.214-.73.214.73h.687l-.557.452.213.731zm.31-4.978-.52.424.213.731-.557-.452-.557.452.214-.73-.52-.425-.037-.028h.686l.013-.04.08-.279.121-.411.122.411.08.279.012.04h.687l-.037.028zm-.52-3.399.092.32.093.314.02.065.009.032-.04-.032-.082-.065-.387-.315-.049-.04-.048.04-.388.315-.08.065-.04.032.007-.032.02-.065.093-.315.093-.319-.557-.452h.686l.214-.73.214.73h.687l-.557.452zm0-3.823.213.731-.557-.452-.557.452.214-.73-.557-.453h.686l.126-.436.02-.064.068-.23.069.23.02.064.125.436h.687l-.557.452zm2.22 14.114-.557-.453-.557.453.214-.731-.558-.452h.687l.089-.303.02-.065.06-.206.045-.153.044.153.06.206.02.065.09.303h.686l-.557.452.214.73zm-.214-4.554.016.06.073.243.02.064.105.363-.448-.363-.081-.064-.028-.025-.029.025-.08.064-.448.363.105-.363.02-.064.069-.243.016-.06-.558-.452h.687l.214-.731.214.73h.686l-.557.453h.004zm0-3.823.214.73-.557-.452-.557.453.214-.731-.558-.452h.687l.214-.731.214.73h.686l-.557.453zm.198-3.985-.081.065-.117.093.214.73-.557-.452-.557.453.214-.731-.117-.093-.081-.065-.36-.29h.687l.016-.057.198-.67.194.67.016.057h.686l-.36.29h.005zm-.198-3.665.17.577.044.154-.19-.154-.367-.299-.368.3-.19.153.045-.154.166-.577-.558-.452h.687l.214-.731.214.73h.686l-.557.453h.004zm2.252 14.113-.557-.452-.557.452.21-.73-.557-.453h.686l.214-.73.214.73h.687l-.558.452.215.731h.003zm.311-4.978-.52.424.214.731-.558-.452-.557.452.21-.73-.52-.425-.037-.028h.686l.013-.04.08-.279.121-.411.121.411.081.279.012.04h.687l-.037.028h.004zm-.52-3.399.092.32.093.314.02.065.009.032-.04-.032-.082-.065-.387-.315-.049-.04-.048.04-.388.315-.08.065-.04.032.007-.032.02-.065.093-.315.093-.319-.557-.452h.686l.214-.73.214.73h.687l-.557.452zm0-3.823.214.731-.558-.452-.557.452.21-.73-.557-.453h.686l.126-.436.02-.064.068-.23.07.23.02.064.124.436h.687l-.557.452h.004zm2.22 14.114-.557-.453-.557.453.214-.731-.557-.452h.686l.089-.303.02-.065.06-.206.045-.153.044.153.06.206.021.065.089.303h.686l-.557.452.21.73h.004zm-.21-4.554.016.06.073.243.02.064.105.363-.448-.363-.08-.064-.03-.025-.027.025-.081.064-.448.363.105-.363.02-.064.073-.243.016-.06-.557-.452h.686l.21-.731.214.73h.686l-.557.453h.004zm0-3.823.21.73-.557-.452-.557.453.214-.731-.557-.452h.686l.21-.731.214.73h.686l-.557.453h.008zm.198-3.985-.08.065-.118.093.21.73-.557-.452-.557.453.214-.731-.117-.093-.081-.065-.36-.29h.687l.016-.057.194-.67.198.67.016.057h.686l-.36.29h.009zm-.198-3.665.166.577.044.154-.19-.154-.367-.299-.364.3-.19.153.045-.154.166-.577-.557-.452h.686l.21-.731.214.73h.686l-.557.453h.008z"/><path fill="#fff" d="m4.807 29.01-.09-.302-.02-.065-.06-.206-.044-.157-.045.157-.06.206-.02.065-.09.303h-.686l.557.452-.213.73.557-.452.557.453-.214-.731.557-.452h-.686zm4.044 0-.088-.302-.02-.065-.061-.206-.044-.157-.045.157-.06.206-.02.065-.085.303h-.69l.556.452-.214.73.558-.452.557.453-.21-.731.553-.452H8.85zm4.045 0-.088-.302-.016-.065-.061-.206-.044-.157-.049.157-.056.206-.02.065-.09.303h-.69l.557.452-.21.73.558-.452.553.453-.21-.731.557-.452h-.69zm4.046 0-.085-.302-.02-.065-.06-.206-.045-.157-.045.157-.06.206-.02.065-.09.303h-.686l.558.452-.214.73.557-.452.557.453-.214-.731.557-.452h-.69zm4.048 0-.088-.302-.02-.065-.06-.206-.045-.157-.045.157-.06.206-.02.065-.09.303h-.686l.558.452-.214.73.557-.452.557.453-.214-.731.557-.452h-.686zm4.046 0-.09-.302-.02-.065-.06-.206-.044-.157-.045.157-.06.206-.02.065-.085.303h-.69l.556.452-.213.73.557-.452.557.453-.214-.731.557-.452h-.686zM4.593 24.457l-.214.73h-.687l.557.449-.016.06-.072.242-.02.07-.105.358.448-.359.08-.069.029-.02.028.02.08.07.449.358-.105-.359-.02-.069-.073-.242-.016-.06.557-.448h-.686l-.214-.731zm4.045 0-.21.73h-.69l.556.449-.016.06-.072.242-.017.07-.109.358.449-.359.08-.069.029-.02.028.02.08.07.449.358-.105-.359-.02-.069-.07-.242-.015-.06.553-.448H8.85l-.213-.731zm4.049 0-.214.73h-.69l.556.449-.016.06-.068.242-.02.07-.105.358.444-.359.084-.069.029-.02.024.02.085.07.444.358-.105-.359-.02-.069-.07-.242-.015-.06.557-.448h-.69l-.21-.731zm4.045 0-.214.73h-.687l.558.449-.02.06-.07.242-.02.07-.104.358.448-.359.08-.069.029-.02.028.02.08.07.449.358-.11-.359-.015-.069-.073-.242-.016-.06.557-.448h-.69l-.21-.731zm4.045 0-.214.73h-.686l.557.449-.017.06-.072.242-.02.07-.105.358.448-.359.08-.069.029-.02.028.02.08.07.449.358-.105-.359-.02-.069-.073-.242-.016-.06.557-.448h-.686l-.214-.731zm4.045 0-.21.73h-.69l.556.449-.016.06-.072.242-.02.07-.105.358.448-.359.08-.069.029-.02.028.02.08.07.449.358-.105-.359-.02-.069-.07-.242-.02-.06.558-.448h-.686l-.214-.731zM4.593 20.634l-.214.73h-.687l.557.449-.213.73.557-.448.557.449-.214-.731.557-.448h-.686l-.214-.731zm4.045 0-.21.73h-.69l.556.449-.214.73.558-.448.557.449-.21-.731.553-.448H8.85l-.213-.731zm4.049 0-.214.73h-.69l.556.449-.21.73.558-.448.553.449-.21-.731.557-.448h-.69l-.21-.731zm4.045 0-.214.73h-.687l.558.449-.214.73.557-.448.557.449-.214-.731.557-.448h-.69l-.21-.731zm4.045 0-.214.73h-.686l.557.449-.214.73.557-.448.557.449-.214-.731.557-.448h-.686l-.214-.731zm4.045 0-.21.73h-.69l.556.449-.213.73.557-.448.557.449-.214-.731.557-.448h-.686l-.214-.731zM4.786 17.481l-.193-.674-.194.674-.02.057h-.687l.36.294.08.065.117.093-.213.73.557-.452.557.453-.214-.731.117-.093.08-.065.36-.294h-.686l-.02-.057zm4.049 0-.197-.674-.194.674-.016.057h-.69l.359.294.08.065.117.093-.214.73.558-.452.557.453-.21-.731.113-.093.08-.065.36-.294H8.85l-.016-.057zm4.045 0-.193-.674-.198.674-.016.057h-.69l.359.294.084.065.113.093-.21.73.558-.452.553.453-.21-.731.113-.093.08-.065.364-.294h-.69l-.017-.057zm4.045 0-.193-.674-.198.674-.016.057h-.687l.36.294.08.065.117.093-.213.73.557-.452.557.453-.214-.731.117-.093.08-.065.36-.294h-.69l-.017-.057zm4.045 0-.193-.674-.198.674-.016.057h-.686l.359.294.08.065.118.093-.214.73.557-.452.557.453-.214-.731.117-.093.08-.065.36-.294h-.686l-.02-.057zm4.05 0-.198-.674-.194.674-.016.057h-.69l.359.294.08.065.117.093-.213.73.557-.452.557.453-.214-.731.117-.093.08-.065.36-.294h-.686l-.017-.057zM6.716 15.192l-.02-.064-.065-.23-.068.23-.017.064-.129.436h-.686l.557.448-.214.731.557-.452.557.452-.214-.73.557-.449h-.69l-.125-.436zm4.049 0-.02-.064-.069-.23-.064.23-.02.064-.13.436h-.686l.557.448-.214.731.557-.452.557.452-.214-.73.557-.449h-.686l-.125-.436zm4.045 0-.02-.064-.069-.23-.064.23-.02.064-.126.436h-.69l.557.448-.214.731.557-.452.557.452-.21-.73.553-.449h-.686l-.125-.436zm4.045 0-.02-.064-.065-.23-.068.23-.02.064-.126.436h-.686l.553.448-.21.731.557-.452.553.452-.21-.73.558-.449h-.69l-.126-.436zm4.045 0-.02-.064-.065-.23-.068.23-.02.064-.126.436h-.686l.553.448-.21.731.557-.452.557.452-.214-.73.557-.449h-.69l-.125-.436zM6.631 18.72l-.214.731h-.686l.557.452-.093.315-.093.315-.02.065-.008.036.04-.036.081-.065.388-.315.048-.036.045.036.391.315.08.065.041.036-.012-.036-.02-.065-.089-.315-.093-.315.557-.452h-.69l-.21-.73zm4.045 0-.214.731h-.686l.557.452-.093.315-.093.315-.016.065-.012.036.04-.036.085-.065.384-.315.048-.036.049.036.387.315.081.065.04.036-.008-.036-.02-.065-.093-.315-.093-.315.557-.452h-.686l-.214-.73zm4.045 0-.21.731h-.69l.557.452-.093.315-.088.315-.02.065-.013.036.045-.036.08-.065.388-.315.044-.036.049.036.387.315.081.065.04.036-.008-.036-.02-.065-.093-.315-.088-.315.552-.452h-.686l-.214-.73zm4.049 0-.214.731h-.686l.553.452-.093.315-.088.315-.02.065-.009.036.04-.036.081-.065.388-.315.048-.036.045.036.387.315.081.065.04.036-.008-.036-.02-.065-.089-.315-.093-.315.558-.452h-.69l-.21-.73zm4.045 0-.214.731h-.686l.553.452-.089.315-.093.315-.02.065-.008.036.04-.036.081-.065.388-.315.048-.036.045.036.387.315.081.065.044.036-.012-.036-.02-.065-.089-.315-.093-.315.557-.452h-.69l-.21-.73zM6.833 23.238l-.08-.279-.122-.415-.12.415-.082.279-.012.036h-.686l.032.028.525.424-.214.731.557-.452.557.452-.214-.73.521-.425.036-.028h-.69l-.008-.036zm4.045 0-.08-.279-.122-.415-.12.415-.082.279-.012.036h-.686l.036.028.521.424-.214.731.557-.452.557.452-.214-.73.525-.425.032-.028h-.686l-.012-.036zm4.045 0-.08-.279-.122-.415-.117.415-.085.279-.008.036h-.69l.036.028.521.424-.214.731.557-.452.557.452-.21-.73.521-.425.032-.028h-.686l-.012-.036zm4.049 0-.085-.279-.117-.415-.12.415-.081.279-.013.036h-.686l.032.028.521.424-.21.731.557-.452.553.452-.21-.73.521-.425.037-.028h-.69l-.009-.036zm4.045 0-.08-.279-.122-.415-.12.415-.082.279-.012.036h-.686l.032.028.521.424-.21.731.557-.452.557.452-.214-.73.521-.425.037-.028h-.69l-.009-.036zM6.841 27.097l-.21-.73-.214.73h-.686l.557.452-.214.731.557-.452.557.452-.214-.73.557-.453h-.69zm4.049 0-.214-.73-.214.73h-.686l.557.452-.214.731.557-.452.557.452-.214-.73.557-.453h-.686zm4.045 0-.214-.73-.21.73h-.69l.557.452-.214.731.557-.452.557.452-.21-.73.553-.453h-.686zm4.045 0-.21-.73-.214.73h-.686l.553.452-.21.731.557-.452.553.452-.21-.73.558-.453h-.69zm4.045 0-.21-.73-.214.73h-.686l.553.452-.21.731.557-.452.557.452-.214-.73.557-.453h-.69zM4.593 12.984l-.214.73h-.687l.557.453-.17.573-.043.158.19-.158.367-.295.367.295.19.158-.045-.158-.17-.573.558-.452h-.686l-.214-.731zm4.045 0-.21.73h-.69l.556.453-.165.573-.049.158.194-.158.364-.295.367.295.19.158-.045-.158-.165-.573.553-.452H8.85l-.213-.731zm4.049 0-.214.73h-.69l.556.453-.165.573-.044.158.19-.158.367-.295.363.295.19.158-.045-.158-.165-.573.557-.452h-.69l-.21-.731zm4.045 0-.214.73h-.687l.558.453-.17.573-.044.158.19-.158.367-.295.363.295.194.158-.045-.158-.17-.573.558-.452h-.69l-.21-.731zm4.045 0-.214.73h-.686l.557.453-.17.573-.044.158.19-.158.367-.295.367.295.19.158-.045-.158-.17-.573.558-.452h-.686l-.214-.731zm4.045 0-.21.73h-.69l.556.453-.165.573-.048.158.193-.158.364-.295.367.295.19.158-.045-.158-.17-.573.558-.452h-.686l-.214-.731z"/></g><defs><clipPath id="a"><path fill="#fff" d="M2.57 12.003h54.773v35.602H2.57z"/></clipPath></defs></svg>