<svg viewBox="0 0 166 78" xmlns:xlink="http://www.w3.org/1999/xlink" xmlns="http://www.w3.org/2000/svg" width="166" height="78" fill="none"><path fill="#fff" fill-opacity=".01" d="M0 0h166v78H0z"/><path fill="#862565" d="M106.418 29.278c2.381 0 4.309-1.976 4.309-4.412s-1.929-4.416-4.309-4.416-4.306 1.978-4.306 4.416c0 .58.111 1.153.328 1.689.216.535.533 1.022.933 1.431.4.41.874.735 1.397.957a4.211 4.211 0 0 0 1.648.335zm-33.007 2.38c-.194.514-1.594 4.553-4.98 8.75V22.457l-9.019 1.826v32.544h9.02v-10.06c2.614 4.014 3.905 10.06 3.905 10.06H83.14c-1.067-4.554-5.743-12.947-5.743-12.947a40.875 40.875 0 0 0 6.33-12.221l-10.317-.001zm23.713-.34c-8.078.266-12.18 3.98-12.18 11.363v14.145h8.814V45.293c0-4.42.565-6.303 5.684-6.496v-7.345c-.86-.188-2.318-.129-2.318-.129m-52.838 3.923c-1.105-.073-3.663-.244-3.663-2.603 0-2.847 3.682-2.847 5.064-2.847 2.429 0 5.573.734 7.82 1.424.766.327 1.54.632 2.32.916l.1.028v-7.8l-.135-.041c-2.651-.952-5.733-1.865-11.448-1.865-9.854 0-13.344 5.88-13.344 10.92 0 2.905 1.215 9.742 12.499 10.53.956.06 3.495.21 3.495 2.65 0 2.013-2.08 3.2-5.574 3.2-3.828 0-7.548-1-9.804-1.95v8.031c3.38.907 7.188 1.361 11.653 1.361 9.635 0 13.949-5.565 13.949-11.08 0-6.254-4.828-10.317-12.93-10.874m57.764 21.585h8.742V31.688h-8.745l.003 25.143zm25.204-32.77v32.77H136V22.46l-8.744 1.6zm-12.758 0 8.735-1.6v34.37h-8.735V24.059v.003z"/></svg>