<svg xmlns="http://www.w3.org/2000/svg" width="150" height="103" fill="none"><mask id="a" width="150" height="103" x="0" y="0" maskUnits="userSpaceOnUse" style="mask-type:luminance"><path fill="#fff" d="M150 0H0v103h150V0z"/></mask><g mask="url(#a)"><path fill="#036" d="m108.832 74.31.027.026-4.023 6.15 1.132-.218c.245-.477.559-1.023.955-1.663.422-.682.818-1.31 1.213-1.937.382-.586.777-1.213 1.255-1.922l.245-.382.818-1.241-.054-.055c-.671.516-1.377.986-2.114 1.405-.75.436-1.554.75-2.386.94l.054.15c.246-.067.491-.15.737-.231.259-.089.514-.189.763-.3a8.642 8.642 0 0 0 1.35-.737l.028.015zm-10.39 5.304a1.7 1.7 0 0 1 .681.136c.231.095.436.19.627.286.19.096.395.205.586.3.177.096.368.137.559.15.328 0 .641-.068.941-.218a3.46 3.46 0 0 0 .777-.56c.232-.231.437-.49.614-.763.177-.272.327-.545.477-.818h-.095c-.082.15-.191.34-.327.559a4.895 4.895 0 0 1-.45.6c-.159.18-.342.336-.546.464a1.08 1.08 0 0 1-.613.19c-.191 0-.369-.054-.546-.122-.191-.082-.409-.163-.641-.26-.232-.094-.45-.176-.668-.258a1.97 1.97 0 0 0-.56-.123 1.26 1.26 0 0 0-.49.096c-.15.068-.286.136-.423.204l-.027-.054a7.67 7.67 0 0 1 1.227-.668c.491-.22.941-.41 1.378-.6.436-.191.886-.382 1.377-.628a7.429 7.429 0 0 0 1.186-.722c.327-.26.614-.573.832-.928.205-.354.314-.777.314-1.186 0-.218-.041-.423-.123-.627a1.517 1.517 0 0 0-.382-.546 1.99 1.99 0 0 0-.654-.395c-.3-.11-.614-.164-.928-.15-.382 0-.75.068-1.104.218a2.76 2.76 0 0 0-.818.545c-.219.205-.382.45-.505.723a2 2 0 0 0-.177.75c-.014.273.082.56.259.764.177.19.423.3.682.286a1.123 1.123 0 0 0 .995-.6l-.054-.04c-.096.04-.178.08-.26.108-.3.11-.64 0-.859-.245a1.006 1.006 0 0 1-.231-.641c0-.245.054-.477.177-.695.109-.191.259-.37.436-.52.177-.135.368-.244.587-.326.202-.07.414-.108.627-.11.409-.026.804.137 1.063.437.26.328.382.737.369 1.146 0 .286-.041.559-.123.832-.096.3-.246.572-.45.804a4.042 4.042 0 0 1-.927.805c-.491.313-.996.6-1.528.83-1.006.44-1.985.942-2.93 1.5-.642.397-.956.67-.956.82v.095c0 .027.027.04.082.04.054 0 .11-.04.177-.135.082-.11.177-.205.273-.3a1.63 1.63 0 0 1 .436-.3c.21-.094.438-.14.668-.137l-.013-.013zm-1.76-6.546c-.396 0-.778.082-1.132.246a5.81 5.81 0 0 0-1.16.668c-.386.29-.742.62-1.063.982a8.308 8.308 0 0 0-.873 1.186c-.245.41-.45.832-.6 1.282-.14.413-.214.845-.218 1.282-.027.463.11.913.382 1.295.3.355.736.546 1.2.505a2.71 2.71 0 0 0 1.132-.26c.41-.177.79-.41 1.145-.681.382-.3.75-.628 1.078-.996.327-.367.623-.758.886-1.172.245-.398.45-.818.614-1.255.15-.382.218-.79.231-1.2 0-.245-.027-.49-.095-.736a1.57 1.57 0 0 0-.286-.587c-.137-.163-.3-.3-.505-.381a1.785 1.785 0 0 0-.75-.137l.014-.04v-.001zm-11.469 6.546c.232 0 .464.04.67.136.23.095.421.19.626.286l.586.3c.178.096.368.137.56.15.327 0 .654-.068.94-.218a3.52 3.52 0 0 0 .778-.56c.231-.231.436-.49.613-.763.191-.286.341-.56.477-.818h-.095c-.082.15-.19.328-.327.559a4.86 4.86 0 0 1-.45.6c-.159.18-.342.336-.546.464a1.08 1.08 0 0 1-.613.19c-.19 0-.368-.054-.546-.122-.232-.095-.45-.177-.64-.26-.192-.081-.423-.163-.669-.258a1.97 1.97 0 0 0-.559-.123 1.15 1.15 0 0 0-.477.096c-.15.068-.287.136-.423.204l-.027-.054a7.123 7.123 0 0 1 1.227-.668c.49-.22.955-.423 1.39-.6.437-.178.915-.396 1.378-.628.423-.204.818-.45 1.187-.722.327-.26.613-.573.831-.928.205-.354.314-.777.314-1.186 0-.218-.04-.423-.123-.627a1.521 1.521 0 0 0-.382-.546c-.19-.163-.409-.3-.654-.395-.3-.11-.614-.164-.927-.15a2.688 2.688 0 0 0-1.923.763 2.46 2.46 0 0 0-.505.723 2.026 2.026 0 0 0-.177.75c-.01.278.083.55.26.764.177.19.422.286.681.286a1.12 1.12 0 0 0 .995-.6l-.054-.04c-.096.04-.177.08-.26.108-.3.11-.64 0-.858-.245a1 1 0 0 1-.232-.641c0-.245.055-.477.177-.695.11-.191.26-.37.437-.52a1.96 1.96 0 0 1 1.214-.435c.408-.027.804.136 1.063.436.26.328.382.737.368 1.146 0 .286-.04.559-.123.832a2.44 2.44 0 0 1-.45.804 4.028 4.028 0 0 1-.927.805c-.49.313-.995.6-1.527.83-1.01.438-1.99.942-2.932 1.5-.64.397-.955.67-.955.82v.095c0 .027.028.04.082.04.055 0 .11-.04.177-.135.082-.11.178-.205.273-.3a1.63 1.63 0 0 1 .437-.3c.218-.096.45-.137.681-.137l-.04-.013zm-9.559.054s.014.04.028.068c.081.164.204.314.34.423.15.109.328.205.505.246.205.054.41.08.627.08.56 0 1.12-.108 1.637-.326.507-.22.984-.504 1.418-.845.436-.355.832-.75 1.2-1.187.34-.422.668-.86.954-1.322l-.08-.041a12.4 12.4 0 0 1-.874 1.172c-.327.396-.696.764-1.077 1.105a6.5 6.5 0 0 1-1.255.845 3.997 3.997 0 0 1-1.418.437l-.027-.028c.173-.03.339-.09.49-.177a1.94 1.94 0 0 0 .75-.777c.082-.15.11-.327.11-.505 0-.218-.028-.436-.11-.641a8.223 8.223 0 0 0-.23-.572 3.89 3.89 0 0 1-.233-.546 1.7 1.7 0 0 1-.11-.572c0-.22.07-.423.192-.587a.714.714 0 0 1 .6-.245c.177 0 .354.054.49.19.11.123.178.287.178.464 0 .137-.027.273-.055.396a1.9 1.9 0 0 1-.15.368c.205 0 .41-.055.587-.164a.576.576 0 0 0 .272-.518.75.75 0 0 0-.34-.64 1.6 1.6 0 0 0-.9-.246c-.19 0-.396.027-.573.095a1.403 1.403 0 0 0-.49.26c-.137.108-.26.245-.342.408a1.23 1.23 0 0 0-.082.859c-.19.3-.409.587-.64.887-.083.109-.178.204-.246.3a.445.445 0 0 0-.34-.11.83.83 0 0 0-.642.287 1 1 0 0 0-.232.64c0 .124.014.26.041.383-.218.19-.45.368-.695.532a1.49 1.49 0 0 1-.79.272.32.32 0 0 1-.233-.095.381.381 0 0 1-.082-.246 1.99 1.99 0 0 1 .273-.777c.177-.354.423-.777.723-1.268.286-.464.627-.995 1.036-1.61.355-.53.777-1.158 1.227-1.813l1.268-1.882c.423-.64.82-1.24 1.173-1.813h-.913l-3.56 5.659h-.04a.964.964 0 0 0-.246-.71.913.913 0 0 0-.71-.272c-.45.014-.9.15-1.28.396-.465.272-.9.613-1.283.995a7.29 7.29 0 0 0-.532.586c-.08.028-.163.028-.245.028a.54.54 0 0 1-.395-.178.786.786 0 0 1-.164-.49c0-.26.082-.52.218-.737.136-.204.287-.395.45-.573-.095 0-.177-.013-.245-.013h-.273a.457.457 0 0 0-.327.082c-.057.067-.108.14-.15.218-.26.177-.518.368-.764.559-.487.395-.947.824-1.377 1.282-.19.204-.368.395-.49.545l-.028-.027 1.745-2.55h-.845c-.587.9-1.078 1.663-1.528 2.386l-.695 1.105-.136.136c-.3.286-.628.546-.969.777-.215.16-.47.259-.736.287a.326.326 0 0 1-.368-.273v-.095c.027-.246.095-.478.218-.682.15-.287.34-.614.586-1.01.246-.395.546-.831.832-1.24.327-.477.655-.941.982-1.391h-.9l-.45.818h-.055a2.369 2.369 0 0 0-.109-.34.939.939 0 0 0-.218-.3.878.878 0 0 0-.34-.205 1.403 1.403 0 0 0-.478-.082 2.34 2.34 0 0 0-1.227.395 5.61 5.61 0 0 0-1.2.996c-.169.178-.324.37-.464.572-.095 0-.19.014-.286.014-.218 0-.423-.041-.614-.136a3.116 3.116 0 0 1-.423-.314c0-.068.028-.15.041-.232v-.095c.027-.123.041-.232.041-.355 0-.204-.027-.41-.109-.6a.386.386 0 0 0-.395-.245c-.273 0-.41.15-.41.436 0 .082 0 .164.041.246.028.095.07.19.137.272a3.783 3.783 0 0 1-.382 1.268c-.218.45-.49.86-.805 1.24-.3.37-.64.683-1.022.942a1.81 1.81 0 0 1-1.05.368.588.588 0 0 1-.423-.163.737.737 0 0 1-.15-.437c.014-.327.11-.654.273-.94.19-.396.422-.778.668-1.146.26-.382.518-.763.777-1.118l.055-.082c.245-.327.436-.586.586-.79h-.955c-.38.613-.763 1.186-1.104 1.704a18.833 18.833 0 0 1-1.09 1.5 6.4 6.4 0 0 1-1.037 1.063c-.26.246-.6.382-.968.409-.328 0-.478-.19-.478-.586 0-.26.068-.532.191-.764.15-.3.327-.6.532-.872.232-.314.505-.668.832-1.077.327-.41.668-.86 1.063-1.405h-.913L52.46 76.9c-.286.368-.532.723-.736 1.036-.175.265-.33.543-.464.832-.027.055-.04.109-.055.15a9.324 9.324 0 0 1-.545.505 5.244 5.244 0 0 1-.71.518 1.303 1.303 0 0 1-.6.19.59.59 0 0 1-.585-.3 1.678 1.678 0 0 1-.15-.722c0-.464.068-.914.204-1.364.15-.531.327-1.05.532-1.554.232-.56.49-1.091.777-1.623.3-.545.6-1.063.927-1.554.328-.491.67-.955.996-1.378.3-.381.627-.736.982-1.063l-.04-.055c-.506.15-.997.355-1.46.627-.478.273-.94.587-1.378.94-.436.342-.859.724-1.254 1.106-.368.355-.723.75-1.077 1.145-.306.34-.602.69-.887 1.05-.259.328-.477.6-.654.819-.41.49-.832.98-1.268 1.459-.423.45-.86.872-1.337 1.268-.407.347-.85.649-1.323.9-.379.213-.805.33-1.24.34-.15 0-.3-.027-.45-.067a.51.51 0 0 1-.34-.26c.08-.013.15-.081.19-.15a.537.537 0 0 0-.056-.6.37.37 0 0 0-.34-.15.497.497 0 0 0-.382.164.607.607 0 0 0-.136.396c0 .095.014.19.04.286a.87.87 0 0 0 .192.3c.122.109.26.19.41.245.231.082.476.109.722.109.477 0 .954-.136 1.377-.368a7.903 7.903 0 0 0 1.445-.982c.505-.436.996-.9 1.446-1.404.477-.518.94-1.077 1.39-1.65h1.882c-.177.45-.34.927-.49 1.432-.15.49-.219.995-.219 1.513 0 .178.028.369.07.546.04.163.121.327.217.477.095.136.231.246.382.327.177.082.368.123.56.109a1.89 1.89 0 0 0 1.035-.354 7.345 7.345 0 0 0 1.064-.886c-.016.08-.025.162-.028.245 0 .273.082.532.26.723.218.19.504.286.79.272.218 0 .423-.04.614-.136.218-.095.423-.232.6-.382.218-.177.41-.368.6-.586.177-.205.368-.423.573-.682l.027.027c-.014.069-.055.178-.095.3-.04.15-.069.3-.069.464a.883.883 0 0 0 .314.736c.218.164.49.259.764.246.395 0 .79-.11 1.145-.287a6.033 6.033 0 0 0 1.186-.763c.37-.314.71-.655 1.023-1.037a4.09 4.09 0 0 0 .682-1.16c.136.138.3.233.477.315.178.082.368.123.573.123h.177c-.122.177-.218.354-.327.532-.218.378-.34.803-.355 1.24 0 .26.07.505.205.723a.776.776 0 0 0 .723.314c.218 0 .436-.055.627-.15a6.16 6.16 0 0 0 .64-.368 6.65 6.65 0 0 0 1.036-.928h.03l-.138.396c-.04.123-.054.245-.054.382 0 .177.068.34.19.477a.78.78 0 0 0 .587.204c.382-.013.736-.15 1.036-.381.246-.164.477-.355.696-.546l-.505.805h.9c.15-.352.324-.694.518-1.023a5.49 5.49 0 0 1 .573-.805c.518-.572.996-1.077 1.432-1.486.385-.37.8-.707 1.24-1.01l.028.028c-.11.178-.15.382-.15.6-.014.273.082.546.273.75a.93.93 0 0 0 .71.273c.081 0 .162 0 .244-.027-.122.163-.23.34-.34.518a2.48 2.48 0 0 0-.396 1.268c0 .259.095.518.273.723.19.204.477.327.763.3.246 0 .478-.055.696-.164.232-.11.45-.245.64-.41.205-.163.396-.34.573-.531.178-.191.341-.368.491-.532h.028c-.082.164-.15.3-.219.45a1.298 1.298 0 0 0-.109.505c0 .177.082.355.218.477.191.137.423.205.655.19.355-.012.71-.15.995-.367.205-.138.401-.288.587-.45v-.027l-.096.095zm1.27-17.468c-.397 0-.779.136-1.079.395a1.31 1.31 0 0 0-.422.996c0 .232.054.45.177.655.123.204.286.368.477.504.232.15.477.26.737.314.3.082.613.109.927.109a4.43 4.43 0 0 0 1.568-.287c.477-.19.914-.436 1.323-.722.381-.287.75-.6 1.077-.955.506-.54.963-1.124 1.364-1.745.068-.137.163-.26.272-.355.26-.052.516-.125.764-.218.423-.15.832-.355 1.214-.6a8.391 8.391 0 0 0 1.39-1.105 8.098 8.098 0 0 0 1.323-1.731l-.054-.082a8.13 8.13 0 0 1-.846 1.186 8.06 8.06 0 0 1-1.09 1.064c-.383.327-.805.6-1.255.832a5.38 5.38 0 0 1-1.35.504 88.958 88.958 0 0 0 1.527-2.318 39.864 39.864 0 0 1 1.555-2.291h-.955l-.504.79h-.028a.886.886 0 0 0-.245-.626.966.966 0 0 0-.778-.273 2.1 2.1 0 0 0-.818.177 4.106 4.106 0 0 0-.872.464 5.973 5.973 0 0 0-1.542 1.486c-.19.287-.354.587-.49.9a2.195 2.195 0 0 0-.164.587c-.327.34-.695.654-1.09.913-.274.177-.6.287-.942.3-.19.028-.354-.11-.382-.3v-.095a.79.79 0 0 1 .164-.45c.096-.164.232-.368.396-.6.136-.191.3-.41.504-.682.333-.433.633-.889.9-1.364.096-.163.15-.34.15-.531 0-.22-.068-.437-.232-.587a.871.871 0 0 0-.64-.232c-.328 0-.655.11-.942.287-.327.204-.64.436-.913.695-.286.273-.56.573-.818.886l-.26.314-.409.505-.027-.028L77.4 56.35l-.9.04c-.19.315-.41.656-.655 1.05-.245.396-.504.792-.763 1.2l-.246.383-.545.845c-.18.171-.366.335-.56.49-.24.194-.495.367-.763.519a1.32 1.32 0 0 1-.64.205c-.192 0-.287-.123-.287-.355 0-.163.068-.327.15-.477.136-.273.3-.532.463-.79.191-.3.464-.71.846-1.255l1.282-1.841h-.86c-.463.709-.818 1.227-1.104 1.663-.327.49-.573.846-.75 1.146-.082.15-.164.272-.218.382l-.218.218c-.359.37-.762.695-1.2.968-.273.19-.6.3-.94.327-.15 0-.219-.082-.219-.26 0-.135.027-.258.068-.381.04-.122.082-.245.15-.382.068-.136.095-.245.136-.381a1.02 1.02 0 0 0 .055-.355.993.993 0 0 0-.123-.477.642.642 0 0 0-.286-.314v-.027c.218-.041.436-.096.64-.164.232-.068.45-.163.641-.3a1.9 1.9 0 0 0 .491-.45.93.93 0 0 0 .205-.586.798.798 0 0 0-.205-.546.822.822 0 0 0-.654-.218 1.8 1.8 0 0 0-.846.205c-.286.15-.545.327-.79.532-.26.23-.505.477-.723.736-.205.232-.423.49-.71.818l-.027-.027a83.883 83.883 0 0 0 2.332-3.436 208.58 208.58 0 0 0 2.25-3.546l-.859.04c-.995 1.569-2.005 3.15-3.055 4.8a749.645 749.645 0 0 0-2.127 3.328l-.04.04-.042.042a6.451 6.451 0 0 1-1.186 1.01 1.89 1.89 0 0 1-.94.3.34.34 0 0 1-.383-.287v-.096a.903.903 0 0 1 .164-.45c.11-.177.232-.381.395-.6.164-.218.3-.41.505-.681.19-.246.355-.478.505-.71.15-.204.272-.422.395-.654.095-.164.15-.341.164-.532a.783.783 0 0 0-.232-.586.871.871 0 0 0-.64-.232c-.328 0-.656.109-.942.286a5.83 5.83 0 0 0-.914.696c-.286.273-.559.573-.818.886l-.668.818-.027-.027 1.813-2.536-.9.04c-.177.3-.395.642-.654 1.05-.26.41-.518.805-.764 1.2-.259.41-.532.832-.804 1.255l-.096.15c-.286.273-.6.532-.94.75-.219.164-.464.26-.737.287-.246 0-.368-.123-.368-.355.027-.245.095-.477.218-.682.15-.3.34-.64.586-1.01.26-.394.532-.817.832-1.253.3-.437.627-.9.955-1.378v-.027H59.4l-.45.818h-.027c-.028-.123-.069-.232-.11-.354a.944.944 0 0 0-.218-.3.877.877 0 0 0-.34-.205 1.405 1.405 0 0 0-.478-.082c-.439.02-.864.161-1.227.41a5.61 5.61 0 0 0-1.2 1.008c-.359.39-.666.826-.914 1.296-.218.382-.34.818-.354 1.254 0 .26.068.505.204.723a.777.777 0 0 0 .723.314c.218 0 .436-.055.627-.15.218-.11.437-.232.641-.368.205-.15.396-.3.573-.478l.45-.45h.027c-.027.11-.082.246-.136.396a1.179 1.179 0 0 0-.068.382c0 .177.068.354.19.477a.78.78 0 0 0 .587.204c.368-.013.736-.15 1.036-.381.186-.13.364-.272.532-.423-.136.218-.273.436-.41.695h.846a9.34 9.34 0 0 1 .45-.804c.191-.314.423-.641.682-.996.26-.354.532-.681.832-1.036.286-.327.573-.641.886-.941.273-.26.56-.49.873-.682.232-.15.491-.245.764-.26a.5.5 0 0 1 .286.083c.082.055.123.15.11.245a1.46 1.46 0 0 1-.328.805c-.232.327-.477.64-.723.955-.272.34-.518.668-.722.995a1.69 1.69 0 0 0-.328.914c0 .23.082.463.26.613a.97.97 0 0 0 .654.218c.204 0 .423-.054.613-.136.22-.095.437-.218.628-.355.218-.163.436-.34.627-.531l-.573.9.914.013c.15-.3.34-.64.56-.982.217-.34.463-.695.71-1.036.244-.34.516-.695.79-.995.245-.3.517-.587.79-.846.23-.214.476-.41.736-.586.178-.123.382-.205.6-.218.123 0 .246.04.328.136.095.123.15.273.136.423 0 .204-.04.409-.136.6a1.434 1.434 0 0 1-.41.45c-.19.123-.395.232-.613.286a2.86 2.86 0 0 1-.764.096c-.082 0-.163 0-.259-.014h-.19c-.137 0-.205.04-.205.123 0 .08.068.122.204.122.143.002.286-.016.423-.054.11-.027.218-.055.327-.055.15 0 .232.082.232.26a.7.7 0 0 1-.095.327l-.205.436c-.068.15-.136.314-.204.477a1.212 1.212 0 0 0-.096.437.678.678 0 0 0 .232.559.98.98 0 0 0 .64.177 2.26 2.26 0 0 0 1.064-.327c.437-.26.832-.587 1.187-.955-.082.19-.137.41-.137.614 0 .368.287.668.655.668h.068c.246 0 .505-.068.723-.19a4.53 4.53 0 0 0 .804-.52c.096-.067.178-.135.246-.204-.15.246-.314.505-.477.805h.845a9.3 9.3 0 0 1 .45-.805c.205-.327.436-.668.682-.995.245-.327.518-.682.832-1.036.286-.328.586-.641.9-.941.26-.26.56-.491.872-.682.232-.15.491-.246.764-.26.11 0 .205.028.286.083a.32.32 0 0 1 .11.245 1.46 1.46 0 0 1-.328.805c-.218.3-.463.627-.722.954-.26.327-.519.668-.723.996a1.585 1.585 0 0 0-.328.913c0 .232.082.464.26.614a.97.97 0 0 0 .654.218c.205 0 .423-.054.614-.136.218-.096.436-.22.627-.355.218-.163.436-.34.627-.532l.082-.082.082-.081v.095a1.24 1.24 0 0 0 .232.736c.082.11.19.19.313.26.137.068.3.095.45.095.232 0 .464-.054.682-.15.218-.095.437-.232.627-.382.205-.15.396-.313.573-.504.177-.178.341-.355.491-.532l.027.027c-.19.26-.395.573-.627.94-.232.369-.504.75-.79 1.146-.287.396-.574.764-.928 1.173a9.29 9.29 0 0 1-1.023 1.05c-.34.3-.722.546-1.118.75a2.72 2.72 0 0 1-1.855.205 1.351 1.351 0 0 1-.53-.246 1.185 1.185 0 0 1-.356-.422 1.698 1.698 0 0 1 .136-1.555.932.932 0 0 1 .791-.34h.137v-.11s-.123-.027-.19-.04a1.194 1.194 0 0 0-.219-.028l.041-.082zm-32.865-2.523a.545.545 0 0 0-.395.164.643.643 0 0 0-.164.436c0 .3.163.573.41.737.34.218.735.327 1.131.3.654 0 1.31-.178 1.868-.518.58-.363 1.1-.815 1.54-1.337.492-.576.935-1.191 1.324-1.84.41-.683.818-1.364 1.2-2.033.37-.653.761-1.294 1.172-1.922a7.19 7.19 0 0 1 1.241-1.487c.15.164.26.34.341.546.082.204.123.409.123.627 0 .382-.068.75-.205 1.105-.125.33-.315.63-.559.886-.245.25-.537.448-.859.586a2.854 2.854 0 0 1-1.118.205v.163c.245 0 .505.028.75.069.218.04.423.122.614.245.177.123.313.287.41.477.108.232.162.49.15.737 0 .395-.056.79-.165 1.159-.095.368-.26.709-.477 1.009a2.37 2.37 0 0 1-.79.723 2.12 2.12 0 0 1-1.106.272c-.259 0-.504-.081-.695-.245a.834.834 0 0 1-.273-.627c0-.191.027-.396.096-.573a.419.419 0 0 1 .34-.273.515.515 0 0 0-.38-.163.743.743 0 0 0-.574.245.954.954 0 0 0-.218.6c0 .355.177.682.477.873.368.245.818.354 1.255.34a3.1 3.1 0 0 0 1.16-.245A3.75 3.75 0 0 0 53.55 59.2a2.77 2.77 0 0 0 .314-1.268c0-.26-.04-.532-.137-.764a1.75 1.75 0 0 0-.395-.545 1.722 1.722 0 0 0-.6-.328 2.705 2.705 0 0 0-.737-.136v-.027c.324-.06.64-.157.941-.287.3-.136.587-.313.846-.518a2.59 2.59 0 0 0 .6-.736c.163-.3.232-.627.232-.955 0-.34-.069-.681-.232-.981a2.747 2.747 0 0 0-.682-.75 3.28 3.28 0 0 1 .845-.423c.273-.096.56-.15.846-.205v-.163c-.3.054-.6.122-.9.218-.35.119-.687.27-1.01.45a4.03 4.03 0 0 0-1.172-.423 5.83 5.83 0 0 0-1.46-.15c-.626 0-1.267.068-1.88.232a8.06 8.06 0 0 0-1.65.627c-.49.26-.955.56-1.378.928-.394.33-.742.71-1.037 1.13-.272.383-.49.792-.654 1.242-.15.396-.232.818-.232 1.255 0 .3.04.586.136.873.082.259.232.504.41.722.177.205.41.382.654.505.286.136.586.19.9.19.368 0 .723-.081 1.036-.245.314-.163.573-.395.778-.682.218-.3.381-.627.49-.981.11-.382.178-.778.164-1.187v-.422c0-.137-.027-.287-.054-.491h-.15c.027.204.04.327.04.45 0 .15.014.286.014.436 0 .395-.054.805-.177 1.186a2.79 2.79 0 0 1-.477.94c-.19.26-.45.465-.723.615a1.87 1.87 0 0 1-.94.218 1.27 1.27 0 0 1-.71-.204 1.83 1.83 0 0 1-.505-.52 2.705 2.705 0 0 1-.3-.708 3.034 3.034 0 0 1-.095-.777c0-.668.177-1.323.505-1.91.342-.626.8-1.181 1.35-1.635a7.128 7.128 0 0 1 1.99-1.16 7.011 7.011 0 0 1 2.428-.436c.45 0 .9.04 1.336.136a2.43 2.43 0 0 1 1.077.49c-.418.261-.8.578-1.132.942-.354.396-.695.805-.995 1.24-.314.437-.64.942-.954 1.474-.287.49-.628 1.05-1.023 1.704-.355.6-.682 1.119-.968 1.582-.26.423-.573.818-.914 1.2-.286.314-.614.56-.982.764-.382.177-.79.273-1.213.259-.082 0-.178 0-.26-.014a1.038 1.038 0 0 1-.56-.245.457.457 0 0 1-.135-.232.445.445 0 0 0 .314-.136.424.424 0 0 0 .136-.328.597.597 0 0 0-.123-.368.432.432 0 0 0-.368-.15l.04-.04.001-.001zM8.932 58.56a.614.614 0 0 0-.56.273c-.122.19-.177.423-.177.64 0 .26.055.519.178.737.11.232.272.423.477.587.204.163.45.3.71.38.285.097.572.138.872.138a4.28 4.28 0 0 0 1.8-.396 6.267 6.267 0 0 0 1.5-1.036 9.92 9.92 0 0 0 1.213-1.418c.348-.503.671-1.022.97-1.555.19-.245.38-.477.558-.695a.885.885 0 0 0 .272-.478c0-.068-.027-.136-.082-.163a.31.31 0 0 0-.15-.041 1.199 1.199 0 0 0-.53.109c-.138.068-.26.177-.369.3-.108.133-.2.28-.273.436l-.26.546a1.07 1.07 0 0 1-.3.354 4.358 4.358 0 0 1-.586.437c-.232.15-.49.272-.75.368-.245.095-.518.15-.777.15a1.26 1.26 0 0 1-.545-.11 1.07 1.07 0 0 1-.355-.3 1.076 1.076 0 0 1-.177-.45 2.655 2.655 0 0 1 .177-1.595c.15-.382.355-.763.573-1.104.231-.354.486-.691.763-1.01.243-.277.518-.524.82-.736.326.34.75.587 1.212.723.437.123.873.19 1.323.19.34 0 .668-.026 1.01-.08.313-.055.626-.137.926-.274a1.88 1.88 0 0 0 .67-.504 1.13 1.13 0 0 0 .258-.764.802.802 0 0 0-.15-.49.994.994 0 0 0-.369-.3 1.873 1.873 0 0 0-.49-.15 3.317 3.317 0 0 0-.519-.042 6.38 6.38 0 0 0-2.086.355 9.827 9.827 0 0 0-1.91.914 1.378 1.378 0 0 1-.217-.45 2.073 2.073 0 0 1-.082-.573c0-.246.054-.505.164-.723.11-.26.272-.477.477-.654l-.082-.082c-.205.19-.382.409-.518.654-.14.26-.215.55-.218.846 0 .395.122.777.34 1.09-.35.236-.687.49-1.009.764a8.58 8.58 0 0 0-.98 1.01 5.713 5.713 0 0 0-.738 1.159c-.187.382-.29.8-.3 1.227-.027.45.137.9.45 1.24.328.314.764.478 1.214.464.437-.001.87-.094 1.268-.272a4.683 4.683 0 0 0 1.09-.67l.028.029c-.218.34-.477.722-.777 1.172a8.66 8.66 0 0 1-.955 1.173 5.21 5.21 0 0 1-1.145.9 2.52 2.52 0 0 1-1.364.355 2.302 2.302 0 0 1-1.254-.355 1.3 1.3 0 0 1-.396-.423 1.105 1.105 0 0 1-.15-.56v-.135s0-.123.028-.177c.04.027.081.027.122.04h.164c.11 0 .232-.04.314-.122a.505.505 0 0 0 .136-.355.488.488 0 0 0-.15-.34.436.436 0 0 0-.355-.137l.028-.041zm126.845.996a2.02 2.02 0 0 0-.054.49c-.028.314.095.628.313.86.246.218.573.327.9.3.327 0 .655-.07.955-.178.341-.122.668-.286.968-.477a7.65 7.65 0 0 0 .927-.682c.287-.245.573-.518.832-.79a6.81 6.81 0 0 0 .695-.832 9.6 9.6 0 0 0 .519-.764l-.109-.068a8.411 8.411 0 0 1-.996 1.322c-.368.41-.777.79-1.214 1.146a6.546 6.546 0 0 1-1.24.79 2.45 2.45 0 0 1-1.064.3.604.604 0 0 1-.532-.3c-.097-.19-.149-.4-.15-.614 0-.23.027-.462.096-.694a2.72 2.72 0 0 1 .245-.628c.356-.08.707-.18 1.05-.3.382-.122.75-.286 1.105-.463.313-.15.613-.341.872-.573a.862.862 0 0 0 .355-.64.537.537 0 0 0-.191-.424.833.833 0 0 0-.532-.15c-.45 0-.9.137-1.295.369-.453.257-.87.573-1.241.94a5.534 5.534 0 0 0-.928 1.24 4.024 4.024 0 0 0-.245.547c-.205.2-.424.387-.655.559-.381.3-.79.573-1.213.79-.341.192-.723.3-1.105.328a.603.603 0 0 1-.532-.26 1.175 1.175 0 0 1-.177-.64c0-.436.109-.873.3-1.27.191-.421.45-.83.737-1.2.264-.342.577-.646.927-.9.232-.203.532-.325.845-.353.328 0 .478.178.478.519 0 .095-.014.204-.041.3-.028.095-.055.19-.096.286.096 0 .191-.027.287-.041.095-.027.19-.055.286-.11a.676.676 0 0 0 .218-.176.528.528 0 0 0-.204-.778 1.723 1.723 0 0 0-.696-.15c-.45.014-.886.137-1.282.355a4.976 4.976 0 0 0-1.254.94 5.754 5.754 0 0 0-.955 1.269 3.24 3.24 0 0 0-.286.71 4.8 4.8 0 0 0-.246.258 6.45 6.45 0 0 1-1.186 1.01 1.879 1.879 0 0 1-.941.3.342.342 0 0 1-.382-.287v-.096a.903.903 0 0 1 .164-.45c.109-.177.245-.381.395-.6.137-.19.287-.41.505-.681a6.94 6.94 0 0 0 .504-.71c.15-.204.273-.422.396-.654.095-.164.15-.34.164-.532a.782.782 0 0 0-.232-.586.87.87 0 0 0-.641-.232c-.327 0-.655.11-.941.286a5.797 5.797 0 0 0-.914.696c-.29.279-.563.575-.818.886l-.273.328-.395.477-.027-.028 1.813-2.536-.9.04c-.204.34-.436.697-.654 1.05-.259.41-.518.806-.764 1.2l-.518.806-.286.45-.096.15c-.286.272-.6.53-.927.75a1.46 1.46 0 0 1-.737.286.324.324 0 0 1-.368-.273v-.095c.028-.246.096-.478.218-.682.15-.3.355-.641.587-1.01.232-.367.518-.804.832-1.254.341-.49.654-.94.968-1.404h-.887l-.45.818h-.027c-.027-.123-.068-.232-.109-.355a.97.97 0 0 0-.559-.504 1.402 1.402 0 0 0-.477-.082 2.36 2.36 0 0 0-1.228.41 5.635 5.635 0 0 0-1.2 1.008 6.163 6.163 0 0 0-.9 1.296 3.231 3.231 0 0 0-.3.777l-.04.04c-.355.383-.75.724-1.187 1.01a1.879 1.879 0 0 1-.941.3.339.339 0 0 1-.382-.286v-.096a.914.914 0 0 1 .164-.45c.109-.177.246-.382.396-.6.15-.218.327-.45.504-.682.175-.232.344-.468.505-.71.148-.207.28-.426.395-.653.096-.164.15-.341.164-.532a.785.785 0 0 0-.232-.587.869.869 0 0 0-.641-.231c-.327 0-.655.109-.941.286a5.79 5.79 0 0 0-.914.695c-.3.273-.572.573-.831.887l-.559.682-.11.136-.027-.027 1.814-2.537-.887.04v.042c-.163.246-.395.614-.654 1.01-.286.45-.532.83-.764 1.2l-.613.954-.178.273c-.183.166-.369.33-.559.49-.24.193-.495.366-.763.519a1.327 1.327 0 0 1-.641.204c-.191 0-.287-.123-.287-.354a.904.904 0 0 1 .15-.478c.137-.272.3-.531.464-.79.218-.341.505-.764.845-1.255.382-.546.86-1.241 1.282-1.841h-.872c-.464.71-.819 1.24-1.105 1.664-.327.49-.573.845-.75 1.145-.164.26-.3.518-.423.805-.082.19-.136.409-.136.613 0 .368.3.669.668.669h.068c.246 0 .505-.07.723-.191.286-.144.556-.318.805-.52.095-.08.177-.135.259-.203-.164.259-.328.532-.491.804h.845c.138-.275.288-.544.45-.804.205-.327.437-.655.682-.996.245-.34.532-.695.832-1.036.286-.327.573-.64.886-.94.266-.259.559-.488.873-.683.232-.15.491-.245.777-.26.109 0 .205.028.287.083.081.055.122.15.109.246-.028.3-.137.572-.328.804-.231.327-.477.64-.736.955-.273.34-.518.668-.736.995-.205.26-.314.586-.328.914 0 .23.082.463.259.613.185.15.418.228.655.219.205 0 .423-.055.614-.137.218-.095.436-.218.627-.354.221-.163.431-.34.627-.532.096-.082.177-.177.259-.26 0 .083-.013.164-.013.246 0 .26.068.505.204.723a.782.782 0 0 0 .723.314c.218 0 .436-.055.627-.15.221-.11.436-.233.641-.37.205-.15.396-.3.586-.476.191-.177.328-.327.45-.45h.028v.04c-.041.124-.082.233-.123.355a1.212 1.212 0 0 0-.068.382.681.681 0 0 0 .191.478c.163.15.368.218.586.204.368-.013.736-.15 1.036-.382.191-.136.369-.272.546-.422-.15.23-.286.463-.423.695h.859c.137-.273.287-.545.45-.805.205-.327.437-.654.682-.995.246-.34.546-.71.832-1.036.286-.328.573-.641.886-.941.273-.26.559-.491.873-.682.232-.15.491-.246.777-.26.109 0 .205.028.287.083.081.054.122.15.109.245a1.456 1.456 0 0 1-.328.805c-.218.313-.463.627-.736.954-.273.328-.518.668-.736.996-.196.265-.31.583-.328.913 0 .232.082.464.26.614a.97.97 0 0 0 .654.218c.205 0 .423-.054.614-.136.218-.096.436-.218.627-.355.218-.163.436-.34.627-.532l.45-.45a2.17 2.17 0 0 0-.041.41c-.027.3.109.6.341.804.246.19.546.286.846.273.504 0 1.009-.137 1.459-.382a7.312 7.312 0 0 0 1.486-1.01c.096-.081.191-.163.287-.258v-.028l.054-.04zm-33.804-.791a.553.553 0 0 0-.464.232.874.874 0 0 0-.164.518c0 .272.068.545.232.763.164.219.355.396.586.532.246.136.505.246.778.3.259.068.518.096.791.096.668 0 1.336-.123 1.95-.41a6.123 6.123 0 0 0 1.568-1.063c.477-.45.9-.941 1.268-1.473.382-.545.736-1.104 1.064-1.65.068 0 .15-.013.286-.027l.382-.041.232-.027h.191c.122-.028.259-.041.395-.07l-.027.07-.355.654c-.134.234-.243.48-.327.737l.082.04c.259-.422.559-.831.9-1.2.327-.368.682-.722 1.063-1.05a.984.984 0 0 0-.341-.054.714.714 0 0 0-.463.164 6.639 6.639 0 0 0-.3.327.386.386 0 0 1-.259.123 3.981 3.981 0 0 1-.45.068c-.164.013-.355.027-.505.04-.136 0-.286.028-.423.042.26-.355.478-.723.682-1.105.205-.395.45-.777.696-1.16.269-.38.58-.727.927-1.035.391-.34.845-.6 1.336-.764h1.405c.259 0 .532-.014.791-.041a.539.539 0 0 0 .341-.136.477.477 0 0 0 .068-.273c0-.123-.068-.232-.191-.246a2.667 2.667 0 0 0-.464-.04c-.15 0-.313 0-.463.027-.191.013-.382.027-.573.027-.314 0-.777 0-1.336-.027s-1.269-.027-2.114-.027c-1.091 0-2.168.095-3.232.327a9.346 9.346 0 0 0-2.4.859c-.573.3-1.077.723-1.486 1.227-.325.423-.506.94-.518 1.473-.028.45.177.886.531 1.173.423.3.941.45 1.46.422.45 0 .9-.081 1.322-.231.409-.15.778-.355 1.118-.614.314-.245.573-.532.778-.873.177-.3.286-.64.286-.982 0-.272-.054-.545-.15-.804l-.136.027c.027.11.054.246.082.34.027.137.04.287.04.424 0 .368-.109.722-.313 1.022-.205.328-.477.6-.791.819a4 4 0 0 1-1.077.532c-.369.122-.764.19-1.159.19-.486.03-.968-.11-1.364-.395a1.23 1.23 0 0 1-.477-1.064c.013-.463.177-.9.463-1.268.341-.423.75-.764 1.228-1.01.6-.313 1.24-.531 1.909-.667.812-.166 1.64-.244 2.468-.232h1.2c.341 0 .654 0 .968.014.314.013.586.013.805.013h.722v.028c-.491.122-.954.34-1.363.627a7.076 7.076 0 0 0-1.119.995c-.34.382-.64.778-.927 1.2-.313.478-.573.887-.818 1.268h-.586l-.028.164h.532c-.218.355-.45.723-.709 1.132l-.177.286c-.32.513-.685.997-1.091 1.446a5.924 5.924 0 0 1-1.35 1.118c-.491.3-1.064.45-1.636.45a2.492 2.492 0 0 1-1.091-.191 1.606 1.606 0 0 1-.573-.423 1.165 1.165 0 0 1-.218-.45 2.056 2.056 0 0 1-.041-.26c.041 0 .095.015.136 0a.358.358 0 0 0 .287-.15.582.582 0 0 0 .095-.34.59.59 0 0 0-.109-.341.407.407 0 0 0-.341-.136l.055.014zm-8.223 1.69c.163.137.354.246.545.342.205.095.41.177.628.23.204.056.422.11.64.138a3.803 3.803 0 0 0 2.386-.423 3.996 3.996 0 0 0 1.446-1.336l-.068-.055a4.1 4.1 0 0 1-.545.64c-.209.195-.438.37-.682.52-.246.15-.505.258-.777.354-.273.08-.56.122-.832.122a2.58 2.58 0 0 1-1.187-.286 3.609 3.609 0 0 1-.98-.71c.394-.392.772-.801 1.13-1.226.137-.178.26-.328.382-.478.122-.142.254-.274.396-.395.122-.11.272-.205.422-.273a1.18 1.18 0 0 1 .491-.11 1.017 1.017 0 0 1 .955.56.897.897 0 0 0 .163-.232.614.614 0 0 0-.177-.763.858.858 0 0 0-.6-.191c-.3 0-.573.109-.804.3a4.862 4.862 0 0 0-.75.75c-.246.286-.505.614-.79.982a7.008 7.008 0 0 1-.929.98 5.5 5.5 0 0 1-1.036-1.526 4.388 4.388 0 0 1-.395-1.813c.177-.096.395-.22.695-.355.286-.136.573-.3.846-.477.26-.164.49-.368.71-.587.176-.177.285-.422.3-.668a.783.783 0 0 0-.247-.613.94.94 0 0 0-.613-.22c-.34 0-.682.11-.955.315-.3.218-.56.477-.777.777a4.072 4.072 0 0 0-.518.996 3.333 3.333 0 0 0-.19.982 3.41 3.41 0 0 0-.75.436 3.492 3.492 0 0 0-.656.614 3.29 3.29 0 0 0-.463.75c-.118.27-.18.563-.178.859 0 .245.041.49.137.722.081.219.218.423.395.587.177.177.382.313.614.395.26.096.545.15.818.15.202-.003.403-.026.6-.068a2.61 2.61 0 0 0 .9-.423c.11-.082.218-.163.313-.26l-.013-.013zm-57.546-.422c-.04.15-.054.3-.068.464 0 .19.055.368.191.518.164.15.396.218.614.19.313-.013.627-.122.886-.286a7.67 7.67 0 0 0 1.16-.927c.367-.368.722-.75 1.063-1.145.354-.437.71-.887 1.05-1.364l-.15-.055c-.355.505-.71.982-1.077 1.405-.34.409-.696.79-1.078 1.159-.3.286-.64.545-.995.777-.232.164-.518.26-.805.287-.204 0-.3-.11-.3-.355a.989.989 0 0 1 .096-.395 5.44 5.44 0 0 1 .327-.641c.164-.273.382-.628.64-1.037.315-.477.67-1.01 1.065-1.61l1.554-2.331c.641-.981 1.405-2.14 2.127-3.26h-.954c-.723 1.16-1.35 2.142-1.868 2.96-.478.75-.982 1.528-1.405 2.169-.423.64-.736 1.13-1.009 1.527-.273.436-.49.777-.654 1.064a5.257 5.257 0 0 0-.314.627l-.205.204c-.3.287-.627.56-.968.79a1.44 1.44 0 0 1-.736.288.322.322 0 0 1-.368-.273v-.096a1.67 1.67 0 0 1 .218-.681c.15-.3.354-.641.586-1.01.232-.368.491-.75.832-1.254l.982-1.405h-.9l-.45.819h-.027c-.028-.123-.069-.232-.11-.355a.943.943 0 0 0-.218-.3.879.879 0 0 0-.34-.204 1.403 1.403 0 0 0-.478-.082c-.436.013-.86.163-1.227.409a5.3 5.3 0 0 0-1.2 1.009 5.751 5.751 0 0 0-.45.559c-.068 0-.15.014-.218.014a1.48 1.48 0 0 1-.64-.15 1.214 1.214 0 0 1-.41-.328c.038-.202.056-.408.054-.613 0-.232-.04-.45-.136-.655a.4.4 0 0 0-.368-.245c-.123 0-.232.04-.3.136a.656.656 0 0 0-.096.327c0 .11.027.218.068.314.041.095.07.19.07.3a2.54 2.54 0 0 1-.329 1.09c-.22.442-.49.859-.804 1.242-.3.382-.655.722-1.05 1.009-.3.245-.682.395-1.064.423a.548.548 0 0 1-.423-.178.614.614 0 0 1-.163-.45c0-.15.027-.3.068-.436.068-.205.163-.41.26-.6.135-.26.313-.573.558-.955.245-.381.532-.845.968-1.5l.655-1.01.054-.081.75-1.16 2.046-3.176-.914.027c-.695 1.05-1.295 1.978-1.813 2.769l-.055.08c-.586.9-1.023 1.57-1.364 2.1-.395.615-.695 1.106-.927 1.474l-.123.218c-.177.069-.368.11-.572.11-.273 0-.532-.082-.737-.273a.978.978 0 0 1-.3-.587c0-.313-.123-.627-.34-.86a1.1 1.1 0 0 0-.873-.326 2.55 2.55 0 0 0-.955.19 3.64 3.64 0 0 0-.9.505c-.286.205-.545.45-.79.71-.233.245-.45.518-.628.804-.164.26-.314.532-.423.818-.04.11-.068.218-.095.328-.137.15-.287.3-.437.436-.3.286-.64.545-.995.777-.232.164-.518.26-.805.287-.204 0-.3-.11-.3-.355a.989.989 0 0 1 .096-.395 3.91 3.91 0 0 1 .327-.641c.164-.287.382-.628.64-1.037.328-.504.683-1.036 1.065-1.61l1.554-2.331c.655-1.01 1.446-2.21 2.127-3.26h-.968c-.736 1.174-1.35 2.142-1.868 2.96-.56.859-1.01 1.569-1.404 2.169l-1.01 1.527c-.272.422-.477.763-.654 1.063a5.37 5.37 0 0 0-.355.75 1.791 1.791 0 0 0-.095.6c0 .19.054.369.19.519a.76.76 0 0 0 .614.19c.314-.013.628-.122.887-.286a7.68 7.68 0 0 0 1.16-.927l.203-.191c-.04.382.07.764.3 1.064.232.245.56.368.9.354.437 0 .873-.123 1.27-.327a5.148 5.148 0 0 0 1.13-.832c.341-.327.641-.695.887-1.09a4.14 4.14 0 0 0 .504-1.12h.028c.11.165.26.3.422.41.205.123.423.177.655.177.15 0 .3-.027.45-.068-.12.2-.234.405-.34.614-.11.218-.219.436-.287.668a1.544 1.544 0 0 0-.082.49c-.014.315.11.615.34.819.232.19.52.286.82.286.422 0 .844-.11 1.212-.3a5.24 5.24 0 0 0 1.187-.777 6.6 6.6 0 0 0 .982-1.064c.26-.354.463-.75.6-1.16.15.124.327.233.504.315.191.082.382.123.587.123h.122c-.122.19-.245.382-.34.586-.218.383-.34.814-.355 1.255 0 .259.068.504.204.722a.768.768 0 0 0 .71.314c.218 0 .436-.054.627-.15.22-.11.434-.233.64-.368.205-.15.396-.314.573-.477.191-.191.341-.328.45-.45h.028c-.04.15-.096.286-.137.395-.04.123-.054.246-.054.382 0 .177.068.354.19.477.164.15.37.218.587.205.368-.014.736-.15 1.036-.382a6.58 6.58 0 0 0 .941-.791l-.04-.11zm78.709-6.3a.398.398 0 0 0-.313.136.499.499 0 0 0 0 .655.437.437 0 0 0 .75-.328.486.486 0 0 0-.123-.327.434.434 0 0 0-.314-.136zm-39.3 0a.395.395 0 0 0-.313.136.498.498 0 0 0 0 .655.437.437 0 0 0 .627 0 .489.489 0 0 0 .123-.328.489.489 0 0 0-.123-.327.445.445 0 0 0-.314-.136zm-14.576-18.07c-1.009 4.719 1.991 9.355 6.696 10.364 4.718 1.01 9.354-1.99 10.363-6.695a8.82 8.82 0 0 0-.545-5.36l-.014-.04-.04-.082c-.069-.15-.137-.3-.219-.45a8.798 8.798 0 0 0-1.882-2.427h-.04a8.698 8.698 0 0 0-10.678-.682s.027-.027.041-.027v-.014h-.027a8.738 8.738 0 0 0-1.923 1.76s.014.013 0 .026v.014h-.014a.951.951 0 0 0-.109.136v.028c-.286.382-.545.79-.777 1.213h-.014a.639.639 0 0 0-.068.137 8.852 8.852 0 0 0-.736 2.14v-.054l-.014.014zM29.36 29.31v.64c1.65.028 2.154.26 2.154 1.65V40a5.991 5.991 0 0 0 1.05 3.86 6.982 6.982 0 0 0 5.66 2.14c4.336 0 6.45-2.072 6.45-6.34v-7.882c0-.995.777-1.663 2.1-1.8 1.254.082 1.61.45 1.61 1.623v11.823c0 1.404-.492 1.623-2.156 1.65v.64h6.641v-.654c-1.677-.027-2.154-.245-2.154-1.65v-5.304h1.718a1.72 1.72 0 0 1 1.568.613c.586.668 2.632 3.846 3.845 5.74.355.547.641.997.805 1.242h3.3v-.64c-1.118-.028-1.527-.683-2.768-2.646l-.314-.505c-1.814-2.864-2.182-3.464-2.89-4.036a4.09 4.09 0 0 0 3.45-4.637 4.08 4.08 0 0 0-1.61-2.686 6.358 6.358 0 0 0-3.927-1.214H41.386v.64h.027c.928.029 2.66.07 2.66 2.047v6.995a8.425 8.425 0 0 1-.655 3.887c-.777 1.486-2.318 2.25-4.595 2.25-1.187.04-2.36-.3-3.328-.996a4.96 4.96 0 0 1-1.65-4.145v-8.4c0-1.391.52-1.623 2.155-1.65v-.641h-6.64v-.014zm94.909 2.168 12.014 14.4h.559V32.364c0-1.268 0-2.278 2.277-2.4v-.641h-5.659v.64c2.809.055 2.809 1.255 2.809 2.4v9.9l-10.786-12.94h-4.364v.64c1.282.042 2.645.26 2.645 2.169v10.664c0 .886 0 2.236-2.645 2.277v.64h6v-.64c-1.568 0-2.864-.164-2.864-2.21V31.492l.014-.015zm-16.023 8.578h6.45l1.078 2.768.027.082c.15.395.245.818.273 1.24 0 .914-1.187.914-2.141.914v.64h6.586v-.64c-.955 0-1.595 0-2.373-2.045l-5.25-13.991h-.327a4.828 4.828 0 0 1-2.345.832l-.096.422h.027c.45.178.723.628.682 1.105a3.612 3.612 0 0 1-.259 1.2l-3.191 8.114v.027c-1.077 2.754-1.663 4.282-3.423 4.35v.64h5.114v-.654c-.491 0-1.95 0-1.95-1.418a10.06 10.06 0 0 1 1.105-3.586h.013zM90.463 29.323v.64c1.528.028 2.155.178 2.155 1.65v11.823c0 1.405-.49 1.623-2.154 1.65v.64h12.709l1.377-4.253h-.627c-2.319 3.19-2.755 3.6-6.519 3.6-2.277 0-2.468-.587-2.468-1.296v-6.15h2.25c2.237 0 2.605 1.787 2.796 2.755h.518V34.49h-.518c0 1.404-1.118 2.564-2.537 2.564h-2.509v-5.387c0-1.677 2.114-1.677 2.905-1.677 2.741 0 3.068.368 5.672 3.245h.587l-1.377-3.886H90.45l.013-.027zm-12.83 0v.64c1.553.028 2.14.178 2.14 1.65v11.823c0 1.419-.45 1.623-2.14 1.65v.64h6.64v-.653c-1.664-.027-2.182-.246-2.182-1.568v-5.25h3.095a9.27 9.27 0 0 0 3.314-.67 4.138 4.138 0 0 0 2.114-3.612 4.748 4.748 0 0 0-4.869-4.65c-.109 0-.204 0-.313.013h-7.787l-.013-.013zm-66.697-5.81v.86c2.073.027 2.918.245 2.918 2.223V42.59c0 1.895-.654 2.195-2.918 2.236v.86H28.16l1.868-5.755h-.859a14.145 14.145 0 0 1-3.64 4.05 10.009 10.009 0 0 1-5.196.845c-3.082 0-3.34-.804-3.34-1.76v-8.344h3.053c3.041 0 3.518 2.427 3.778 3.723h.695v-7.978h-.695a3.476 3.476 0 0 1-3.45 3.477c-.11 0-.219 0-.328-.013h-3.04V26.65a1.946 1.946 0 0 1 1.486-1.95 7.833 7.833 0 0 1 2.454-.314c3.71 0 4.16.505 7.691 4.39h.791l-1.868-5.262-16.624-.001zM38.7 27.796l-.055.19h3.546l.422-1.185h-.177l-.027.027c-.818.9-.886.982-1.35.982h-.723c-.245 0-.354-.027-.409-.095-.054-.07-.027-.232.027-.437l.423-1.513h.532a.503.503 0 0 1 .545.45v.109c0 .095 0 .19-.027.286v.068h.164l.49-1.827h-.15a1.12 1.12 0 0 1-1.05.736h-.45l.41-1.445c.123-.423.218-.423.422-.423H42c.395 0 .45.068.818 1.118h.136l.11-1.31h-3.41l-.054.192h.382c.136 0 .204.027.245.068.041.04.041.15 0 .314l-.913 3.355c-.069.245-.19.368-.382.368h-.246l.014-.028zm-2.155 0-.04.19h2.031l.055-.19h-.355c-.109 0-.218-.027-.286-.11a.25.25 0 0 1-.027-.217l.9-3.354c.081-.314.163-.41.477-.41h.218l.04-.19h-1.84l-.055.19h.191c.205 0 .314.028.355.082.04.055.04.164 0 .34l-.382 1.46h-2.195l.41-1.554c.081-.3.217-.327.531-.327h.3l.054-.191h-2.004l-.055.19h.177c.191 0 .328.028.382.096.041.055.041.123.014.19v.042l-.9 3.368a.446.446 0 0 1-.49.395h-.11l-.04.19h1.867l.055-.19h-.19c-.247 0-.383-.027-.438-.11-.054-.08-.054-.15 0-.285l.423-1.61h2.21l-.437 1.637a.444.444 0 0 1-.505.368h-.34zm-5.822 0-.055.19h2.018l.055-.19c-.34 0-.532-.013-.6-.095-.068-.082-.04-.177 0-.327l.982-3.668h.518c.15-.028.313.04.41.15.094.163.163.327.217.504.04.123.096.273.177.45h.137l.04-1.295h-3.654l-.518 1.295h.19l.028-.04c.56-.71.832-1.064 1.173-1.064h.64l-.98 3.668c-.11.382-.206.422-.574.422h-.232.028zm46.35 52.54c-.287 0-.573-.08-.819-.244a.77.77 0 0 1-.354-.627c.082-.082.163-.164.273-.26l.15-.163s.122.054.19.04c.11 0 .22-.04.287-.136a.571.571 0 0 0 .095-.327c0-.068 0-.123-.04-.191.136-.163.258-.327.381-.491.164-.218.314-.422.437-.613v-.028l.027-.013v.04c.068.178.136.369.204.546.07.177.137.368.205.559.055.178.095.355.095.546 0 .163-.027.34-.068.49-.04.164-.109.3-.218.437a1.062 1.062 0 0 1-.355.3.936.936 0 0 1-.504.109l.014.027zm16.39-.053a.993.993 0 0 1-.477-.123.98.98 0 0 1-.3-.327 1.529 1.529 0 0 1-.163-.477 4.086 4.086 0 0 1-.055-.573c0-.655.136-1.31.368-1.923a7.29 7.29 0 0 1 .941-1.76 5.54 5.54 0 0 1 1.241-1.281c.368-.3.818-.477 1.282-.504.19 0 .382.04.545.122.15.082.273.205.368.34.096.15.164.315.205.492.04.19.068.382.055.587 0 .668-.137 1.35-.382 1.977a7.05 7.05 0 0 1-.968 1.745 5.098 5.098 0 0 1-1.296 1.24 2.53 2.53 0 0 1-1.377.478l.013-.013zm-22.05-.11a.41.41 0 0 1-.395-.19.85.85 0 0 1-.11-.477c0-.246.055-.491.15-.723a5.72 5.72 0 0 1 .396-.818c.178-.287.37-.56.573-.832.201-.26.425-.502.668-.723.207-.195.436-.364.682-.504.191-.11.396-.178.614-.191.26 0 .436.082.504.245.082.177.11.382.11.573 0 .232-.069.45-.178.654a4.443 4.443 0 0 1-.45.778c-.19.272-.395.545-.627.804a5.73 5.73 0 0 1-.71.709c-.212.187-.44.356-.68.505-.173.11-.37.175-.574.19h.027zm-10.077 0a.457.457 0 0 1-.368-.177.789.789 0 0 1-.136-.49c0-.45.11-.887.313-1.296.15-.314.314-.614.518-.9a1.76 1.76 0 0 0 .37-.463c.244-.3.531-.56.844-.778.26-.204.587-.34.927-.354a.606.606 0 0 1 .628.572v.082c0 .287-.055.573-.164.846a6.39 6.39 0 0 1-.423.859 5.872 5.872 0 0 1-.6.804c-.218.232-.436.464-.68.668-.206.178-.43.333-.67.464-.166.1-.352.16-.545.177l-.014-.013zm-12.79-4.227h-1.842c.382-.49.791-.981 1.214-1.472.423-.491.846-.927 1.296-1.35.436-.41.886-.805 1.363-1.16.45-.337.93-.633 1.432-.886l.027.028a14.916 14.916 0 0 0-2.018 2.318 21.966 21.966 0 0 0-1.473 2.509v.013h.001zm-28.35-14.89a.487.487 0 0 1-.41-.205 1.047 1.047 0 0 1-.136-.573c0-.272.054-.545.136-.804.096-.3.218-.587.382-.86a6.71 6.71 0 0 1 .546-.831c.19-.26.41-.491.64-.71a3.37 3.37 0 0 1 .67-.49 1.24 1.24 0 0 1 .612-.191c.178 0 .341.068.45.204a.9.9 0 0 1 .15.49c0 .26-.04.52-.123.765-.095.3-.204.586-.34.873-.15.3-.314.586-.505.859a4.617 4.617 0 0 1-.627.736c-.205.205-.45.382-.696.532a1.43 1.43 0 0 1-.736.205h-.013zm100.636-.164a.458.458 0 0 1-.369-.177.793.793 0 0 1-.136-.491c0-.45.109-.9.314-1.31.204-.443.46-.86.763-1.24.273-.355.6-.668.969-.927a1.53 1.53 0 0 1 .927-.355.62.62 0 0 1 .436.164c.123.122.191.3.177.49 0 .287-.054.573-.163.846-.109.3-.259.6-.423.873a5.67 5.67 0 0 1-.6.818c-.21.24-.438.463-.682.668a3.797 3.797 0 0 1-.668.464c-.159.1-.343.157-.532.163l-.013.014zm-28.705 0c-.204 0-.409-.041-.586-.15a1.523 1.523 0 0 1-.45-.382 1.67 1.67 0 0 1-.287-.56 2.126 2.126 0 0 1-.109-.653c0-.232.028-.464.082-.696.055-.232.136-.45.246-.654.11-.205.245-.382.41-.546a1.94 1.94 0 0 1 .558-.382c0 .668.15 1.337.436 1.937a4.65 4.65 0 0 0 1.186 1.58c-.19.15-.395.274-.613.356-.273.109-.573.15-.86.15h-.013zm-10.623 0a.511.511 0 0 1-.409-.191.788.788 0 0 1-.163-.49c0-.437.11-.86.3-1.255.068-.164.15-.328.26-.505v-.027c.258-.355.476-.641.64-.9a5.48 5.48 0 0 1 .831-.764c.287-.232.628-.354.982-.382a.56.56 0 0 1 .45.178c.092.121.14.27.137.422 0 .314-.055.628-.178.928a4.609 4.609 0 0 1-.436.9c-.18.29-.385.564-.614.818a5.261 5.261 0 0 1-.68.668 3.414 3.414 0 0 1-.642.45c-.15.095-.328.136-.505.164l.027-.014zm-26.059 0a.458.458 0 0 1-.368-.177.79.79 0 0 1-.136-.491c0-.45.11-.9.313-1.31.205-.45.45-.858.764-1.24.273-.355.6-.668.968-.927.26-.22.587-.341.914-.355.163 0 .314.054.436.164.123.122.191.3.178.49 0 .287-.055.573-.164.846-.11.3-.26.6-.423.873-.18.286-.38.56-.6.818-.21.24-.438.463-.682.668-.203.174-.422.33-.654.464a1.11 1.11 0 0 1-.546.163v.014zm-23.713 0a.44.44 0 0 1-.369-.177.79.79 0 0 1-.136-.491c0-.45.11-.9.314-1.31.177-.408.41-.777.682-1.131.068-.068.122-.136.19-.205.26-.327.56-.6.873-.831.26-.22.587-.341.928-.355a.62.62 0 0 1 .436.164c.123.122.19.3.177.49 0 .287-.054.573-.163.846-.11.3-.26.6-.423.873-.175.29-.376.563-.6.818a5.263 5.263 0 0 1-.682.668c-.203.174-.423.33-.655.464-.163.095-.34.15-.53.163l-.042.014zm105.231-2.277c.121-.242.258-.474.41-.696a5.04 5.04 0 0 1 .6-.723c.204-.218.422-.41.668-.572.177-.137.395-.218.627-.232a.356.356 0 0 1 .259.095c.068.08.106.181.109.287a.875.875 0 0 1-.3.668c-.218.218-.45.395-.723.545-.277.16-.569.292-.872.396a4.727 4.727 0 0 1-.75.218l-.028.014zm-44.209-2.196c0-.218.014-.436.041-.64.041-.3.123-.587.246-.846.123-.314.313-.6.573-.832.173-.168.4-.27.64-.286.328 0 .491.204.491.6 0 .23-.054.463-.163.668-.11.204-.26.382-.437.532-.19.163-.409.313-.64.422-.246.137-.505.26-.764.382h.013zM16.5 53.664c-.49 0-.982-.07-1.446-.22a2.14 2.14 0 0 1-.98-.626c.244-.19.503-.368.762-.532.287-.177.587-.327.887-.45.3-.122.613-.231.94-.313.3-.082.614-.123.928-.123h.395c.137 0 .26.04.396.082.11.04.218.109.3.204a.64.64 0 0 1 .122.382c0 .246-.068.478-.204.682a1.828 1.828 0 0 1-.518.505 2.545 2.545 0 0 1-.723.3c-.273.068-.56.109-.846.109H16.5zm53.073-7.705a8.432 8.432 0 0 1-7.16-3.968s-.013-.096-.027-.123c0-.04-.027-.095-.027-.136v-.068h.123s.013 0 .013-.014v-.055s.028-.013.041-.013c0 0 .014 0 .014-.027v-.191l-.04-.178v-.027s.013-.014 0-.027v-.041s-.015-.068-.028-.11v-.136h.04v-.054l.028-.041s.082-.123.082-.19v-.11a.651.651 0 0 0-.218-.355c-.014-.013-.028-.04-.04-.054-.015-.041-.015-.041 0-.055.012-.013 0-.013-.029-.04v-.028s0-.013-.027-.013h-.15v-.014s0-.027-.027-.027h-.014v-.014s0-.04-.014-.04c-.013 0 0 0 0-.015 0 0 0-.054-.027-.068l-.027-.027v-.027s0-.014-.014-.028c-.013 0-.027-.013-.054-.013h-.04s-.069-.027-.083-.055l-.014-.013v-.082c-.013-.068-.027-.123-.04-.191v-.027s0-.041-.028-.055c-.013 0-.027-.027-.04-.04 0 0 0-.028-.028-.028-.027 0-.014 0-.014-.014 0 0 0-.013-.013-.013-.014 0-.014 0-.014-.014 0 0 0-.014-.014-.014 0 0-.013 0-.013-.013 0 0 0-.014-.014-.014 0 0-.013 0-.013-.014 0 0 0-.013-.014-.013 0 0-.014 0 0-.014 0 0 0-.013-.014-.013 0 0-.013 0-.013-.014v-.014h-.028a.569.569 0 0 1-.122-.218.401.401 0 0 0-.218-.204 7.683 7.683 0 0 1-.04-.791c0-.82.121-1.623.353-2.414 0 0 .014 0 .014-.014v-.027h.013c.014 0 .028-.027.028-.04 0-.028 0-.055-.028-.083 0-.013 0-.027.014-.054l.014-.027c.04-.11.081-.232.122-.37h.014s.014 0 .014-.012c0 0 0-.014.013-.027a.79.79 0 0 0 .191-.232v-.15s-.027-.014-.04-.014c0 0-.014 0-.014-.027v-.028c.177-.368.368-.736.6-1.077v.163c0 .014 0 .028.013.042l.07.04s.04.014.067.014c.027 0 .068-.027.082-.04.027-.028.04-.055.068-.082.013-.041.027-.07.04-.11 0-.027.014-.054.028-.081l.014-.014s0-.014.013-.027v-.068s.014 0 .027-.014v-.041l.014-.014v-.068s.027 0 .027-.013l.014-.014.068-.096.041-.054s.014-.014.027-.014c.014 0 .028-.013.041-.027 0-.014.027-.027.041-.04.014 0 .041-.014.068-.014a.125.125 0 0 0 .096-.041l.082-.082a.604.604 0 0 1 .204-.164c.123-.054.246-.123.355-.204.013-.014.027-.041.013-.07 0-.026-.027-.04-.054-.04h-.082v-.013c0-.027.027-.041.04-.055l.096-.04s.014 0 .028-.014l.013-.014c.028 0 .055.014.082.027.014 0 .04.014.055.014h.054v-.054l.014-.014v-.082h-.028c-.027 0-.04 0-.054-.014v-.068s.014 0 .027.014c0 0 .027.014.041.027 0 0 .041-.027.055-.054v-.041h-.054s-.014 0-.014-.014c0 0 0-.014.013-.014h.096s.04 0 .054-.027c0 0 .027-.027.027-.04 0-.014 0-.028.014-.042h.014s.054-.054.054-.081v-.028s.014-.013.014-.027c.013-.055.027-.11 0-.123v-.027h.081v.014h.014s.014 0 .028-.014v-.027s.013-.028.013-.041c0-.027 0-.041-.027-.055-.014 0-.027-.027-.027-.054a8.446 8.446 0 0 1 8.045-.982h-.04v.014h-.028v.013s-.014 0-.014.014v.04h-.054v.028c0 .014.013.04.04.04.15.028.3.083.437.15h.04s.028.028.042.028c.04 0 .068-.014.082-.054v-.055c0-.027-.04-.054-.069-.054a.425.425 0 0 1-.136-.07s-.027-.012-.027-.026c.19.082.354.164.504.232h-.04a.124.124 0 0 0-.11.054v.069c.014.027.055.04.082.04h.232s-.014 0-.014-.013c.191.109.382.218.546.327h-.246s-.027 0-.027-.014c-.013-.04-.054-.054-.095-.068 0 0-.028 0-.028-.013 0-.041-.04-.07-.08-.055l-.138-.027c-.027 0-.054 0-.082.027 0 0-.027.055-.027.068h-.095c-.014 0-.028 0-.04.014 0 0-.015.014-.029.014l-.34-.041s-.069.027-.096.054c0 .014-.027.027-.04.014h-.26v.014h-.027s-.082.08-.082.109c0 0 0 .027.014.027h.013v.027h-.259s-.095.04-.109.096c0 .027 0 .054.041.068l.04.027v.014c0 .013 0 .013.028.027l.068.04v.014c-.054 0-.095-.027-.136-.054v-.014l-.027-.027a.951.951 0 0 0-.177-.068h-.014s-.068.027-.096.054c0 .014-.027.028-.04.04 0 0-.014.015-.014.029 0 .013 0 0-.014 0-.013 0-.013-.014-.027-.014 0 0-.027-.096-.027-.136 0-.028-.014-.041-.04-.041 0 0-.056.027-.056.054l-.027.137s0 .054.04.068c0 0 .014.013.014.027s0 .027.014.027.014 0 .014.014v.082s0 .027.013.04c0 0 .014.042.041.042h.096c.04 0 .068 0 .095.013h.014s.04.055.068.068c0 0 .014 0 .014.028 0 0 0 .013-.014.013-.027 0-.055 0-.082-.013h-.054c-.082 0-.15.054-.164.122v.028s-.054.054-.095.08h-.028s-.04.029-.054.042c0 0-.028 0-.028-.013v-.014l.028-.04h.027v-.014s0-.028.014-.028c.013 0 .027-.013.027-.027a.612.612 0 0 0-.136-.368 31.324 31.324 0 0 1-.04-.082c-.015-.04 0-.095.012-.136h.028v-.014s-.028-.054-.055-.068h-.177v-.014c-.055 0-.11.04-.137.096v.027s-.027.014-.04.014c0 0-.014 0-.014.013 0 0 0 .027-.014.027 0 0-.013 0-.013.014 0 0 0 .027-.014.027 0 0-.014 0-.014.014v.014c.014 0 .028.027.028.04 0 .04.027.082.068.11l.054.027s.041.04.041.068v.068s0 .014.014.014c0 0 .014 0 .014.014l-.055-.028-.055-.027s-.013-.014-.013-.027c0-.014 0-.014-.028-.014h-.013s-.027 0-.027-.014h-.014s-.055-.054-.082-.054h-.013s-.014-.014-.028-.014h-.068a1.398 1.398 0 0 0-.41-.11c-.026 0-.054.015-.054.056 0 .027.028.054.055.054.04 0 .082.028.11.055v.054c0 .028-.04.04-.056.028h-.299s0 .013-.014.013l-.123.028v-.068s0-.014-.014-.014h-.027a1.285 1.285 0 0 0-.532.3s-.027.013-.04.013c-.014 0-.04 0-.04-.027-.015-.04-.029-.082-.015-.123 0 0 0-.013.014-.013 0 0 .013 0 .013-.014-.013 0-.027 0-.027-.027 0-.014-.027-.027-.04-.041 0 0-.028-.014-.04-.014-.029 0-.043 0-.056.028-.028.027-.028.054-.028.08v.083s-.054.11-.109.11c-.054 0-.109.04-.15.08l-.027.028s-.04.04-.04.069v.04h.013v.04s0 .015-.014.015c-.04 0-.082-.014-.123-.027-.013 0-.04-.014-.054-.014h-.014s-.068.027-.082.055c0 .013 0 .04.014.04l.027.014v.014s0 .014-.027.014h-.027s-.055 0-.069-.028a1.397 1.397 0 0 0-.19-.3s-.014-.013 0-.027h.081s.11.027.164.027c0 0 .014 0 .014.014.15 0 .231 0 .272-.11 0 0 0-.013.014-.026l.014-.014v-.027s-.014-.028-.028-.028l-.163-.081a1.59 1.59 0 0 0-.477-.191h-.028c-.013 0-.04 0-.04.027a.074.074 0 0 1-.069.04h-.054v-.027c.013 0 .027-.027.027-.054s-.027-.055-.055-.068c-.027 0-.068-.014-.109-.014-.04 0-.082 0-.123.027h-.013l-.055.04s-.013 0-.013-.012c0-.028-.028-.055-.04-.055 0 0-.015 0-.029.014 0 .027-.027.04-.054.04h-.027s-.055.028-.069.069c0 0 0 .027-.027.027a.46.46 0 0 0-.232.068s-.013 0-.013.014v.014s-.082.013-.123.027a.617.617 0 0 0-.19.136s-.015.014-.028.014h.027v.04l-.395.478s-.028.014-.04.014c-.028 0-.042.013-.056.04l-.04.04h-.028s-.014.029-.027.029v.027h-.014c-.027 0-.04.014-.054.04l-.028.028s-.027.028-.04.028c-.014 0-.028 0-.028.013v.027l-.027.028s-.055.054-.055.08c0 0 0 .029-.013.029 0 0-.014 0-.014.013v.069s0 .027.014.027c.013 0 .013 0 .013.014v.245c0 .027.014.04.041.04h.041s.096-.04.136-.067h.028s.013-.028.013-.041c0 0 0-.014.014-.014h.055s.013 0 .027-.014l.095.3v.055s-.04.027-.04.04c0 0 0 .028-.014.028v.014s.027.054.04.054l.123-.027h.07l.012-.027s0-.014.014-.014h.014s.027 0 .027-.013v-.014s.068-.055.082-.096v-.081l.04-.137s0-.013.014-.013.014-.014.014-.028v-.027s0-.014.013-.014c0 0 .028 0 .028-.013l.027-.027s.027-.014.04-.07c0 0 0-.012.028-.012v-.028c0-.04-.027-.081-.054-.11-.028-.04-.055-.08-.055-.121 0 0 0-.014.027-.014 0 0 .014 0 .014-.027v-.068c0-.028.027-.07.055-.082h.013a.746.746 0 0 0 .177-.178.401.401 0 0 1 .191-.204s.014 0 .014-.014h.04s.028.014.042.028v.04a.364.364 0 0 1-.082.069c-.027 0-.04.013-.055.027a.104.104 0 0 0-.027.054c0 .014 0 .028-.014.028-.027.013-.054.04-.054.068v.055l-.027.054h-.014s-.014 0-.014.014v.122c0 .082.082.123.123.15.041.014.068.028.11.028h.136s.027-.014.027-.041c0 0 0-.014.013-.014h.246s.014 0 .014.014c0 .013 0 .013-.028.013l-.327.082a.184.184 0 0 0-.123.205v.04a.103.103 0 0 1-.054.028.175.175 0 0 0-.164.136l-.027.055-.027.082s-.069.109-.137.122c-.027 0-.054.014-.082.014h-.04s0-.027-.028-.027c0 0-.013 0-.027.013 0 0 0 .014-.014.014h-.19v.014l-.164.04v-.013h-.109s-.028 0-.028-.014c0-.013-.013-.04 0-.054v-.082s.028-.082.041-.11c0-.013 0-.04-.013-.054 0-.013-.028-.027-.04-.027-.015 0-.029 0-.042.014a.321.321 0 0 0-.096.218v.177s-.027.055-.054.055h-.04l-.042.027s-.014 0-.014.014c0 0 0 .013-.013.013h-.014s-.04.014-.04.04c0 0-.014.028-.028.042h-.027s-.04.027-.04.055c0 .013 0 .027-.015.04l-.04.028s-.028.027-.042.054c0 .014 0 .028-.013.04l-.04.029s-.042.04-.042.068c0 0 0 .013-.014.013 0 0-.013 0-.027.014 0 0 0 .027-.04.04-.04.014-.028 0-.028.028 0 0 0 .014-.014.014h-.109a.215.215 0 0 0-.136.109.074.074 0 0 1-.069.04h-.04s-.055.055-.055.096h.014s.054.027.068.055l.04.068s0 .014.028.014c0 0 .014 0 .014.013v.11s0 .013.027.013c0 .055 0 .109-.027.164 0 .04-.04.08-.082.08h-.055v.015s0-.014-.027-.014h-.04s-.014 0-.014-.013c0-.014 0-.014-.014-.014h-.04s-.083 0-.124.014c-.068 0-.136.054-.177.109-.014.027-.027.068 0 .109.014.04.027.095 0 .136l-.014.014s-.013 0-.013.027v.04s-.014 0-.014.015v.068s-.014 0-.014.014c0 .068 0 .136.028.204v.027s.013.014.013.028c0 .04.041.068.082.068h.082s.014 0 .014.014c0 .013 0 .013.013.013h.15a.413.413 0 0 0 .287-.163l.081-.11h.028s.013 0 .013-.013v-.027s-.027-.028-.027-.041V35.5s.027-.095.055-.123l.15-.122.027-.028s.068-.095.068-.15c0-.013.014-.027.04-.027.096 0 .192-.014.287-.04h.041s.082-.042.123-.042h.055c.04.014.04.04.054.096 0 .013 0 .04.014.054 0 .027.04.055.068.068 0 0 .014 0 .014.028 0 .027 0 .068.027.08a.68.68 0 0 0 .245.124c.055 0 .082.055.082.11 0 .04 0 .068-.014.108v.04h.055a.124.124 0 0 0 .054-.108v-.11s0-.013.028-.013h.027a.076.076 0 0 0 .068-.04v-.041s-.013-.028-.027-.028h-.04s-.083-.04-.124-.068a.318.318 0 0 1-.095-.095l-.04-.055s-.069-.082-.11-.11c-.014 0-.027-.026-.027-.04V34.9s-.014-.054-.014-.082v-.04h.014s.013 0 .013-.014v-.014c.027 0 .041.027.055.055 0 .013.027.027.054.04.028 0 .041 0 .041.014l.028.04s.027.028.054.028c.014 0 .04 0 .04.014l.028.04s.041.042.068.028c0 0 0 .027.014.027l.055.04s.04.056.054.097v.163c0 .055.027.096.082.123.014 0 .027.027.027.055l.041.136v.027s.068.11.136.123h.028c.04 0 .082-.027.095-.054 0-.028.028-.041.041-.07l.027-.04s0-.013.028-.013l-.028-.027-.054-.096s0-.082.027-.11a.283.283 0 0 1 .136-.08s.014 0 .014-.028c0 0 0-.014.014-.014h.136s.027 0 .027.014v.04c-.027.028-.04.042-.068.055-.013 0-.027.028-.027.04v.219s0 .028.014.028c0 0 .013 0 .013.013 0 .028.014.069.041.082l.027.027s.041.082.082.082h.028s.04 0 .04-.013v-.014h.341s.11.027.15.082a.263.263 0 0 1 .041.245l-.068.3s-.04.055-.068.055h-.055s-.013 0-.013-.014c0 0 0-.014-.014-.014h-.545s-.014 0-.014-.013c0 0 0-.027-.014-.027h-.054c-.04 0-.068.027-.068.054v.082s0 .027-.014.027-.027 0-.04.027h-.028s-.014-.027-.014-.04v-.028s.014-.11 0-.136c0 0-.027-.014-.04-.014h-.042s-.013 0-.013-.027c0 0 0-.027-.028-.027l-.068-.027h-.04c-.042 0-.082.027-.11.068-.027.04-.04.08-.068.122-.027.055-.082.096-.136.096h-.028a.202.202 0 0 1-.136-.123c-.04-.068-.095-.11-.177-.11h-.096v-.013c0-.04-.027-.081-.068-.11a.244.244 0 0 1-.095-.067s-.014-.027-.028-.027c0 0-.013 0-.013-.014 0 0 0-.068.027-.095v-.082c0-.014-.014-.041-.014-.068 0 0 0-.028.014-.028 0 0 .014 0 .027-.013v-.041l-.027-.027c-.055 0-.11-.014-.15-.014-.082 0-.164 0-.232.027h-.027s-.123.028-.177.028h-.19s-.015 0-.015.013c0 0 0 .014-.014.014h-.04s-.028 0-.028.014v.013h-.04l-.042.027a.03.03 0 0 0-.027.028s0 .013-.013.013h-.096l-.204.04s-.014 0-.014-.012h-.014s-.095.04-.122.095c-.014.027-.028.055-.055.068a.69.69 0 0 0-.232.41c0 .027 0 .054-.013.095v.095s-.04.055-.069.055h-.068s-.013.027-.013.04c0 0 0 .014-.014.014-.177.082-.26.423-.26.696 0 .013 0 .027-.026.027 0 0-.028 0-.028-.027v-.041.095c0 .04 0 .069.028.11 0 0 0 .04.027.04s0 0 .014.014c0 .027 0 .055-.028.082 0 0-.027.027 0 .04v.028s.041.054.041.082v.054h-.013s-.014 0-.028.028l-.027.245v.04c0 .015 0 .028.014.04v.043c0 .082.027.163.068.245l.027.068c.027.055.055.11.11.15.026.014.04.04.054.069.11.204.26.38.45.53 0 0 .013 0 .013.029 0 0 0 .013.014.013.027 0 .04-.013.068-.027.041-.027.082-.054.136-.054h.055c.014 0 .027.013.04.027.028.013.055.04.083.04h.027a.12.12 0 0 0 .11-.081c0-.027.04-.041.054-.041h.013v.014h.07c.04 0 .08 0 .121-.014.028 0 .068 0 .096-.014.054 0 .095.014.122.055.028.04.055.082.096.109v.027s0 .027.014.027h.067c.014 0 .028-.013.055-.013s.055.014.096.068a.717.717 0 0 1 .082.41h-.014c-.014 0-.014 0-.027.026v.082c0 .082.013.15.054.205 0 0 .014.013.027.013 0 0 .014 0 .014.014v.04l.082.083c.014 0 .014.027.014.04 0 .028.013.042.04.055 0 0 .014.028.014.04 0 .028 0 .042.014.056l.027.04s.068.11.082.164c0 .014 0 .014.013.027 0 0 .014 0 .014.014 0 .027 0 .055-.027.055-.014 0-.028.027-.028.04v.028s.014 0 .014.013v.11s.014.013.027.013c0 0 .014 0 .014.014a.56.56 0 0 1-.082.327.482.482 0 0 0-.054.123c0 .177.054.354.177.504a.646.646 0 0 1 .095.287v.095l.055.164s0 .027.014.027c0 0 .013 0 .013.014v.04s0 .014.014.028c0 0 .013 0 .013.014v.04s0 .014.028.028c0 0 .013 0 .013.013v.04s0 .015.014.015c0 0 .014 0 .014.014 0 0 0 .04.013.04 0 0 .014 0 .014.014v.04s0 .015.014.015c0 0 .013 0 .013.013 0 0 0 .04.014.04 0 0 .013 0 .013.015v.054s.014.028.028.028c0 0 .013 0 .013.013l.055.19s.027.056.055.069a.03.03 0 0 1 .019.009.03.03 0 0 1 .008.019h.818s.027-.028.027-.041c0-.014.014-.027.041-.027.014 0 .027-.014.027-.041 0-.014 0-.028.014-.041l.068-.041s.028-.028.028-.041c0-.014 0-.027.013-.041l.068-.041s.028-.027.028-.04v-.028h.013s.027-.027.027-.055h.014v-.272h.014l.013-.014s.028-.014.041-.014h.055s.095-.027.11-.081v-.123c0-.028 0-.055-.028-.082 0-.027-.014-.055-.028-.095V42.4s0-.027.028-.027h.027s.055-.028.055-.041a.03.03 0 0 1 .027-.027h.013s.041-.014.055-.041a.03.03 0 0 1 .027-.028l.068-.054a.575.575 0 0 0 .22-.45v-.41s-.015 0-.015-.013v-.054s0-.028-.014-.028c0 0-.013 0-.013-.013a1.171 1.171 0 0 1 0-.614.03.03 0 0 1 .027-.027h.014s.04-.041.027-.068c0-.014 0-.028.027-.041h.027s.123-.11.164-.164l.11-.123.067-.068s.014-.014.028-.014c.027 0 .068 0 .081-.027l.137-.15s.054-.054.095-.082l.055-.04s.04-.041.04-.082c0 0 0-.028.014-.028a.123.123 0 0 0 .082-.081c0-.028 0-.055.014-.082 0-.041 0-.082.027-.11 0 0 0-.013.027-.013 0 0 .014 0 .014-.027v-.068h.014s.013 0 .013-.014v-.11l.028-.054s.027-.054 0-.15c0-.027-.028-.054-.055-.04-.014 0-.027 0-.04-.028h-.028c-.028 0-.028 0-.028.014v.013h-.04s-.014 0-.014.014c0 0 0 .027-.014.027l-.19.04-.123.028s-.028 0-.028.028v.013c-.19-.013-.204-.095-.245-.19a.502.502 0 0 0-.096-.191l-.068-.07-.19-.162s-.069-.082-.069-.137v-.027c0-.082-.068-.163-.136-.204-.04-.028-.068-.07-.068-.11v-.122a.27.27 0 0 0-.082-.191c-.027-.027-.055-.068-.055-.11v-.027l-.027-.177s0-.013-.014-.013c0 0-.013 0-.013-.014V37.3s0-.014-.014-.014c0 0-.014 0-.014-.013a.076.076 0 0 0-.04-.068s-.014-.014-.014-.028c0-.027-.027-.04-.055-.054-.013 0-.027-.027-.04-.041 0-.027-.028-.055-.028-.082 0-.054-.027-.095-.054-.136 0 0-.014-.041-.028-.055v-.027s0-.014.014-.014c0 0 .014 0 .014.014 0 0 0 .027.013.027 0 0 .028.014.028.027a.12.12 0 0 0 .081.082h.055s.027 0 .027.014l.205.463s.04.069.082.082c.013 0 .027.028.027.04 0 .028 0 .069.027.097 0 0 0 .013.027.013 0 0 .014 0 .014.014v.04s.055.069.082.083c0 0 .014.013.014.027 0 .027.013.055.04.068h.014s.014.014.014.027c0 .028 0 .055.04.069l.014.027c0 .027 0 .054.041.068 0 0 .014.027.014.04v.028s0 .014.013.014h.014v.068s.027.082.027.11c0 .013 0 .026.028.026 0 0 .013 0 .013.014v.068s0 .028.014.028c0 0 .013 0 .013.013v.055s0 .027.014.027c0 0 .014 0 .014.014v.054s0 .027.013.027c.014 0 .014 0 .014.014v.04s0 .056.027.083c.028.027.055.04.096.04.082 0 .095-.027.11-.04.012 0 .04-.028.053-.028h.07s.012 0 .012-.013c0 0 0-.014.014-.027l.11-.028s.013 0 .013-.027c0 0 0-.014.013-.014h.055s.027 0 .027-.013v-.014h.04s.015 0 .015-.014c0 0 0-.013.013-.013h.055s.027 0 .027-.014c0 0 0-.027.014-.027.04-.014.095-.027.136-.041.136-.04.246-.068.3-.205 0-.027.04-.04.068-.04.055 0 .11-.041.137-.096l.15-.273a.266.266 0 0 0 0-.313c-.014-.028-.04-.041-.055-.055l-.055-.054s-.013-.014-.027-.014c0 0-.013 0-.013-.014 0-.027 0-.054-.04-.068 0 0-.015-.027-.015-.04v-.055s0-.028-.014-.028c0 0-.013 0-.013-.013 0 0 0-.014-.014-.014 0 0-.014 0-.014.014v.027c-.013 0-.027.027-.04.04 0 0-.028.028-.04.028h-.029s-.013 0-.013.014c0 0 0 .014-.014.027l-.136.027s-.028 0-.028.028c0 0 0 .013-.013.013h-.027s-.069 0-.096-.04l-.027-.028s-.027 0-.027-.013v-.014h.054s.014 0 .014-.014c0 0 0-.027-.014-.027h-.013l-.055-.054h-.055v.013s-.027 0-.027-.014v-.027s-.04-.123-.082-.177a.625.625 0 0 1-.095-.218v-.055c0-.013.027-.027.04-.027h.055s.07.027.07.054v.082s.012.014.026.014c0 0 .027 0 .027.014l.04.054c.07.11.178.177.3.205h.042s.11 0 .177-.014c0 0 .082.027.11.068a.24.24 0 0 0 .217.137h.437a.56.56 0 0 1 .395.177c.082.068.191.136.287.177 0 0 .013.014.013.027v.014c-.013.014-.082.068-.04.123.013.013.04.027.054.04.04.028.068.042.11.042h.053a.194.194 0 0 1 .082-.028c.014 0 .041 0 .041.028v.395s0 .027.028.027h.013v.11s0 .013.014.013c0 0 .013 0 .013.014v.109s0 .013.014.013c0 0 .014 0 .014.014v.055s0 .027.013.027h.014v.04s0 .014.014.014h.013l.027.178s0 .027.014.027c0 0 .014 0 .014.014l.027.109s0 .013.014.013h.013v.04s0 .015.014.015c0 0 .027 0 .027.014a.18.18 0 0 0 .028.08c0 .042.027.083.054.124 0 0 .014.014.014.027 0 0 .027 0 .04-.013l.137-.164s.014-.014.027-.014c0 0 .014-.013.014-.027v-.054a.82.82 0 0 0 .068-.478.19.19 0 0 1 .136-.177.488.488 0 0 0 .137-.095.423.423 0 0 0 .082-.178l.04-.081.041-.028s.028-.013.028-.04c0 0 0-.014.013-.014h.055s.027 0 .027-.014c0 0 0-.014.014-.014.027 0 .054 0 .082-.027l.04-.082v-.04s.014-.055.041-.055a.465.465 0 0 0 .26-.096s.027 0 .027-.013c0 0 .013 0 .027.013 0 0 0 .028.014.04v.042s.013.028.027.028h.014v.054s.027 0 .027.014c0 0 .04.054.068.054 0 0 .027 0 .027.014l.055.095.04.055s.055.109.042.163v.164s0 .014.013.014h.041c.028 0 .055-.014.082-.027h.04c.056 0 .096.04.096.08l.041.192v.096c.041.109.055.204.041.313v.232s.027.11.082.123h.027s.014.027.014.04v.042h.014v.068l.04.095c0 .028 0 .028.014.028v.218h.027c.055.082.137.15.246.19v.014h.013v-.027h.028v-.068l-.014-.041v-.014s-.014 0-.014-.013v-.26s0-.013-.027-.013v-.055c0-.027 0-.054-.027-.068l-.123-.095-.095-.082s-.014-.014-.014-.027c0-.028-.013-.041-.04-.055 0 0-.014-.014-.014-.027v-.096a.62.62 0 0 1 .068-.272c.013-.028.027-.055.04-.096h.014c0 .04.041.082.096.096h.027s.027 0 .027.027c0 .04.028.095.07.109l.067.04s.013.028.013.042v.027h.014v.055c0 .013 0 .04.014.054 0 0 .013.028.013.04 0 0 .014 0 .028-.013.054-.081.11-.15.177-.218a.495.495 0 0 0 .163-.422.573.573 0 0 0-.054-.205.165.165 0 0 0-.068-.068.03.03 0 0 1-.028-.027.52.52 0 0 1-.109-.232s0-.028-.013-.041c0 0 0-.027-.014-.041v-.055l.068-.068.068-.068s.014-.027.028-.04a.578.578 0 0 1 .15.108s.013.014.027.014c0 0 .014 0 .014-.014v-.054s.013-.028.027-.028a.737.737 0 0 0 .545-.34c0-.014.028-.028.041-.041a.2.2 0 0 0 .082-.123v-.041s.027-.027.04-.027c.028-.014.028-.041.028-.07v-.217s0-.013.014-.013c0 0 .013 0 .013-.028a.18.18 0 0 0-.04-.163s0-.014-.014-.028c0 0 0-.013.014-.027 0 0 .027-.04.027-.054 0-.028 0-.055-.014-.082 0 0 0-.014-.013-.014l-.014-.013v-.028s0-.04-.027-.054c0 0-.028-.014-.028-.028 0 0-.013-.068-.04-.068l-.014-.027v-.041s-.014 0-.014-.014v-.04s-.013 0-.013-.014v-.041s0-.068.013-.082c.014 0 .028-.027.041-.04.027-.028.041-.083.014-.11a.219.219 0 0 0-.164-.123h-.082s-.068-.054-.08-.095v-.055h.012s.082-.027.096-.068c0-.013.027-.027.04-.054.014-.014.028-.041.041-.055h.014s.014 0 .014.028v.109s.04.08.082.08c.013 0 .027 0 .04-.012a.125.125 0 0 1 .096-.041h.013c.082.027.082.068.082.123 0 .04 0 .095.014.136 0 0 0 .014.014.014v.054h.013v.068s0 .055.028.069c.013 0 .027.027.04.04 0 .028 0 .055.014.082 0 0 0 .014.014.014h.027c.04 0 .082-.055.11-.11l.013-.013v-.014c0-.04-.014-.068-.014-.11 0-.04 0-.08-.014-.121 0-.014-.109-.164-.15-.218v-.028s.055-.013.055-.04v-.082c0-.082.068-.15.136-.191h.041s.027-.028.041-.028c0 0 .055-.013.055-.04 0 0 0-.042.027-.055.014 0 .027-.027.014-.041v-.11s0-.013.013-.026h.014c.11.327.204.668.273 1.009h-.028c-.027 0-.054.013-.054.04 0 .014 0 .04-.014.055 0 .027-.027.055-.054.068h-.096s-.095.04-.109.096c0 .04.014.068.055.068h.013s.082-.027.11-.055h.013s.014 0 .014.014v.04s.027.07.068.07h.027c.04-.014.082-.042.11-.055a8.561 8.561 0 0 1-.26 3.804h-.04s-.028 0-.028.027c-.027.014-.027.04-.027.069 0 .027.013.054.04.054h.014c-.145.446-.327.88-.545 1.296-.014 0-.04-.014-.055-.014-.04 0-.082.014-.095.055l-.069.095-.109.136s-.027.028-.04.028c-.014 0-.028 0-.04-.014 0 0-.015 0-.015.014 0 0 0 .013-.014.027a.283.283 0 0 0-.08.136.256.256 0 0 1-.165.15l-.11.028-.095.027s-.027 0-.027.013c0 0 0 .014-.014.014 0 0-.027 0-.04.027v.028s-.028.013-.04.027l-.07.027s-.013 0-.013.014c0 0 0 .013-.014.027l-.04.04s-.11.124-.137.206c-.04.095-.055.204-.068.3 0 .013 0 .027.013.027 0 .027 0 .068-.013.095v.095h.013a.64.64 0 0 1-.095.314 8.27 8.27 0 0 1-5.987 2.55l.41-.218zm-.314-3.436v.013c0 .219 0 .273.164.355 0 0 .013 0 .013.014 0 0 0 .013.014.013h.027c.014-.027.027-.027.041-.027 0 0 .04-.027.055-.055 0 0 .013-.013.027-.013 0 0 .014 0 .027-.027v-.082h.041v-.041s0-.014.014-.014c0 0 .013 0 .027-.014l.04-.11v-.026h.028s.014 0 .014-.027c.013-.15.027-.314.054-.477 0-.014 0-.041.028-.041.04 0 .068-.055.068-.096l-.028-.136-.027-.177c0-.014-.027-.028-.04-.014-.014 0-.042 0-.042.027v.068l-.04.069c0 .027-.028.054-.04.068h-.029s-.027.054-.04.068c0 0 0 .027-.014.04h-.055s-.027.028-.027.042v.013h-.095l-.014-.013c-.027 0-.055.013-.055.04 0 0 0 .028-.013.028 0 0-.014 0-.014.014v.054h-.014v.027c0 .069.014.096.055.123l.027.027v.04l-.027.042h-.027s-.014 0-.014.014v.136h-.054l-.055.055zm6.695-1.568h.191s.028-.014.028-.028v-.04c0-.014-.028-.028-.04-.028 0 0-.015 0-.015-.014h-.027s0-.013-.027-.013h-.096v-.014s0-.013-.014-.013h-.313a.18.18 0 0 0-.082.013c-.027.014-.04.04-.068.068 0 0-.014.014-.028.014 0 0-.013 0-.013.014 0 .013.013.013.027.013h.11l.258.04v.015c0 .014 0 .014.014.014h.136l-.04-.041zm-.872-.532h.013c.055.109.096.19.205.218v.014h.082s.095-.055.081-.11a.995.995 0 0 0-.34-.654l-.069-.068-.068-.096s-.027-.054-.054-.054c-.014 0-.04 0-.04-.028a.415.415 0 0 0-.11-.11h-.028s-.08-.04-.109-.067h-.027s-.014 0-.014.014v.054s.014.082.055.096h.014s.027.04.027.054v.04h.027l.055.083s.04.027.054.027c0 0 .014 0 .014.014 0 0 0 .027.014.027l.054.028s.027.027.027.054v.11l.028.013h.013v.054H75v.082h.013v.027s.014 0 .014.014v.082l.055.082zm1.745-.587h-.04s-.055.04-.069.082c-.04.096-.082.19-.11.287a.562.562 0 0 0 0 .3v.068c0 .013 0 .013.028.013.014 0 .028-.013.041-.027v-.095l.041-.096s0-.013.014-.013l.013.027v.068s.028.055.055.04c0 0 .027.015.027.028 0 0 0 .014.014.014.013 0 .027 0 .027-.027 0-.028 0-.055.014-.082v-.028h-.014c0-.054-.027-.11-.027-.177 0-.027 0-.054.027-.068a.041.041 0 0 0 .01-.027c0-.01-.003-.02-.01-.027 0 0-.014-.014-.027-.014 0 0-.055 0-.068.014h-.014v-.028c0-.068.014-.122.068-.177v-.055zm-.273-.531h-.027s-.109.054-.123.109c0 .027-.027.054-.04.08h-.028s-.013 0-.027.015a.476.476 0 0 1-.205.164.165.165 0 0 0-.095.095c0 .014-.027.027-.04.04h-.04c-.084.042-.138.124-.125.206 0 .095.041.204.082.286.028.04.068.068.123.068h.027s.014 0 0 .014h.26s0-.014.013-.027c.055-.014.055-.028.055-.028v-.04s0-.014.027-.014c0 0 0-.014.013-.028v-.027s0-.013.014-.013l.014-.028v-.027s0-.014.013-.014c0 0 .014 0 .028-.013.027-.041.04-.096.054-.137l.027-.095s0-.014.014-.014c0 0 .014 0 .014-.013 0-.055 0-.07-.028-.082-.027-.014-.013 0-.013-.014 0-.123.013-.245.082-.354.013-.041 0-.082-.028-.096-.027-.013-.04-.027-.068-.027l.027.014zm-14.672-4.596v.04-.026l.04-.027a.22.22 0 0 0 .042-.123v-.11s0-.027-.028-.027h-.013v-.013c0-.055.013-.096.027-.137v-.027h-.014s-.013 0-.013.014v.027l-.11.164-.04.054v.15h.095c.014 0 .027 0 .04-.013l-.026.054zm3.136-1.24s0 .013-.014.013c0 0-.04.027-.04.04v.042h-.04s-.015 0-.015.013a.495.495 0 0 0-.027.15c0 .055 0 .096-.096.164 0 0-.013.014-.013.027h.04c.11 0 .232-.027.328-.082l.082-.027a.258.258 0 0 0 .15-.163.165.165 0 0 0-.04-.178l-.07-.054s-.027-.028-.013-.055c0-.014 0-.027-.027-.04a.03.03 0 0 1-.019-.009.03.03 0 0 1-.009-.02v-.026h-.013v-.123a.19.19 0 0 1 .027-.082v-.068c0-.014-.027-.027-.04-.027h-.04v-.028l-.029-.013c-.027 0-.068.013-.082.04l-.04.082s-.07.15-.055.232c0 .028.027.069.054.082.041.027.055.068.068.11 0 0 0 .013.014.013h-.014l-.027-.014zm-.982-1.133v.069s.028.027.041.027h.191s.027 0 .027-.014v-.013l.07-.028s.026-.013.026-.027c0 0 0-.014.013-.014 0 0 .082-.054.11-.11v-.04s.054-.11.04-.163c0-.014-.027-.028-.054-.028-.1.029-.196.07-.287.123l-.095.055s-.014 0-.014-.014v-.027s-.027-.041-.04-.041c0 0-.069.04-.082.068 0 0-.014.027 0 .04l.013.015v.013s-.027.014-.013.028c0 .027 0 .027.013.027h.028l.013.054zm5.632-1.731-.027.027-.028.082s0 .013-.013.013v.028c0 .027.04.054.082.068 0 0 .068.04.11.068a.27.27 0 0 0 .19.082h.041s.04 0 .054-.027v-.055s-.013-.027-.027-.041c0 0-.014-.014-.027-.014h-.014v-.04s0-.014-.014-.014c-.013 0-.013 0-.013-.014v-.136h.013s.028 0 .028-.014l.04-.04s.028-.014.041-.014c.028 0 .041 0 .055-.028l.054-.054.028-.027s.027-.014.04-.014c.028 0 .042 0 .055-.027l.028-.028s.04-.027.068-.013c.013 0 .04 0 .04-.027 0-.014.028-.028.041-.028l.232-.054.123-.028s.027-.013.04-.027v-.014h-.23s-.04 0-.04.014-.029.027-.043.027h-.122v.014h-.19v.04l-.15.028c-.083 0-.15.055-.206.11l-.027.027-.027.027h-.014s-.027.027-.027.054h-.014s-.014 0-.014.014c0 0 0 .027-.013.027 0 0-.014 0-.014.014 0 0 0 .027-.014.027l-.095-.013zm44.686 8.48h-5.727l2.932-7.485 2.795 7.486zm-30.463-1.444h-1.787V31.6c0-1.173.682-1.65 2.373-1.65.996 0 3.641 0 3.641 3.955 0 2.618-1.268 3.736-4.227 3.736zm-31.418-.123h-1.76V31.6c0-1.105.805-1.65 2.47-1.65 2.18 0 3.64.668 3.64 3.927.11.955-.178 1.91-.778 2.646a4.848 4.848 0 0 1-3.559.995h-.013zm17.55-1.963a.33.33 0 0 1-.287-.191s-.013-.014-.027-.014v-.014l.027-.068.027-.068s.028-.04.055-.055c0 0 .014 0 .027-.013l.028-.014c0-.013-.014-.04-.04-.04a.548.548 0 0 1-.206-.192v-.068s0-.013-.013-.013c0 0-.014 0-.014-.014v-.136a.288.288 0 0 1-.055-.15v-.028s0-.054.041-.068h.055s.068-.027.082-.068c0 0 .027-.014.04-.014h.028s.013 0 .013-.013c0 0 0-.014.014-.028h.055s.027-.027.027-.04c.013 0 .04 0 .054.013h.041s.07.068.07.11c0 .04-.029.067-.07.067-.068 0-.122.04-.163.096a.107.107 0 0 0 0 .15c.054.082.11.163.15.245.013.055.068.082.122.096 0 0 .028 0 .028.013v.028s-.014.027-.028.027c-.027.027-.04.054-.027.095 0 0 0 .04.027.04h.014v.042s0 .014.014.014c0 0 .013 0 .013.014v.109s0 .013.014.013h.014v.082s0 .014-.014.014c0 0-.014 0-.014.013 0 0 0 .014-.013.014h-.055s-.027 0-.027.014h-.027zm-1.364-.587a.46.46 0 0 1-.232-.068l-.054-.027s-.082-.027-.123-.027h-.027v-.014s0-.014-.014-.014h-.04a.326.326 0 0 0-.19.068.443.443 0 0 1-.193.055c-.054 0-.109-.027-.123-.082v-.027s.014-.11.055-.164h.014s.027-.068.027-.11c0-.04.014-.081.027-.108 0 0 0-.014.028-.014 0 0 .013-.013.013-.027v-.054h.014s.04-.041.068-.041h.014s.04.013.04.027a.41.41 0 0 0 .314.15h.177s0 .027.028.027c.15.04.272.15.327.287 0 0 0 .027.027.027v.04s-.054.055-.082.055h-.15l.055.04zm6.15-4.077h-.177l-.164-.041c-.014 0-.027-.014-.04-.027v-.028s-.028-.013-.042-.013l-.013-.014-.232.096h-.014s0-.014-.013-.014c0 0-.014 0-.014-.014l.014-.013c.11-.028.218-.068.313-.123h.041s0-.014-.014-.027l-.068-.068c.164.109.314.218.45.327l-.027-.041z"/></g></svg>