<svg xmlns="http://www.w3.org/2000/svg" width="120" height="98" fill="none"><g clip-path="url(#a)"><mask id="b" width="120" height="88" x="0" y="10" maskUnits="userSpaceOnUse" style="mask-type:luminance"><path fill="#fff" d="M0 10h120v87.122H0V10z"/></mask><g fill="#036" mask="url(#b)"><path d="M52.428 95.053a6.65 6.65 0 0 0 1.025-1.15c.288-.397.414-.791.414-1.188 0-.36-.09-.666-.27-.862-.18-.216-.468-.325-.863-.325-.396 0-.684.126-.9.36-.215.233-.323.557-.341.953h-.738c.018-.63.216-1.114.576-1.456.36-.343.827-.523 1.403-.523.575 0 1.043.163 1.385.487.34.323.52.754.52 1.33 0 .468-.143.918-.412 1.367a5.53 5.53 0 0 1-.954 1.17c-.36.342-.81.72-1.367 1.169h2.914v.646h-4.065v-.556a35.31 35.31 0 0 0 1.69-1.421h-.017zm3.92-3.362c.325-.54.864-.81 1.656-.81.79 0 1.33.27 1.654.81.324.54.468 1.294.468 2.266s-.162 1.763-.468 2.303c-.305.54-.863.826-1.654.826-.792 0-1.35-.27-1.655-.828-.306-.556-.468-1.311-.468-2.301 0-.99.162-1.726.468-2.266zm2.915 1.025c-.072-.341-.198-.611-.396-.828-.198-.216-.486-.306-.863-.306-.378 0-.684.109-.882.306a1.55 1.55 0 0 0-.395.828 7.99 7.99 0 0 0-.09 1.24c0 .486.036.936.09 1.278.054.342.198.612.395.828.198.216.486.305.882.305.395 0 .665-.109.863-.306.198-.216.324-.486.396-.828.072-.34.09-.773.09-1.276s-.036-.9-.09-1.241zm3.687 2.338a6.65 6.65 0 0 0 1.025-1.151c.288-.397.413-.791.413-1.188 0-.36-.09-.666-.27-.862-.18-.216-.467-.325-.863-.325-.395 0-.683.126-.9.36-.215.233-.323.557-.341.953h-.737c.018-.63.216-1.114.575-1.456.36-.343.828-.523 1.403-.523.576 0 1.043.163 1.385.487.342.323.522.754.522 1.33 0 .468-.144.918-.414 1.367a5.522 5.522 0 0 1-.953 1.17c-.36.342-.81.72-1.367 1.169h2.914v.646h-4.065v-.556c.578-.456 1.142-.93 1.69-1.421h-.017zm4.028-3.778c.36-.286.828-.43 1.403-.43.378 0 .72.072.99.215.27.143.485.323.629.557.144.235.216.505.216.81 0 .341-.108.648-.306.9a1.365 1.365 0 0 1-.773.484v.037c.36.09.647.27.863.54.216.27.323.61.323 1.043 0 .323-.071.61-.215.862-.144.252-.36.45-.666.612-.287.144-.647.216-1.06.216-.594 0-1.098-.162-1.476-.468-.377-.305-.593-.754-.647-1.33h.737c.036.34.18.61.414.826.234.216.557.325.953.325.396 0 .7-.108.9-.306.197-.215.305-.468.305-.81 0-.413-.144-.72-.431-.916-.288-.18-.702-.27-1.278-.27h-.197v-.648h.197c.522 0 .918-.09 1.17-.252.27-.161.395-.431.395-.773 0-.305-.09-.54-.288-.72-.197-.18-.467-.27-.827-.27-.36 0-.63.09-.845.27a1.09 1.09 0 0 0-.378.72h-.755c.036-.522.233-.918.593-1.224h.054zM44.82 76.043c.666.502 1.08 1.186 1.259 2.05h-2.122a1.533 1.533 0 0 0-.648-.702 2.086 2.086 0 0 0-1.043-.27c-.63 0-1.133.217-1.51.63-.378.431-.576 1.007-.576 1.727 0 .79.198 1.385.593 1.817.396.412.97.63 1.709.63.468 0 .9-.127 1.259-.397.36-.27.61-.63.755-1.116h-2.518v-1.438h4.19v1.978c-.165.493-.42.95-.754 1.35a3.7 3.7 0 0 1-1.313 1.006c-.54.252-1.151.378-1.835.378-.827 0-1.565-.18-2.194-.54a3.597 3.597 0 0 1-1.44-1.493c-.341-.63-.503-1.367-.503-2.175 0-.81.162-1.547.504-2.194a3.71 3.71 0 0 1 1.439-1.494c.61-.36 1.349-.522 2.176-.522 1.043 0 1.889.252 2.554.757l.018.017zm4.479 6.06h2.662v1.53H47.3v-8.274h2l-.001 6.745zm9.639-6.33c.63.36 1.134.862 1.493 1.51a4.4 4.4 0 0 1 .558 2.177c0 .81-.18 1.547-.558 2.194a4.06 4.06 0 0 1-1.51 1.51c-.63.36-1.35.54-2.105.54a4.21 4.21 0 0 1-2.104-.54c-.63-.36-1.15-.88-1.51-1.51-.38-.647-.558-1.367-.558-2.194 0-.828.18-1.53.557-2.176a4.06 4.06 0 0 1 1.51-1.512c.63-.36 1.332-.54 2.105-.54.774 0 1.493.18 2.122.54zm-3.687 1.96c-.377.431-.575 1.007-.575 1.727 0 .72.198 1.294.575 1.727.378.43.9.647 1.565.647.666 0 1.17-.216 1.547-.648.378-.432.593-1.008.593-1.727 0-.72-.197-1.294-.575-1.727-.378-.43-.9-.647-1.565-.647-.665 0-1.17.217-1.565.63v.017zm13.004 2.356c.288.36.432.791.432 1.278 0 .7-.234 1.258-.702 1.654-.467.395-1.15.594-2.032.594h-3.85v-8.273h3.76c.845 0 1.493.18 1.96.556.468.36.684.883.684 1.566 0 .504-.126.916-.396 1.24a1.92 1.92 0 0 1-1.043.649c.504.126.9.36 1.187.719v.017zm-4.137-1.349h1.313c.702 0 1.044-.305 1.044-.88 0-.576-.36-.882-1.062-.882h-1.277v1.78l-.018-.017zm2.536 2.357c0-.306-.09-.521-.287-.701-.198-.162-.468-.252-.828-.252h-1.42v1.852h1.42c.738 0 1.115-.305 1.115-.917v.018zm8.202 1.025h-3.093l-.522 1.51h-2.104l3.02-8.2h2.303l3.022 8.2H75.36l-.522-1.51h.018zm-.521-1.51-1.026-3.04-1.043 3.04h2.069zm5.935 1.492h2.662v1.528h-4.66V75.36h1.998v6.745zM56.943 38.938v7.985H55.63v-5.468l-2.446 5.468h-.9l-2.446-5.468v5.468h-1.313v-7.986h1.42l2.807 6.26 2.788-6.26h1.403zm2.104 7.68a2.794 2.794 0 0 1-1.133-1.15 3.561 3.561 0 0 1-.414-1.728c0-.666.144-1.223.432-1.709a2.88 2.88 0 0 1 1.169-1.15c.485-.27 1.043-.397 1.636-.397.594 0 1.15.145 1.637.396.486.27.88.648 1.17 1.151.287.505.43 1.062.43 1.71 0 .647-.143 1.205-.43 1.708-.277.49-.69.89-1.188 1.15a3.474 3.474 0 0 1-1.655.415 3.285 3.285 0 0 1-1.618-.415l-.036.019zm2.572-.97c.288-.164.54-.398.72-.72.179-.325.269-.72.269-1.17 0-.45-.09-.846-.27-1.169a1.803 1.803 0 0 0-.701-.72 1.9 1.9 0 0 0-.936-.233 1.9 1.9 0 0 0-.935.233 1.656 1.656 0 0 0-.683.72c-.162.324-.252.702-.252 1.17 0 .682.18 1.205.52 1.583.343.377.793.556 1.315.556.34 0 .647-.072.953-.234v-.017zm3.849 1.113a2.41 2.41 0 0 1-.936-.736 1.846 1.846 0 0 1-.377-1.044h1.349c.018.27.144.486.377.666.234.18.522.27.882.27.377 0 .647-.073.863-.217.198-.144.306-.324.306-.54a.54.54 0 0 0-.342-.52 8.635 8.635 0 0 0-1.08-.379 8.65 8.65 0 0 1-1.15-.378c-.3-.12-.565-.31-.774-.556-.215-.252-.323-.594-.323-1.008 0-.342.108-.648.305-.918.198-.288.486-.503.864-.665.377-.161.79-.233 1.277-.233.72 0 1.295.18 1.744.54.45.36.684.863.702 1.492h-1.313a.97.97 0 0 0-.342-.683c-.198-.18-.486-.252-.845-.252-.36 0-.612.072-.792.197a.61.61 0 0 0-.27.522c0 .161.055.305.18.431.126.108.27.199.45.27.18.072.432.144.773.252.45.127.828.253 1.134.378.305.126.557.306.755.558.198.252.324.575.342.97 0 .36-.108.684-.306.972-.198.288-.486.504-.845.666-.36.161-.792.233-1.277.233a3.2 3.2 0 0 1-1.331-.27v-.018zm5.952-5.107v3.507c0 .234.055.413.163.503.108.09.305.163.575.163h.81v1.096h-1.044c-.593 0-1.043-.142-1.348-.413-.306-.27-.468-.72-.468-1.35v-3.505h-.755v-1.063h.755v-1.581h1.313v1.581h1.547v1.063H71.42zM29.622 52.085v1.062H27.5v6.925h-1.313v-6.925h-2.14v-1.061h5.575zm2.644 1.834c.324-.18.702-.27 1.133-.27V55h-.324c-.521 0-.9.125-1.17.395-.27.253-.394.72-.394 1.35v3.327h-1.313v-6.33h1.313v.916c.198-.323.45-.575.755-.755v.017zm7.338-.18v6.333H38.29v-.757c-.22.262-.497.471-.81.613a2.667 2.667 0 0 1-1.06.216 2.9 2.9 0 0 1-1.331-.306c-.396-.199-.702-.523-.935-.919-.234-.412-.342-.898-.342-1.473v-3.724h1.295v3.526c0 .575.144 1.007.432 1.294.287.306.665.45 1.15.45.486 0 .882-.143 1.17-.45.288-.306.43-.738.43-1.294v-3.526h1.314v.017zm1.925 6.17a2.41 2.41 0 0 1-.936-.737 1.845 1.845 0 0 1-.377-1.043h1.349c.018.27.144.485.377.665.234.18.522.27.882.27.377 0 .647-.072.863-.217.198-.144.306-.322.306-.54a.54.54 0 0 0-.342-.52 8.628 8.628 0 0 0-1.08-.379 8.63 8.63 0 0 1-1.15-.377c-.3-.12-.565-.312-.773-.557-.216-.252-.324-.593-.324-1.007 0-.343.108-.648.306-.917.197-.288.485-.505.863-.666.377-.163.79-.234 1.277-.234.72 0 1.295.18 1.744.54.45.36.684.863.702 1.492h-1.313a.97.97 0 0 0-.342-.684c-.198-.18-.486-.252-.845-.252-.36 0-.612.072-.791.198a.61.61 0 0 0-.27.523c0 .162.054.306.18.431.125.108.27.197.45.27.179.072.43.144.773.252.45.125.827.252 1.133.377.305.127.557.306.755.558.216.252.324.576.342.972 0 .36-.108.683-.306.97-.198.289-.486.505-.845.666-.36.161-.792.233-1.277.233-.486 0-.935-.09-1.331-.27v-.017zm5.97-5.09v3.508c0 .233.055.413.163.504.108.09.306.16.575.16h.81v1.098h-1.043c-.594 0-1.044-.143-1.35-.413-.305-.27-.467-.72-.467-1.35v-3.507h-.755v-1.062h.755v-1.581H47.5v1.581h1.547v1.063H47.5zm7.753 2.59h-4.838c.036.504.234.918.557 1.223.342.306.756.468 1.24.468.703 0 1.206-.288 1.494-.882h1.42a2.963 2.963 0 0 1-1.042 1.44c-.504.377-1.115.556-1.87.556a3.185 3.185 0 0 1-1.62-.413 2.796 2.796 0 0 1-1.133-1.15c-.27-.505-.413-1.063-.413-1.728 0-.666.126-1.223.396-1.727.27-.485.63-.88 1.115-1.15.485-.27 1.025-.396 1.654-.396.63 0 1.133.126 1.6.395.469.27.828.63 1.098 1.097.252.468.396 1.008.396 1.62 0 .233 0 .45-.054.648zm-1.331-1.062c0-.485-.18-.863-.522-1.169-.341-.305-.755-.43-1.26-.43-.45 0-.844.143-1.168.43-.323.289-.521.684-.575 1.17h3.525zm1.87-1.15c.27-.486.63-.864 1.08-1.15a2.95 2.95 0 0 1 1.529-.414c.413 0 .827.09 1.223.27.395.18.719.413.953.718v-3.056h1.33v8.507h-1.33v-.955a2.348 2.348 0 0 1-.9.757 2.822 2.822 0 0 1-1.313.305 2.887 2.887 0 0 1-1.51-.413 3.08 3.08 0 0 1-1.08-1.17c-.27-.503-.395-1.078-.395-1.708 0-.63.126-1.206.396-1.69h.018v-.002zm4.515.575a1.979 1.979 0 0 0-.701-.736 1.742 1.742 0 0 0-.936-.253c-.323 0-.647.09-.935.252a1.925 1.925 0 0 0-.701.72c-.18.323-.27.7-.27 1.133 0 .431.09.828.27 1.15.18.325.413.577.719.757.306.18.61.252.935.252.324 0 .648-.09.936-.252a1.86 1.86 0 0 0 .7-.739c.18-.323.27-.7.27-1.15 0-.45-.09-.81-.27-1.133h-.017zm10.18.882c.305.377.45.81.45 1.276 0 .413-.11.773-.325 1.098-.215.324-.521.575-.917.773-.395.18-.863.288-1.385.288h-3.201v-7.986h3.04c.539 0 1.007.09 1.402.27.396.18.684.431.882.738.197.306.305.665.305 1.043 0 .466-.125.844-.36 1.15-.251.306-.575.54-.99.683.433.072.793.306 1.099.684v-.017zm-4.065-1.206h1.619c.43 0 .755-.09 1.007-.288.234-.197.36-.467.36-.844 0-.379-.126-.649-.36-.847-.234-.197-.576-.305-1.007-.305h-1.62v2.285zm2.824 3.237c.25-.216.377-.52.377-.899 0-.378-.144-.7-.395-.934-.27-.234-.63-.342-1.062-.342H66.44v2.5h1.76c.45 0 .793-.108 1.045-.325zm4.442-4.766c.324-.18.7-.27 1.133-.27V55h-.324c-.521 0-.9.125-1.17.395-.27.253-.394.72-.394 1.35v3.327h-1.313v-6.33h1.313v.916c.197-.323.45-.575.755-.755v.017zm2.716 5.847a2.796 2.796 0 0 1-1.133-1.151 3.557 3.557 0 0 1-.414-1.727c0-.666.144-1.206.432-1.709a2.88 2.88 0 0 1 1.17-1.15c.485-.27 1.042-.397 1.636-.397.593 0 1.15.127 1.637.396.485.27.88.648 1.169 1.151.287.503.43 1.06.43 1.709 0 .648-.143 1.223-.43 1.709a2.94 2.94 0 0 1-1.187 1.15 3.474 3.474 0 0 1-1.655.414 3.283 3.283 0 0 1-1.62-.413l-.035.018zm2.572-.971c.288-.163.54-.397.72-.72.18-.325.27-.72.27-1.17 0-.45-.09-.845-.27-1.169a1.804 1.804 0 0 0-.702-.72 1.9 1.9 0 0 0-.935-.233 1.9 1.9 0 0 0-.935.234 1.656 1.656 0 0 0-.684.72c-.162.323-.252.7-.252 1.169 0 .684.18 1.205.522 1.583.342.378.79.558 1.313.558.342 0 .647-.072.953-.234v-.019zm5.395-1.872 2.914 3.166h-1.762l-2.338-2.716v2.716H81.87V51.58h1.313v4.947l2.302-2.77H87.3l-2.913 3.165h-.018z"/><path d="M93.238 57.41H88.4c.036.503.233.917.557 1.222.342.306.756.468 1.24.468.703 0 1.206-.288 1.494-.881h1.42a2.963 2.963 0 0 1-1.042 1.439c-.504.377-1.115.557-1.87.557a3.185 3.185 0 0 1-1.62-.414 2.795 2.795 0 0 1-1.133-1.15c-.27-.504-.413-1.062-.413-1.727 0-.666.126-1.223.395-1.727.27-.486.63-.881 1.115-1.15.486-.27 1.026-.397 1.655-.397.63 0 1.133.126 1.6.396.468.27.828.63 1.098 1.097.252.468.396 1.007.396 1.619 0 .234 0 .451-.054.648zm-1.331-1.062c0-.485-.18-.863-.522-1.169-.342-.306-.755-.431-1.26-.431-.45 0-.844.143-1.168.431-.324.288-.521.684-.575 1.17l3.525-.001zM95.9 53.92c.323-.18.7-.27 1.132-.27V55h-.323c-.522 0-.9.125-1.17.395-.27.252-.395.72-.395 1.349v3.327H93.83v-6.33h1.313v.917c.198-.324.45-.576.755-.756v.018zM26.493 94.317c-.052.39-.155.77-.306 1.133-.36.791-1.08 1.618-2.662 1.672-.791.018-1.78-.144-2.824-.431-1.007-.324-2.104-.738-3.057-1.223-.458-.22-.908-.453-1.35-.702a30.899 30.899 0 0 1-1.06-.647c-.612-.378-.99-.63-.99-.63s.846-.63 2.087-1.24c1.24-.612 2.806-1.188 4.316-1.134.936.036 1.817.324 2.626.684-.503-.432-1.043-.918-1.636-1.44a77.082 77.082 0 0 1-1.781-1.744c-.121.35-.297.677-.522.971-.503.666-1.402 1.331-2.95 1.097-1.528-.233-3.65-1.402-5.287-2.661-.845-.612-1.53-1.241-2.032-1.691-.504-.468-.81-.773-.81-.773s.917-.45 2.194-.792c1.295-.36 2.896-.611 4.317-.288.737.162 1.42.504 2.014.882.126.072.252.162.36.252-.557-.684-1.133-1.385-1.69-2.14-.35-.476-.687-.962-1.008-1.458-.19.3-.427.567-.701.792-.63.521-1.637.989-3.094.45-.72-.27-1.546-.756-2.32-1.385a15.115 15.115 0 0 1-1.17-1.008c-.36-.36-.72-.737-1.06-1.097-.683-.72-1.223-1.439-1.62-1.96-.394-.522-.63-.864-.63-.864s.955-.251 2.25-.36c1.295-.107 2.86-.053 4.173.504a6.66 6.66 0 0 1 1.798 1.223c.09.072.144.144.234.234-.306-.54-.593-1.079-.9-1.655-.36-.701-.7-1.42-1.024-2.158-.198.18-.468.396-.828.594-.72.377-1.798.611-3.093-.18-1.313-.773-2.752-2.5-3.723-4.119-.24-.376-.468-.76-.684-1.15-.18-.36-.36-.702-.485-.972-.27-.558-.432-.917-.432-.917s.953-.072 2.194.054c1.24.125 2.716.45 3.867 1.205.666.45 1.205 1.043 1.655 1.672-.234-.665-.45-1.349-.666-2.032a69.514 69.514 0 0 1-.503-1.835c-.216.126-.54.288-.918.396-.773.216-1.852.216-2.985-.773-.558-.504-1.115-1.205-1.6-2.015-.45-.81-.864-1.708-1.224-2.536-.18-.413-.324-.827-.468-1.187-.125-.377-.215-.72-.287-.989l-.234-.935s.917.09 2.068.431c1.15.324 2.482.9 3.49 1.817.511.499.93 1.083 1.24 1.727.036.072.054.126.09.198l-.144-.972-.323-2.32-.054-.773c-.315.1-.641.161-.971.18-.792.035-1.835-.18-2.752-1.331-.99-1.152-1.547-3.13-1.943-4.82-.216-.846-.234-1.62-.305-2.195-.02-.306-.043-.612-.072-.917 0 0 .863.252 1.888.755 1.043.522 2.23 1.277 2.986 2.32.467.63.755 1.331.97 2.015.019-.791.055-1.583.073-2.374l.036-1.187c0-.09 0-.198.018-.288-.318.022-.638.01-.953-.036-.792-.126-1.745-.557-2.464-1.816-.378-.648-.594-1.457-.756-2.32a16.523 16.523 0 0 1-.288-2.609c0-1.636.162-2.967.162-2.967s3.094 1.529 4.119 3.759c.342.701.522 1.457.63 2.176.09-.611.197-1.223.34-1.816.145-.648.27-1.296.415-1.961a4.244 4.244 0 0 1-.953-.234c-.738-.288-1.601-.899-2.07-2.248-.215-.683-.304-1.493-.322-2.338 0-.845.018-1.727.18-2.482.27-1.547.629-2.752.629-2.752s2.68 1.96 3.31 4.263a9.87 9.87 0 0 1 .25 2.032c0 .126 0 .252-.017.378a44.407 44.407 0 0 1 1.367-3.76 3.818 3.818 0 0 1-.917-.449 3.637 3.637 0 0 1-.972-.935 3.357 3.357 0 0 1-.611-1.637c-.18-1.385.108-3.237.647-4.622a38.58 38.58 0 0 1 .684-1.763c.09-.216.18-.395.234-.521.072-.108.108-.18.108-.18s.54.557 1.133 1.42c.575.864 1.205 2.015 1.313 3.166.054.81-.036 1.655-.18 2.428.144-.306.288-.593.432-.899.467-.863.953-1.69 1.438-2.5a3.614 3.614 0 0 1-.827-.647 4.22 4.22 0 0 1-.791-1.116c-.216-.467-.324-1.025-.306-1.69 0-.702.18-1.457.413-2.212.216-.756.594-1.44.936-2.069.342-.63.665-1.15.917-1.547.126-.197.234-.341.306-.431.04-.05.082-.098.126-.144 0 0 .108.162.27.431.16.27.36.648.575 1.098.414.917.827 2.104.755 3.219-.072.845-.305 1.673-.593 2.446.486-.701.953-1.385 1.457-2.032.305-.36.593-.72.88-1.061a4.582 4.582 0 0 1-.72-.828c-.448-.665-.826-1.654-.574-2.95.126-.683.396-1.384.738-2.068.34-.665.79-1.259 1.204-1.798.414-.522.81-.972 1.098-1.277.287-.324.485-.468.485-.468s.072.162.18.45c.108.27.234.665.36 1.133.252.935.45 2.122.198 3.165-.216.828-.576 1.619-.972 2.32.774-.791 1.53-1.564 2.267-2.284.143-.108.27-.234.395-.341a4.67 4.67 0 0 1-.54-.954 3.872 3.872 0 0 1-.053-3.003c.234-.648.593-1.277 1.025-1.87.414-.594.953-1.062 1.403-1.512.935-.845 1.744-1.384 1.744-1.384s.756 2.697-.035 4.622c-.342.773-.81 1.529-1.296 2.158.792-.647 1.62-1.187 2.357-1.726a5.343 5.343 0 0 1 2.32-3.58C31.205 10.558 35.827 10 35.827 10s-2.194 4.083-4.586 5.72c-1.69 1.15-3.363.989-4.227.79-.701.576-1.493 1.116-2.266 1.781l-.018.018c.72-.377 1.547-.701 2.428-.72 2.032-.089 4.029 1.728 4.029 1.728s-.612.467-1.53.953c-.45.252-1.006.45-1.546.683-.557.216-1.15.396-1.762.45-.576.054-1.115 0-1.601-.126a4.817 4.817 0 0 1-1.223-.486 4.793 4.793 0 0 1-.881-.611c-.126.108-.252.234-.378.342-.701.701-1.403 1.456-2.14 2.212.63-.432 1.367-.774 2.176-.9 1.043-.18 2.14.144 2.968.504.413.18.773.378 1.025.54.252.162.395.252.395.252s-.161.125-.413.341c-.252.216-.63.504-1.08.81-.45.305-.988.611-1.528.899-.54.306-1.133.54-1.727.683-1.17.27-2.176.018-2.895-.27a4.31 4.31 0 0 1-.9-.503c-.287.342-.557.701-.845 1.043-.45.594-.881 1.223-1.313 1.87.558-.485 1.205-.917 1.979-1.133 1.043-.305 2.212-.125 3.129.162.45.144.845.306 1.133.432.288.126.45.216.45.216l-.108.108c-.072.072-.18.162-.288.305-.252.252-.593.612-1.025.972-.414.377-.971.737-1.475 1.133a7.018 7.018 0 0 1-1.69.917 4.134 4.134 0 0 1-1.62.27c-.485 0-.917-.09-1.294-.216a4.12 4.12 0 0 1-.918-.414c-.467.81-.935 1.62-1.385 2.446-.125.252-.251.522-.377.792.485-.558 1.06-1.061 1.78-1.367 1.026-.45 2.267-.414 3.256-.252.97.162 1.708.45 1.708.45s-.035.036-.107.126c-.054.09-.144.197-.27.36-.234.287-.558.7-.954 1.132-.845.846-1.816 1.943-2.967 2.536a4.925 4.925 0 0 1-1.565.504c-.438.047-.88.03-1.313-.054a4.854 4.854 0 0 1-.953-.324 43.755 43.755 0 0 0-1.26 3.562c.055-.072.09-.144.127-.216.36-.522.81-1.026 1.403-1.367 1.996-1.223 5.144-.468 5.144-.468s-.45.845-1.17 1.853c-.395.503-.755 1.079-1.204 1.6-.45.54-.936 1.026-1.475 1.403-.79.62-1.79.91-2.788.81-.414-.036-.755-.144-.99-.216-.125.63-.251 1.277-.377 1.906-.144.594-.234 1.205-.324 1.799.306-.666.72-1.295 1.277-1.78 1.889-1.548 5.252-1.206 5.252-1.206s-.36.935-.99 2.069c-.287.575-.593 1.222-.988 1.834-.373.59-.8 1.145-1.277 1.655a3.83 3.83 0 0 1-2.698 1.187c-.396 0-.738-.054-.99-.108 0 .09-.017.198-.017.288l-.036 1.15-.054 2.303v.09c.216-.702.54-1.403 1.007-1.979.81-.935 2.158-1.439 3.237-1.708a11.115 11.115 0 0 1 1.979-.306s-.072.252-.198.666c-.108.413-.36.989-.54 1.618-.377 1.277-1.043 2.842-1.78 3.903-.756 1.043-1.745 1.439-2.536 1.547a3.6 3.6 0 0 1-.99 0c0 .252.037.503.055.755.107.756.215 1.493.323 2.248l.126.918s0-.126.036-.198c.126-.666.342-1.331.702-1.907.647-1.06 1.96-1.798 3.04-2.248a11.67 11.67 0 0 1 1.977-.63s-.035.27-.107.72c-.036.216-.09.486-.144.791-.036.288-.09.63-.144.972-.108.683-.27 1.456-.504 2.212-.18.737-.413 1.475-.737 2.068-.612 1.17-1.53 1.69-2.302 1.907-.378.09-.72.126-.99.108l.486 1.78c.198.684.432 1.35.666 2.015-.036-.756.072-1.547.395-2.267.522-1.187 1.727-2.14 2.77-2.751a12.506 12.506 0 0 1 1.925-.954v.756c0 .467-.018 1.133-.037 1.852-.071 1.457-.125 3.256-.557 4.533-.45 1.295-1.26 1.924-2.05 2.23a3.55 3.55 0 0 1-.972.234 48.479 48.479 0 0 0 1.835 3.615c0-.072-.036-.162-.054-.234-.108-.683-.108-1.403.072-2.086.36-1.313 1.42-2.464 2.374-3.256a13.722 13.722 0 0 1 1.817-1.277s.053.288.125.774c.072.485.162 1.169.252 1.906.054.378.09.774.126 1.187.054.396.09.81.108 1.223.036.828.054 1.619-.072 2.302-.252 1.367-.971 2.123-1.71 2.536a4.263 4.263 0 0 1-.97.378c.324.486.648.953.97 1.403.523.72 1.063 1.385 1.584 2.032-.054-.108-.108-.216-.144-.323a5.152 5.152 0 0 1-.287-2.087c.143-1.385 1.043-2.734 1.888-3.705a14.349 14.349 0 0 1 1.655-1.619s.09.288.252.774c.143.485.36 1.169.575 1.906.414 1.511.99 3.346.97 4.749 0 1.42-.63 2.284-1.312 2.787-.341.27-.701.414-.97.522.56.573 1.13 1.136 1.708 1.69.575.504 1.097.99 1.582 1.403-.467-.719-.845-1.564-.9-2.446-.107-1.42.595-2.967 1.278-4.1.702-1.133 1.403-1.925 1.403-1.925s.144.288.396.756c.108.233.252.521.413.827.162.306.324.665.504 1.007.342.756.755 1.529 1.08 2.356.34.792.647 1.565.755 2.266.233 1.421-.27 2.41-.882 3.004a3.65 3.65 0 0 1-.953.665c.234.162.36.27.36.27h.036c.34.27.413.756.162 1.08a.754.754 0 0 1-1.062.161s-.126-.09-.36-.27l.073-.071z"/><path d="M93.147 94.586a.752.752 0 0 1-1.06-.162.754.754 0 0 1 .161-1.061h.036s.126-.126.36-.288a4.034 4.034 0 0 1-.953-.665c-.612-.594-1.115-1.583-.882-3.004.108-.701.414-1.493.756-2.266.323-.827.737-1.6 1.08-2.356.18-.36.36-.702.502-1.007.144-.306.288-.594.414-.828.234-.467.396-.755.396-.755s.701.79 1.403 1.924c.683 1.133 1.385 2.662 1.277 4.1-.054.9-.414 1.728-.9 2.447.486-.414 1.008-.9 1.583-1.403a74.006 74.006 0 0 0 1.71-1.69 3.473 3.473 0 0 1-.972-.522c-.684-.504-1.296-1.367-1.313-2.788 0-1.403.557-3.22.97-4.748.235-.737.432-1.42.576-1.906.162-.486.252-.774.252-.774s.81.648 1.655 1.619c.845.97 1.744 2.32 1.888 3.705.072.7-.054 1.42-.287 2.086-.036.108-.108.216-.144.324.521-.647 1.061-1.313 1.582-2.032.324-.45.648-.918.972-1.403a3.061 3.061 0 0 1-.972-.378c-.737-.414-1.456-1.151-1.708-2.536-.126-.683-.09-1.475-.072-2.302.018-.414.072-.827.108-1.223.036-.414.072-.81.126-1.187.108-.738.197-1.421.251-1.907.072-.467.126-.773.126-.773s.864.486 1.817 1.277c.953.79 2.032 1.942 2.374 3.255.18.684.18 1.403.072 2.087 0 .072-.036.162-.054.234a48.054 48.054 0 0 0 1.834-3.616 3.97 3.97 0 0 1-.971-.233c-.773-.306-1.582-.936-2.05-2.23-.432-1.296-.504-3.076-.558-4.533 0-.72-.018-1.367-.036-1.852v-.756s.9.324 1.925.953c1.025.612 2.248 1.565 2.77 2.752.323.72.413 1.51.395 2.266.234-.665.45-1.33.666-2.014.18-.594.341-1.187.485-1.78-.251 0-.611 0-.989-.11-.791-.196-1.708-.718-2.302-1.905-.324-.594-.558-1.313-.737-2.068a23.935 23.935 0 0 1-.504-2.213c-.054-.341-.108-.665-.144-.97-.036-.29-.108-.558-.144-.792-.072-.45-.108-.72-.108-.72s.9.18 1.979.63c1.079.45 2.392 1.169 3.039 2.248.36.576.576 1.24.702 1.907 0 .072.018.126.036.197l.126-.917c.108-.737.215-1.493.323-2.248.036-.252.036-.504.054-.756a3.6 3.6 0 0 1-.989 0c-.791-.107-1.78-.503-2.536-1.546-.719-1.061-1.403-2.626-1.78-3.903-.18-.648-.432-1.205-.54-1.62a39.232 39.232 0 0 1-.198-.664s.881.036 1.979.306c1.079.27 2.428.773 3.237 1.708.468.576.791 1.277 1.007 1.978v-.09l-.054-2.302-.036-1.15c0-.09 0-.2-.018-.288-.325.07-.656.107-.989.108-.791 0-1.817-.27-2.698-1.188a11.221 11.221 0 0 1-1.277-1.654c-.395-.612-.701-1.26-.989-1.835a20.083 20.083 0 0 1-.989-2.068s3.363-.342 5.252 1.205c.557.486.971 1.133 1.277 1.78a19.563 19.563 0 0 0-.324-1.798c-.126-.63-.252-1.277-.378-1.907a3.71 3.71 0 0 1-.989.216 3.876 3.876 0 0 1-2.788-.81c-.539-.377-1.043-.88-1.475-1.402-.449-.54-.809-1.115-1.205-1.6a15.335 15.335 0 0 1-1.169-1.853s3.148-.773 5.144.468c.594.34 1.025.845 1.403 1.366.054.072.09.144.126.216a39.692 39.692 0 0 0-1.259-3.561 4.462 4.462 0 0 1-.953.324c-.378.072-.828.126-1.313.054a4.643 4.643 0 0 1-1.565-.504c-1.151-.575-2.104-1.672-2.968-2.536a12.43 12.43 0 0 1-.953-1.133c-.108-.144-.198-.27-.27-.36-.072-.072-.108-.126-.108-.126s.738-.287 1.709-.45c.971-.161 2.212-.215 3.255.253.72.305 1.313.809 1.781 1.366a29.153 29.153 0 0 0-.378-.79 60.504 60.504 0 0 0-1.385-2.447 4.53 4.53 0 0 1-.917.414 4.063 4.063 0 0 1-1.295.216 5 5 0 0 1-1.619-.27 7.016 7.016 0 0 1-1.69-.917c-.504-.378-1.06-.756-1.475-1.134a14.67 14.67 0 0 1-1.025-.97c-.126-.127-.216-.235-.288-.306l-.108-.108s.162-.09.45-.216c.37-.163.748-.308 1.133-.432.917-.27 2.086-.468 3.129-.162.756.216 1.421.648 1.979 1.133a38.59 38.59 0 0 0-1.313-1.87c-.288-.36-.576-.702-.845-1.043a4.331 4.331 0 0 1-.9.503 4.639 4.639 0 0 1-2.895.27c-.612-.126-1.188-.378-1.727-.683-.54-.288-1.097-.594-1.529-.9a12.35 12.35 0 0 1-1.079-.81c-.252-.215-.414-.341-.414-.341s.144-.108.396-.252c.328-.206.67-.386 1.025-.54.828-.36 1.925-.683 2.968-.503.81.126 1.547.486 2.176.9-.737-.756-1.439-1.511-2.14-2.213-.126-.108-.252-.234-.378-.341a4.8 4.8 0 0 1-.88.61c-.343.199-.757.36-1.224.487a4.642 4.642 0 0 1-1.6.126 5.918 5.918 0 0 1-1.763-.45c-.54-.234-1.098-.432-1.547-.683a10.033 10.033 0 0 1-1.529-.954s1.996-1.816 4.03-1.726c.898 0 1.707.34 2.427.72l-.018-.02c-.774-.664-1.565-1.204-2.266-1.78a5.324 5.324 0 0 1-4.227-.791c-2.374-1.62-4.568-5.72-4.568-5.72s4.622.558 6.996 2.14a5.344 5.344 0 0 1 2.32 3.58c.756.54 1.565 1.079 2.356 1.727-.485-.648-.953-1.385-1.295-2.158-.773-1.925-.036-4.623-.036-4.623s.81.54 1.745 1.385c.468.432.99.917 1.403 1.51.413.594.791 1.224 1.025 1.87.468 1.206.252 2.25-.054 3.005-.18.432-.396.755-.54.953l.396.342c.738.72 1.493 1.493 2.266 2.284-.395-.701-.755-1.493-.97-2.32-.235-1.061-.037-2.248.197-3.166.126-.467.27-.863.36-1.133l.18-.45s.215.163.485.468c.288.306.684.756 1.097 1.277.414.54.864 1.134 1.205 1.799.342.683.612 1.385.738 2.068.252 1.295-.126 2.285-.576 2.95-.2.308-.442.586-.719.827.288.36.575.702.881 1.06.504.649.971 1.332 1.457 2.034-.288-.756-.522-1.6-.594-2.446-.072-1.115.342-2.302.756-3.22.216-.45.413-.845.575-1.097.162-.27.27-.431.27-.431s.036.053.126.143c.072.09.18.252.306.432.252.378.575.917.917 1.547.324.63.701 1.313.935 2.068.234.756.396 1.51.414 2.212a3.938 3.938 0 0 1-.306 1.69 3.85 3.85 0 0 1-.791 1.116c-.324.306-.63.522-.828.648.486.827.972 1.654 1.439 2.5.144.287.288.593.432.899-.144-.773-.234-1.62-.18-2.428.108-1.151.738-2.302 1.313-3.166.594-.863 1.133-1.42 1.133-1.42s.036.072.108.18c.054.125.126.305.234.52.198.45.45 1.062.683 1.764.54 1.384.828 3.219.648 4.622-.09.683-.306 1.205-.612 1.637a3.82 3.82 0 0 1-1.888 1.385 42.49 42.49 0 0 1 1.367 3.758c0-.125-.018-.251-.018-.377 0-.666.09-1.367.252-2.033.629-2.302 3.309-4.262 3.309-4.262s.36 1.205.629 2.752c.162.755.198 1.636.18 2.482 0 .845-.108 1.654-.323 2.338-.468 1.349-1.349 1.96-2.069 2.248-.36.144-.701.216-.953.234.144.647.27 1.295.414 1.96.143.594.251 1.205.341 1.817.108-.72.288-1.475.63-2.176 1.025-2.23 4.119-3.76 4.119-3.76s.161 1.313.161 2.968a16.438 16.438 0 0 1-.287 2.608c-.162.863-.36 1.673-.756 2.32-.701 1.277-1.672 1.69-2.464 1.817a4.48 4.48 0 0 1-.953.036c0 .09.018.197.018.288l.036 1.186c.018.792.054 1.583.072 2.375.216-.702.503-1.403.971-2.015.756-1.043 1.943-1.816 2.986-2.32 1.043-.522 1.888-.755 1.888-.755s-.018.34-.072.917c-.072.557-.108 1.33-.305 2.194-.396 1.69-.954 3.67-1.943 4.82-.917 1.15-1.96 1.367-2.752 1.33a4.083 4.083 0 0 1-.971-.18c0 .253-.036.523-.054.775l-.324 2.32-.144.97s.054-.125.09-.197a6.381 6.381 0 0 1 1.241-1.726c.99-.918 2.339-1.475 3.49-1.817 1.151-.324 2.068-.431 2.068-.431l-.234.935c-.072.288-.162.63-.288.989-.144.378-.287.773-.467 1.187-.349.872-.758 1.72-1.223 2.536-.504.81-1.043 1.51-1.601 2.014-1.133.972-2.212.972-2.986.774a3.429 3.429 0 0 1-.917-.396c-.162.612-.324 1.24-.503 1.835a38.56 38.56 0 0 1-.666 2.032 7.672 7.672 0 0 1 1.655-1.673c1.151-.755 2.626-1.08 3.867-1.205 1.241-.126 2.194-.054 2.194-.054s-.162.36-.432.918c-.144.27-.306.61-.485.97-.198.36-.432.756-.684 1.152-.989 1.619-2.41 3.345-3.723 4.119-1.295.79-2.374.54-3.093.18a3.666 3.666 0 0 1-.828-.594 38.841 38.841 0 0 1-1.924 3.813c.072-.072.144-.162.234-.234a6.613 6.613 0 0 1 1.798-1.223c1.295-.575 2.878-.611 4.173-.504.758.063 1.509.183 2.248.36 0 0-.234.342-.629.863-.396.522-.936 1.24-1.619 1.96-.342.36-.684.738-1.061 1.098-.378.36-.774.683-1.169 1.007-.774.63-1.601 1.115-2.321 1.385-1.438.54-2.464.072-3.093-.45a3.81 3.81 0 0 1-.701-.79c-.342.503-.684.988-1.008 1.456-.557.755-1.133 1.457-1.69 2.14.126-.09.233-.18.359-.252.612-.395 1.277-.72 2.015-.88 1.421-.325 3.039-.073 4.316.287 1.277.36 2.195.79 2.195.79s-.288.307-.81.775c-.641.605-1.32 1.17-2.032 1.69-1.619 1.26-3.741 2.41-5.288 2.662-1.547.252-2.446-.431-2.95-1.097a3.266 3.266 0 0 1-.521-.971c-.612.63-1.223 1.205-1.78 1.744-.594.522-1.116 1.008-1.637 1.44.81-.36 1.69-.648 2.626-.684 1.51-.054 3.075.52 4.316 1.133a16.2 16.2 0 0 1 2.086 1.24s-.377.235-.989.63c-.306.18-.665.396-1.061.648-.414.216-.863.468-1.349.7-.953.487-2.032.9-3.057 1.224-1.044.288-2.033.45-2.824.432-1.6-.054-2.32-.881-2.662-1.673a3.838 3.838 0 0 1-.306-1.133c-.234.162-.36.27-.36.27l.036.036z"/></g><mask id="c" width="42" height="28" x="39" y="0" maskUnits="userSpaceOnUse" style="mask-type:luminance"><path fill="#fff" d="M39 0h42v28H39V0z"/></mask><g fill="#036" mask="url(#c)"><path d="M44.916 23.102c-5.687-6.069-5.466-15.682.496-21.47L43.944 0c-6.38 6.192-6.615 16.477-.532 22.97a15.76 15.76 0 0 0 22.566.537l-.04-.078c-5.961 5.79-15.333 5.741-21.024-.327h.002z"/><path d="M46.205 22.416a13.405 13.405 0 0 0 19.19.457l-.031-.066c-5.072 4.925-13.044 4.882-17.883-.278-4.836-5.162-4.648-13.338.423-18.26l-1.248-1.387c-5.426 5.267-5.626 14.013-.451 19.536v-.002z"/><path d="M48.63 21.956a11.4 11.4 0 0 0 16.318.39l-.028-.056c-4.31 4.188-11.088 4.15-15.203-.237-4.112-4.39-3.952-11.34.36-15.527l-1.062-1.178c-4.612 4.478-4.784 11.914-.385 16.608z"/><path d="M50.63 21.52a9.7 9.7 0 0 0 13.884.333l-.024-.047c-3.667 3.563-9.435 3.53-12.934-.202-3.5-3.735-3.364-9.65.305-13.21L50.96 7.39c-3.925 3.808-4.07 10.136-.328 14.13h-.002z"/><path d="M81 15.715H54.05v.305H81v-.305zm-25.43-5.61c.308 0 .557-.047.75-.14a1.46 1.46 0 0 0 .435-.296v-1.23H55.75v.343l.55.023v.75c-.07.047-.164.09-.281.13a1.478 1.478 0 0 1-.45.059c-.333 0-.594-.126-.782-.38-.19-.252-.284-.582-.284-.992V8.31c0-.403.097-.731.294-.984.196-.254.473-.38.835-.38a.975.975 0 0 1 .656.217l.11.472h.319v-.62a1.45 1.45 0 0 0-.475-.314 1.698 1.698 0 0 0-.656-.12c-.466 0-.838.16-1.117.48-.28.32-.421.738-.421 1.253v.056c0 .513.142.929.425 1.25.283.322.65.482 1.097.482v.003zm2.75-.345-.373-.066V6.388h-.83v.298l.377.066v2.942l-.377.066v.296h1.204V9.76zm1.276.346c.342 0 .613-.122.812-.363.2-.24.3-.552.3-.931V8.76c0-.377-.1-.688-.3-.932-.2-.243-.472-.364-.816-.364s-.613.12-.811.367c-.2.243-.3.554-.3.93v.052c0 .377.1.688.3.93.2.242.47.362.817.362h-.002zm-.664-1.345c0-.266.055-.49.166-.666a.545.545 0 0 1 .492-.266c.216 0 .382.089.496.266.11.177.168.4.168.666v.05c0 .27-.057.493-.168.668a.545.545 0 0 1-.49.264.556.556 0 0 1-.496-.264c-.111-.175-.166-.397-.166-.667V8.76h-.002zm2.2 1.296h.39l.04-.328c.08.124.18.218.3.28a.89.89 0 0 0 .424.095.85.85 0 0 0 .712-.338c.172-.224.26-.521.26-.888v-.05c0-.41-.086-.74-.258-.99a.823.823 0 0 0-.718-.377.88.88 0 0 0-.407.089.802.802 0 0 0-.291.26V6.383h-.828v.298l.374.066v3.304l.002.005zm.454-1.834a.75.75 0 0 1 .228-.278.583.583 0 0 1 .355-.103c.214 0 .374.09.48.276.104.184.155.422.155.715v.05c0 .255-.053.46-.156.615-.103.155-.261.233-.476.233a.608.608 0 0 1-.356-.103.712.712 0 0 1-.23-.28V8.223zm3.09.387c-.334 0-.595.066-.785.196a.64.64 0 0 0-.288.558c0 .24.067.418.203.546.136.13.332.194.59.194a.82.82 0 0 0 .422-.114c.13-.076.24-.17.328-.286.007.118.023.235.048.35h.593v-.296l-.184-.027c-.004-.031-.004-.062-.006-.095V8.314c0-.274-.087-.486-.263-.633-.174-.148-.403-.22-.686-.22-.188 0-.364.029-.524.084-.162.056-.298.13-.413.223v.494h.35l.048-.268a.554.554 0 0 1 .21-.121.947.947 0 0 1 .3-.045.54.54 0 0 1 .385.13.46.46 0 0 1 .138.354v.296h-.468l.002.002zm.468.732a.697.697 0 0 1-.268.265.787.787 0 0 1-.412.112c-.138 0-.24-.03-.306-.09-.067-.057-.101-.143-.101-.254a.399.399 0 0 1 .162-.32c.107-.088.255-.132.44-.132h.485v.419zm2.02.418-.373-.066V6.388h-.83v.298l.376.066v2.942l-.376.066v.296h1.204V9.76zm2.396 0-.375-.066V8.542h1.296v-.364h-1.296v-1.18h1.336l.038.457h.387v-.822h-2.59v.298l.374.066v2.697l-.374.066v.296h1.204V9.76zm2.695.346c.342 0 .613-.122.814-.363.2-.24.3-.552.3-.931V8.76c0-.377-.1-.688-.3-.932-.2-.243-.472-.364-.816-.364s-.613.12-.811.367c-.2.243-.3.554-.3.93v.052c0 .377.1.688.3.93.2.242.47.362.817.362h-.004zM71.59 8.76c0-.266.055-.49.166-.666a.545.545 0 0 1 .492-.266c.217 0 .383.089.496.266.11.177.168.4.168.666v.05c0 .27-.057.493-.168.668a.546.546 0 0 1-.49.264.556.556 0 0 1-.496-.264c-.111-.175-.166-.397-.166-.667V8.76h-.002zm3.252.999-.374-.066v-1.46a.56.56 0 0 1 .188-.242.507.507 0 0 1 .302-.086l.257.014.06-.43a.68.68 0 0 0-.196-.027.596.596 0 0 0-.356.11.895.895 0 0 0-.261.306l-.045-.37h-.78v.3l.374.066v1.817l-.375.066v.296h1.204v-.296l.002.002zm1.699.346c.206 0 .382-.031.528-.091.146-.06.265-.134.354-.222l-.178-.301a.95.95 0 0 1-.3.185c-.13.047-.266.07-.404.068a.57.57 0 0 1-.49-.237c-.118-.156-.178-.358-.182-.603l.006-.013h1.615v-.288c0-.344-.087-.62-.26-.828-.171-.208-.426-.311-.76-.311-.29 0-.54.12-.75.36-.21.24-.315.542-.315.905v.103c0 .377.103.68.308.918.204.237.48.355.828.355zm-.458-2.08a.49.49 0 0 1 .389-.197c.186 0 .328.062.423.184a.72.72 0 0 1 .144.457v.062h-1.15l-.004-.012a.935.935 0 0 1 .198-.493v-.002zm2.63 1.734-.221-.025.488-.64.487.64-.22.025v.297h.975V9.76l-.27-.054-.73-.935.71-.906.268-.054v-.298h-.984v.298l.225.025-.468.614-.465-.612.227-.027v-.298h-.978v.298l.267.054.713.906-.735.935-.267.054v.297h.98V9.76h-.001zM55.01 14.402l-.253-.045.229-.63h1.342l.22.63-.253.045v.297h.962v-.297l-.247-.035-1.152-3.092h-.39l-1.17 3.092-.25.035v.297h.96v-.297h.002zm.644-2.533h.014l.52 1.47h-1.063l.529-1.47zm2.285 2.83h.366l.474-1.55.097-.425.014-.002.103.428.484 1.55h.366l.627-2.213.217-.033v-.3h-.947v.3l.29.05-.306 1.268-.067.344h-.014l-.071-.344-.5-1.617h-.364l-.496 1.617-.065.31h-.014l-.053-.31-.325-1.267.285-.051v-.3h-.947v.3l.218.033.628 2.213zm4.08-1.446c-.334 0-.595.066-.785.196a.64.64 0 0 0-.288.558c0 .24.067.418.203.546.135.13.332.193.59.193a.83.83 0 0 0 .422-.113c.13-.076.24-.17.327-.286.007.118.024.235.049.35h.593V14.4l-.184-.027c-.004-.03-.004-.061-.006-.094v-1.323c0-.274-.087-.486-.263-.632-.174-.148-.403-.22-.686-.22-.19 0-.365.028-.525.084-.15.05-.289.125-.412.222v.495h.35l.048-.268a.555.555 0 0 1 .21-.122.949.949 0 0 1 .3-.045.54.54 0 0 1 .385.13.462.462 0 0 1 .137.354v.297h-.467l.002.002zm.467.73a.786.786 0 0 1-.68.377c-.137 0-.238-.028-.305-.087-.067-.058-.101-.145-.101-.256 0-.125.054-.233.162-.32.107-.088.255-.131.44-.131h.484v.418zm2.084.419-.373-.066v-1.46a.561.561 0 0 1 .188-.241.508.508 0 0 1 .3-.087l.258.015.06-.43a.695.695 0 0 0-.195-.027.596.596 0 0 0-.357.11.894.894 0 0 0-.26.306l-.045-.37h-.781v.3l.374.065v1.817l-.374.066v.297h1.204V14.4v.002zm2.217-3.372h-.375v.299l.375.066v1.038a.8.8 0 0 0-.29-.241.875.875 0 0 0-.39-.084.815.815 0 0 0-.717.377c-.172.25-.257.58-.257.99v.05c0 .367.085.663.257.888a.848.848 0 0 0 .713.337.794.794 0 0 0 .706-.352l.036.303h.77v-.297l-.375-.066v-3.306h-.453v-.002zm0 2.983a.698.698 0 0 1-.23.266.597.597 0 0 1-.34.095c-.214 0-.373-.08-.474-.233-.104-.155-.154-.36-.154-.616v-.05c0-.292.052-.531.156-.714a.514.514 0 0 1 .48-.276c.129 0 .242.03.335.094.093.062.17.147.229.254v1.18h-.002zm1.33-.688c.153.115.38.208.684.276.212.05.356.105.43.17.078.067.114.15.114.252 0 .11-.046.196-.138.262a.633.633 0 0 1-.378.1c-.093 0-.185-.01-.275-.032a.494.494 0 0 1-.213-.105l-.085-.342h-.34v.58c.12.085.255.15.405.194.15.046.32.068.508.068.29 0 .522-.07.7-.21a.664.664 0 0 0 .267-.548.57.57 0 0 0-.23-.476c-.154-.117-.387-.212-.703-.28-.212-.045-.352-.096-.42-.154a.294.294 0 0 1-.104-.237c0-.1.039-.19.118-.262.079-.072.198-.11.358-.11.105 0 .2.018.283.049a.624.624 0 0 1 .209.127l.072.305h.34l-.022-.562a1.087 1.087 0 0 0-.374-.21 1.62 1.62 0 0 0-.508-.076c-.275 0-.5.072-.674.218a.671.671 0 0 0-.26.53c0 .207.078.354.23.469l.006.004zm3.169-.933v-.103c0-.228.065-.416.194-.556.128-.138.312-.208.55-.208.225 0 .395.06.509.175.113.115.17.284.17.499 0 .13-.043.278-.13.436-.125.216-.27.42-.435.608l-1.101 1.296v.265h2.165v-.881h-.323v.55h-1.36l.807-.964c.186-.216.356-.446.508-.688.128-.21.192-.418.192-.624 0-.314-.093-.563-.28-.74-.181-.175-.426-.264-.723-.264-.322 0-.583.107-.778.318a1.06 1.06 0 0 0-.28.766l.033.113h.28l.002.002zm3.27 2.459c.35 0 .626-.133.818-.397.186-.256.28-.616.28-1.075v-.71c0-.456-.094-.817-.282-1.072-.195-.266-.47-.4-.82-.4s-.625.134-.818.4c-.186.255-.28.618-.28 1.073v.709c0 .457.094.818.283 1.075.194.266.47.4.82.4v-.002l-.001-.001zm-.781-2.183c0-.367.069-.655.206-.857.132-.194.318-.286.569-.286.25 0 .44.092.57.286.138.202.21.49.21.857v.705c0 .364-.07.655-.207.859a.637.637 0 0 1-.567.288c-.25 0-.44-.095-.57-.29-.138-.207-.21-.495-.21-.857l-.001-.705zm2.33-1.155c-.191.21-.286.467-.278.766l.032.113h.28v-.103c0-.228.065-.416.194-.556.128-.138.312-.208.55-.208.225 0 .395.06.508.175.114.115.17.284.17.499a.939.939 0 0 1-.127.436c-.125.216-.27.42-.435.608l-1.101 1.296v.265h2.165v-.881h-.323v.55h-1.36l.807-.964c.186-.217.356-.447.508-.688.128-.21.192-.418.192-.624 0-.314-.093-.563-.28-.74-.181-.175-.426-.264-.723-.264-.322 0-.583.107-.778.318v.002zm4.063 1.233a.859.859 0 0 0 .186-.54c0-.306-.095-.555-.283-.74-.186-.18-.437-.273-.745-.273-.307 0-.552.093-.757.278a.92.92 0 0 0-.301.74l.032.113h.28v-.103c0-.214.066-.38.206-.507.148-.13.34-.2.538-.193.235 0 .413.062.529.187.12.133.183.307.176.486a.563.563 0 0 1-.203.44c-.137.12-.334.182-.583.182h-.352v.336h.352c.272 0 .488.058.642.17.146.104.216.267.216.496 0 .228-.062.393-.192.515-.13.123-.32.185-.563.185a.862.862 0 0 1-.603-.216.69.69 0 0 1-.232-.538v-.103h-.277l-.033.113c-.008.342.11.61.348.8.23.18.5.274.8.274.3 0 .572-.093.773-.276.202-.186.305-.443.305-.765a.913.913 0 0 0-.202-.601.94.94 0 0 0-.308-.237.992.992 0 0 0 .253-.227l-.002.004zm-23.472 5.227c0-.554-.368-1.022-1.255-1.022H54.23v3.37h.623v-1.314h.529l.758 1.314h.73l-.867-1.41c.46-.16.692-.487.692-.94v.002zm-1.22.525h-.622v-1.011h.636c.348 0 .556.163.556.49 0 .404-.26.52-.57.52zm3.912.568c0-.785-.425-1.353-1.17-1.353-.745 0-1.202.558-1.202 1.333 0 .774.458 1.343 1.24 1.343.519 0 .887-.217 1.114-.594l-.49-.255a.637.637 0 0 1-.593.356c-.397 0-.631-.24-.65-.708h1.755v-.126l-.004.004zm-1.75-.294c.034-.385.246-.587.576-.587.33 0 .528.193.557.587h-1.132zm2.244-1.627v.665h-.34v.453h.34v1.4c0 .44.194.728.754.728.203 0 .377-.033.518-.082v-.482a1.474 1.474 0 0 1-.372.057c-.227 0-.297-.1-.297-.313v-1.31h.617v-.453h-.617v-.665h-.603v.002zm2.457 1.608c-.731.09-1.014.39-1.014.857 0 .468.305.78.84.78.263 0 .552-.082.74-.331.014.09.039.183.07.266h.61a1.446 1.446 0 0 1-.085-.554v-1.257c0-.5-.277-.8-1.018-.8-.635 0-1.042.26-1.056.819h.595c.004-.266.137-.367.447-.367.34 0 .43.097.43.39v.125l-.557.072h-.002zm.556.616c0 .317-.27.53-.575.53-.263 0-.376-.14-.376-.343 0-.24.16-.352.552-.403l.4-.058v.274h-.001zm1.433-1.992a.366.366 0 0 0 .388-.367.366.366 0 0 0-.387-.368.368.368 0 0 0-.001.735zm.302.408h-.604v2.538h.603v-2.538zm1.153-.832h-.603v3.37h.603v-3.37z"/></g></g><defs><clipPath id="a"><path fill="#fff" d="M0 0h120v98H0z"/></clipPath></defs></svg>