<svg xmlns="http://www.w3.org/2000/svg" width="122" height="103" fill="none"><g fill="#036" clip-path="url(#a)"><path d="M27.72 99.528c-.05.38-.149.753-.295 1.109-.35.775-1.048 1.584-2.585 1.637-.768.018-1.73-.14-2.741-.422-.978-.317-2.043-.722-2.97-1.197a22.749 22.749 0 0 1-1.31-.687c-.383-.23-.732-.44-1.03-.634-.592-.37-.96-.616-.96-.616s.82-.616 2.026-1.215c1.205-.598 2.724-1.161 4.19-1.11.909.037 1.765.318 2.55.67-.49-.422-1.012-.897-1.59-1.408a75.418 75.418 0 0 1-1.727-1.708 3.41 3.41 0 0 1-.506.95c-.49.652-1.362 1.304-2.864 1.075-1.485-.23-3.545-1.373-5.134-2.605-.82-.6-1.484-1.215-1.973-1.655-.266-.248-.528-.5-.786-.757 0 0 .89-.44 2.13-.775 1.258-.352 2.812-.598 4.19-.282.717.159 1.38.493 1.957.863.122.07.244.159.35.247-.542-.67-1.1-1.356-1.642-2.095a29.46 29.46 0 0 1-.978-1.426c-.14.229-.367.51-.681.774-.611.51-1.59.969-3.004.44-.698-.264-1.501-.74-2.252-1.355-.384-.3-.77-.634-1.135-.986-.35-.352-.7-.722-1.03-1.074-.664-.704-1.188-1.408-1.572-1.92-.384-.51-.611-.844-.611-.844s.925-.246 2.182-.352c1.258-.105 2.777-.052 4.052.493.663.3 1.24.722 1.746 1.197.087.07.14.14.227.23a68.005 68.005 0 0 1-.873-1.62 39.106 39.106 0 0 1-.996-2.113c-.244.225-.513.42-.803.58-.698.37-1.746.6-3.003-.175-1.275-.757-2.672-2.447-3.615-4.031a20.913 20.913 0 0 1-.664-1.127c-.174-.352-.35-.687-.471-.95-.262-.546-.42-.898-.42-.898s.926-.07 2.13.052c1.206.124 2.638.44 3.756 1.18.646.44 1.17 1.02 1.606 1.637-.227-.651-.436-1.32-.646-1.99a65.513 65.513 0 0 1-.49-1.795 3.934 3.934 0 0 1-.89.387c-.75.212-1.8.212-2.9-.756-.54-.493-1.081-1.18-1.552-1.972a29.244 29.244 0 0 1-1.188-2.482c-.174-.405-.314-.81-.454-1.162-.122-.37-.21-.704-.28-.968l-.226-.916s.89.088 2.008.423c1.118.317 2.41.88 3.388 1.778a5.96 5.96 0 0 1 1.205 1.69c.034.07.052.123.087.193l-.14-.95-.314-2.271-.053-.757c-.227.07-.558.158-.943.176-.768.035-1.78-.176-2.671-1.303-.96-1.127-1.502-3.063-1.886-4.718-.21-.827-.227-1.584-.297-2.148-.035-.545-.07-.897-.07-.897s.838.246 1.834.74c1.012.51 2.165 1.249 2.898 2.27.454.616.734 1.303.943 1.972.018-.775.053-1.55.07-2.324l.035-1.162c0-.088 0-.194.018-.282a4.32 4.32 0 0 1-.926-.035c-.768-.123-1.694-.546-2.392-1.778-.367-.634-.576-1.426-.734-2.27a16.3 16.3 0 0 1-.28-2.553c0-1.602.158-2.905.158-2.905s3.004 1.496 3.999 3.68c.332.686.506 1.425.61 2.13.088-.6.193-1.198.333-1.78.14-.632.262-1.266.402-1.918a4.108 4.108 0 0 1-.926-.228c-.716-.282-1.554-.88-2.008-2.2-.21-.67-.297-1.462-.314-2.29 0-.827.017-1.69.174-2.43.262-1.513.61-2.692.61-2.692s2.603 1.919 3.214 4.172c.158.65.227 1.338.245 1.99 0 .122 0 .246-.018.369.387-1.246.83-2.474 1.328-3.68a3.69 3.69 0 0 1-.891-.44 3.543 3.543 0 0 1-.943-.915 3.3 3.3 0 0 1-.594-1.602c-.174-1.355.105-3.17.629-4.524.244-.687.489-1.303.664-1.725.087-.212.174-.388.227-.51a1.79 1.79 0 0 0 .104-.177s.524.546 1.1 1.39c.56.846 1.17 1.973 1.275 3.1.053.79-.035 1.619-.175 2.376.14-.3.28-.581.42-.88.454-.846.925-1.655 1.397-2.447a3.52 3.52 0 0 1-.804-.634 4.133 4.133 0 0 1-.768-1.092c-.21-.457-.314-1.003-.297-1.654 0-.687.175-1.426.402-2.166.21-.74.576-1.408.908-2.024.332-.616.646-1.127.89-1.514.123-.194.227-.335.297-.423.07-.088.122-.14.122-.14s.105.158.262.422c.158.264.35.634.56 1.074.4.898.803 2.06.733 3.15-.07.828-.297 1.638-.577 2.395.472-.686.926-1.355 1.415-1.99.297-.351.576-.703.855-1.038a4.477 4.477 0 0 1-.698-.81c-.437-.65-.803-1.62-.56-2.887.123-.67.385-1.355.717-2.024.332-.651.768-1.232 1.17-1.76.402-.511.786-.951 1.065-1.25.142-.168.3-.321.472-.458 0 0 .07.158.174.44.105.264.227.65.35 1.11.244.914.436 2.076.192 3.097-.21.81-.56 1.585-.943 2.27.724-.753 1.458-1.498 2.2-2.234.14-.106.262-.23.384-.335-.14-.194-.35-.51-.524-.933a3.82 3.82 0 0 1-.052-2.94c.227-.634.576-1.25.995-1.83.402-.582.926-1.04 1.362-1.48.908-.827 1.694-1.355 1.694-1.355s.733 2.64-.035 4.524c-.335.75-.757 1.46-1.257 2.113.768-.634 1.572-1.162 2.287-1.69a5.237 5.237 0 0 1 2.254-3.503c2.287-1.514 6.774-2.06 6.774-2.06s-2.13 3.996-4.453 5.598c-1.64 1.127-3.265.968-4.103.775-.681.563-1.45 1.09-2.2 1.742l-.018.018c.699-.37 1.502-.686 2.358-.704 1.973-.088 3.91 1.69 3.91 1.69s-.593.458-1.483.933c-.437.246-.978.44-1.502.669-.541.21-1.117.387-1.711.44a4.471 4.471 0 0 1-1.554-.123 4.66 4.66 0 0 1-1.188-.476 4.655 4.655 0 0 1-.855-.598c-.123.105-.245.229-.367.334-.681.687-1.362 1.426-2.078 2.166.61-.423 1.327-.757 2.113-.88 1.013-.177 2.078.14 2.88.492.403.176.752.37.996.528.245.159.385.247.385.247s-.158.123-.402.334c-.245.212-.611.493-1.048.793-.436.299-.96.598-1.484.88-.524.3-1.1.528-1.676.669-1.135.264-2.113.017-2.812-.264a4.18 4.18 0 0 1-.873-.493c-.28.334-.541.686-.82 1.02a37.421 37.421 0 0 0-1.275 1.832c.54-.476 1.17-.898 1.92-1.11 1.013-.3 2.148-.123 3.039.16.436.14.82.298 1.1.422.28.123.437.21.437.21l-.105.106c-.07.07-.175.159-.28.3-.244.246-.576.598-.995.95-.402.37-.943.722-1.432 1.11a6.792 6.792 0 0 1-1.641.897 4 4 0 0 1-1.572.264c-.471 0-.89-.088-1.257-.211a3.958 3.958 0 0 1-.89-.405 95.14 95.14 0 0 0-1.345 2.394c-.123.247-.245.51-.367.775.472-.546 1.03-1.04 1.729-1.338.995-.44 2.2-.405 3.16-.247a9.181 9.181 0 0 1 1.66.44s-.036.036-.105.124c-.053.088-.14.194-.262.352-.227.282-.542.686-.926 1.109-.82.827-1.764 1.9-2.881 2.482-.475.249-.99.415-1.52.493a4.264 4.264 0 0 1-1.274-.053 4.683 4.683 0 0 1-.926-.317 43.066 43.066 0 0 0-1.222 3.486c.052-.07.087-.14.122-.211.35-.51.786-1.004 1.362-1.338 1.939-1.197 4.994-.458 4.994-.458s-.436.828-1.135 1.813c-.384.493-.733 1.057-1.17 1.567-.436.528-.908 1.004-1.431 1.373a3.76 3.76 0 0 1-2.707.792c-.402-.035-.733-.14-.96-.21-.123.615-.245 1.249-.367 1.865-.14.58-.227 1.18-.314 1.76.296-.65.698-1.267 1.24-1.742 1.833-1.514 5.098-1.18 5.098-1.18s-.35.916-.96 2.025c-.28.563-.576 1.197-.96 1.795-.362.577-.777 1.12-1.24 1.62-.856.88-1.834 1.144-2.62 1.162-.384 0-.716-.053-.96-.106 0 .088-.018.194-.018.282L9.51 58.95l-.053 2.253v.088c.21-.687.524-1.373.978-1.937.786-.915 2.096-1.408 3.143-1.672 1.065-.264 1.92-.3 1.92-.3s-.07.247-.191.652c-.105.405-.35.968-.524 1.585-.367 1.25-1.013 2.78-1.73 3.82-.732 1.02-1.693 1.408-2.461 1.514a3.468 3.468 0 0 1-.96 0c0 .246.035.492.052.739.105.74.21 1.46.314 2.2l.123.898s0-.123.035-.193c.122-.652.33-1.303.68-1.867.63-1.038 1.904-1.76 2.952-2.2a11.28 11.28 0 0 1 1.92-.616s-.034.264-.104.704c-.035.21-.088.475-.14.775-.035.28-.087.616-.14.95a15.833 15.833 0 0 1-.49 2.166c-.173.72-.4 1.443-.715 2.024-.593 1.144-1.484 1.655-2.235 1.866a3.323 3.323 0 0 1-.96.106l.47 1.742c.193.67.42 1.32.647 1.972-.034-.74.07-1.514.385-2.218.506-1.162 1.676-2.095 2.689-2.693a12.13 12.13 0 0 1 1.868-.933v.739c0 .458-.017 1.109-.035 1.813-.07 1.426-.122 3.187-.54 4.436-.438 1.268-1.223 1.884-1.992 2.183a3.43 3.43 0 0 1-.943.23 47.646 47.646 0 0 0 1.782 3.538c0-.07-.035-.16-.053-.23-.105-.668-.105-1.372.07-2.041.35-1.285 1.38-2.412 2.305-3.187a13.313 13.313 0 0 1 1.764-1.25s.052.282.122.757c.07.476.157 1.145.244 1.866.053.37.088.757.123 1.162.052.388.087.793.104 1.197.035.81.053 1.585-.07 2.254-.244 1.338-.942 2.077-1.658 2.482-.35.194-.681.3-.943.37.314.475.628.933.943 1.373.506.704 1.03 1.355 1.536 1.989a2.529 2.529 0 0 1-.14-.317 5.084 5.084 0 0 1-.28-2.042c.14-1.355 1.014-2.676 1.835-3.626.82-.951 1.606-1.585 1.606-1.585s.088.282.245.757c.14.475.349 1.144.558 1.866.402 1.479.96 3.275.944 4.648 0 1.39-.612 2.235-1.275 2.728-.332.264-.681.405-.943.51.544.56 1.097 1.113 1.659 1.656.559.492 1.065.968 1.536 1.373-.454-.704-.82-1.532-.873-2.394-.104-1.391.576-2.905 1.24-4.014.405-.662.86-1.292 1.362-1.884 0 0 .14.282.384.74.105.228.245.51.402.81.157.299.314.65.489.985.332.74.733 1.496 1.048 2.306.33.775.628 1.532.733 2.218.227 1.39-.262 2.36-.856 2.94a3.59 3.59 0 0 1-.925.652c.227.158.35.264.35.264h.034c.332.264.402.74.157 1.056a.726.726 0 0 1-1.03.158s-.122-.088-.35-.264l.07-.07h-.001zm68.209.264a.727.727 0 0 1-1.03-.158.74.74 0 0 1 .156-1.04h.035s.123-.122.35-.281a3.917 3.917 0 0 1-.926-.651c-.593-.58-1.082-1.55-.855-2.94.104-.686.4-1.461.733-2.218.314-.81.716-1.567 1.048-2.306.174-.352.349-.687.489-.986.14-.3.279-.58.4-.81.228-.457.385-.74.385-.74s.68.775 1.362 1.884c.664 1.11 1.345 2.606 1.24 4.014-.052.88-.401 1.69-.873 2.394.472-.404.978-.88 1.537-1.373a72.478 72.478 0 0 0 1.659-1.654 3.358 3.358 0 0 1-.943-.511c-.664-.493-1.257-1.338-1.275-2.73 0-1.372.54-3.15.943-4.646.227-.722.42-1.39.559-1.866.157-.476.244-.757.244-.757s.786.634 1.607 1.584c.82.95 1.694 2.27 1.833 3.627.07.686-.052 1.39-.279 2.042-.035.105-.105.21-.14.317.507-.634 1.03-1.285 1.537-1.99.314-.44.629-.897.943-1.373a2.946 2.946 0 0 1-.943-.37c-.716-.404-1.415-1.126-1.659-2.482-.122-.67-.087-1.443-.07-2.253.018-.405.07-.81.105-1.197.035-.405.07-.792.122-1.162.105-.722.192-1.39.245-1.866.069-.458.122-.757.122-.757s.838.475 1.764 1.25c.925.775 1.973 1.9 2.305 3.186.174.67.174 1.374.069 2.042 0 .07-.035.159-.052.23a47.717 47.717 0 0 0 1.781-3.54 3.811 3.811 0 0 1-.943-.228c-.751-.3-1.537-.915-1.991-2.183-.419-1.267-.488-3.01-.541-4.436 0-.704-.017-1.338-.035-1.813v-.74s.873.317 1.869.933c.995.599 2.182 1.532 2.689 2.694.314.704.401 1.478.384 2.218.226-.654.441-1.312.646-1.972.175-.58.332-1.162.472-1.743-.245 0-.594 0-.961-.105-.768-.194-1.659-.704-2.235-1.866-.314-.581-.541-1.285-.716-2.025a23.573 23.573 0 0 1-.489-2.165c-.052-.334-.105-.651-.14-.95-.034-.282-.104-.546-.139-.775-.07-.44-.105-.704-.105-.704s.873.176 1.921.616 2.322 1.144 2.951 2.2c.349.564.559 1.215.681 1.866 0 .07.017.123.035.194l.122-.898c.105-.722.21-1.461.314-2.2.035-.247.035-.493.053-.74a3.476 3.476 0 0 1-.961 0c-.768-.105-1.728-.493-2.462-1.514-.698-1.038-1.362-2.57-1.729-3.82-.174-.634-.419-1.18-.523-1.584a37.38 37.38 0 0 1-.192-.652s.855.036 1.92.3c1.048.264 2.358.757 3.144 1.672.454.563.768 1.25.977 1.937v-.09l-.052-2.252-.035-1.126c0-.088 0-.194-.017-.282a4.57 4.57 0 0 1-.961.105c-.768 0-1.763-.264-2.619-1.161-.463-.5-.878-1.043-1.24-1.62-.384-.6-.681-1.232-.96-1.795-.612-1.127-.961-2.025-.961-2.025s3.266-.334 5.099 1.18c.542.475.943 1.108 1.24 1.742a19.797 19.797 0 0 0-.314-1.76c-.123-.616-.245-1.25-.367-1.866a3.586 3.586 0 0 1-.96.21 3.74 3.74 0 0 1-2.707-.791c-.524-.37-1.013-.863-1.432-1.373-.437-.528-.786-1.092-1.17-1.567a14.935 14.935 0 0 1-1.135-1.813s3.056-.757 4.994.457c.576.335.996.828 1.362 1.338.053.07.088.14.123.212a39.398 39.398 0 0 0-1.223-3.486 4.32 4.32 0 0 1-.925.317c-.367.07-.804.123-1.275.053a4.463 4.463 0 0 1-1.519-.493c-1.118-.563-2.043-1.637-2.882-2.482-.33-.352-.639-.722-.925-1.11-.105-.14-.192-.264-.262-.352a.864.864 0 0 1-.105-.123s.716-.281 1.659-.44c.943-.158 2.148-.211 3.161.247.698.299 1.275.792 1.729 1.337-.123-.264-.245-.528-.367-.774a62.36 62.36 0 0 0-1.345-2.394 4.36 4.36 0 0 1-.89.405 3.93 3.93 0 0 1-1.258.21c-.471 0-1.012-.07-1.571-.263a6.808 6.808 0 0 1-1.642-.898c-.489-.37-1.03-.74-1.432-1.11-.419-.37-.768-.703-.995-.95-.122-.123-.21-.23-.28-.3l-.104-.104s.157-.088.437-.212c.279-.123.663-.281 1.1-.422.89-.264 2.025-.458 3.038-.16.733.213 1.38.635 1.921 1.11a37.478 37.478 0 0 0-1.275-1.83c-.279-.352-.559-.687-.821-1.021-.192.14-.488.334-.873.492a4.47 4.47 0 0 1-2.811.264c-.594-.123-1.153-.37-1.676-.668-.524-.282-1.066-.581-1.485-.88-.436-.3-.803-.582-1.047-.793-.245-.211-.402-.334-.402-.334s.14-.106.384-.247c.245-.158.594-.352.995-.528.804-.352 1.869-.67 2.882-.493.785.123 1.501.476 2.113.88-.716-.74-1.397-1.478-2.078-2.165-.123-.105-.245-.23-.367-.334a4.64 4.64 0 0 1-.856.598 4.92 4.92 0 0 1-1.187.475c-.472.124-.996.176-1.554.124a5.709 5.709 0 0 1-1.712-.44c-.523-.23-1.065-.423-1.501-.67a9.725 9.725 0 0 1-1.485-.932s1.939-1.778 3.912-1.69c.873 0 1.659.334 2.357.704l-.017-.018c-.751-.651-1.52-1.18-2.2-1.743a5.132 5.132 0 0 1-4.104-.774c-2.305-1.585-4.435-5.598-4.435-5.598s4.487.545 6.792 2.095a5.235 5.235 0 0 1 2.253 3.503c.733.528 1.52 1.056 2.288 1.69-.472-.634-.926-1.356-1.258-2.113-.75-1.883-.035-4.524-.035-4.524s.786.528 1.694 1.356c.454.422.96.897 1.362 1.478.402.58.769 1.197.996 1.83.454 1.18.244 2.2-.053 2.94a4.55 4.55 0 0 1-.524.934l.384.335c.716.704 1.45 1.46 2.201 2.235-.384-.686-.734-1.46-.943-2.27-.227-1.04-.035-2.201.192-3.1.122-.457.262-.844.349-1.11l.175-.44s.209.16.471.46c.28.299.664.739 1.065 1.25.402.528.839 1.108 1.17 1.76.332.669.594 1.355.716 2.024.245 1.268-.122 2.236-.559 2.887-.244.37-.506.652-.698.81.279.352.559.687.856 1.039.489.633.943 1.303 1.414 1.989-.279-.74-.506-1.567-.576-2.394-.07-1.092.332-2.253.733-3.151.21-.44.402-.828.559-1.074.157-.264.262-.423.262-.423s.035.053.122.14c.07.089.175.248.297.424.245.37.559.898.891 1.514.314.616.681 1.285.908 2.024.227.74.384 1.479.401 2.165a3.879 3.879 0 0 1-.297 1.655c-.209.458-.488.81-.768 1.092-.314.299-.611.51-.803.633.471.81.943 1.62 1.397 2.447.14.282.279.58.419.88-.14-.756-.227-1.584-.175-2.376.105-1.127.716-2.253 1.275-3.098.576-.845 1.1-1.391 1.1-1.391s.035.07.105.176c.052.123.122.3.227.51.192.44.436 1.04.663 1.726.524 1.355.804 3.15.629 4.524-.087.669-.297 1.18-.594 1.602a3.801 3.801 0 0 1-.943.915c-.349.23-.663.37-.89.44.5 1.205.942 2.433 1.327 3.68 0-.123-.017-.247-.017-.37 0-.651.087-1.338.244-1.99.611-2.253 3.213-4.171 3.213-4.171s.349 1.18.611 2.693c.157.74.192 1.602.175 2.43 0 .827-.105 1.619-.314 2.288-.454 1.32-1.31 1.919-2.009 2.2-.295.122-.607.2-.925.23.14.633.262 1.267.402 1.918.139.58.244 1.18.331 1.778.105-.704.28-1.443.611-2.13.996-2.183 3.999-3.68 3.999-3.68s.157 1.286.157 2.905c-.026.857-.119 1.71-.279 2.553-.157.845-.349 1.637-.733 2.27-.681 1.25-1.624 1.656-2.393 1.779a4.316 4.316 0 0 1-.925.035c0 .088.017.194.017.282l.035 1.162c.018.774.053 1.549.07 2.323.21-.686.489-1.373.943-1.971.733-1.021 1.886-1.778 2.899-2.271 1.013-.51 1.833-.74 1.833-.74s-.017.335-.07.898c-.069.546-.104 1.303-.296 2.148-.385 1.655-.926 3.59-1.886 4.718-.891 1.127-1.904 1.338-2.672 1.303a3.93 3.93 0 0 1-.943-.176c0 .246-.035.51-.052.757l-.315 2.27-.139.95s.052-.122.087-.193a6.206 6.206 0 0 1 1.205-1.69c.96-.897 2.27-1.443 3.387-1.778.659-.188 1.33-.33 2.009-.422l-.227.915c-.07.282-.158.617-.28.969-.139.37-.279.757-.454 1.16a20.183 20.183 0 0 1-1.187 2.484c-.489.792-1.013 1.479-1.554 1.97-1.1.952-2.148.952-2.899.758a3.292 3.292 0 0 1-.891-.387c-.157.599-.314 1.215-.489 1.796a37.516 37.516 0 0 1-.646 1.989 7.469 7.469 0 0 1 1.607-1.637c1.117-.74 2.549-1.056 3.754-1.18 1.205-.123 2.131-.053 2.131-.053s-.158.352-.42.898c-.139.264-.296.599-.471.95a20.56 20.56 0 0 1-.664 1.128c-.96 1.584-2.339 3.274-3.614 4.03-1.258.775-2.305.529-3.004.177a3.532 3.532 0 0 1-.803-.581 39.101 39.101 0 0 1-.995 2.112 49.772 49.772 0 0 1-.873 1.62c.069-.07.139-.158.227-.23a6.421 6.421 0 0 1 1.746-1.196c1.257-.563 2.794-.598 4.051-.493 1.24.106 2.183.352 2.183.352s-.227.335-.611.845c-.385.51-.908 1.215-1.572 1.92-.332.35-.664.72-1.03 1.073-.367.352-.751.669-1.135.986-.751.616-1.554 1.09-2.253 1.355-1.397.529-2.392.07-3.003-.44a3.708 3.708 0 0 1-.681-.774c-.332.493-.664.968-.978 1.426-.542.739-1.1 1.425-1.642 2.094.122-.088.227-.176.349-.246.594-.387 1.24-.704 1.956-.863 1.38-.317 2.951-.07 4.191.282.729.205 1.441.464 2.131.775 0 0-.28.299-.786.757a20.37 20.37 0 0 1-1.973 1.654c-1.572 1.233-3.633 2.36-5.134 2.606-1.502.246-2.375-.423-2.864-1.074a3.186 3.186 0 0 1-.507-.95c-.593.615-1.187 1.179-1.728 1.707-.576.51-1.083.986-1.59 1.408.786-.352 1.642-.634 2.55-.67 1.467-.051 2.986.51 4.191 1.11.705.354 1.382.76 2.026 1.215 0 0-.367.229-.961.616-.297.176-.646.387-1.03.634-.402.211-.838.458-1.31.686-.925.476-1.973.88-2.968 1.198-1.013.281-1.974.44-2.742.422-1.554-.053-2.252-.863-2.584-1.637a3.785 3.785 0 0 1-.297-1.11c-.227.16-.35.265-.35.265l.036.035zm-33.353-78.04.035.036v-.07.035h-.035z"/><path d="M62.716 23.55v-.036h.017v-.018c.035-.123.07-.246.088-.37v-.616s-.018-.105-.035-.158v.106s-.035.035-.053.035h-.07s-.017 0-.017-.018c0 0 0-.017.035-.017h.035v-.176a.862.862 0 0 0-.07-.194v.088c-.017 0-.035.035-.035.053v.017l.035.053v.07s-.017.036-.035.036v-.018c0-.035 0-.053-.035-.07h-.07v-.035l-.017.035s0 .017-.035 0c0 0 0 .017.017.017h.018c.035 0 .052.036.035.07v.036s.017.018 0 .053c0 0 0 .017-.018.035-.035.053-.07.088-.14.088l-.034-.035-.035.035v.018c0 .017.017.053.035.053l.017.017v.053c0 .035 0 .088-.035.106l-.052.052v-.07s-.018 0-.018-.018v.018c0 .018 0 .053-.017.07v.018c.017 0 .035.035.052.053v.104c-.017 0-.052-.035-.07-.052v-.088s-.017-.018-.017-.036v-.21c0-.018-.017-.036-.035-.018h-.035V22.6s0-.018-.017-.036v-.017l-.07.035v.035h-.018s0 .035-.017.053c0 0-.018.018-.035.018-.018 0-.035.035-.035.052 0 .053 0 .088-.017.124 0 0-.018.035-.035.052 0-.017 0-.035-.018-.052V22.6h-.07v-.036c-.035 0-.052-.035-.07-.053-.034-.035-.07-.052-.104-.052h-.105c-.018 0-.053 0-.053-.036 0 0-.017-.017-.034-.017h-.053c-.035 0-.052-.035-.087-.053v-.018h-.017s-.018 0-.018.018 0 .035.035.053c0 0 0 .035.017.053h.09v.035l.034.035c.017.018 0 .053 0 .088a.134.134 0 0 1-.035.07s-.018.018-.035.018h-.018c-.017.053-.07.053-.122.07h-.035c-.017 0 0 .018-.052.018h-.035v-.14l-.018-.018v-.018l-.017-.017c0-.036-.035-.089-.053-.124l-.017-.017v.017s0 .035.017.053v.123s.018.036.018.053v.07c.017 0 .035.035.035.052 0 0 0 .036.017.036.018.017.053.035.07.07.035.053 0 .106.087.106h.088v.14l-.018.018v.018l-.017.017s-.017.035-.035.035h-.018l-.052.053s-.035.035-.052.035v.282a.16.16 0 0 1-.053.123h-.017v.106s0 .018-.035.018v.035h-.227v-.142c0-.018 0-.053-.035-.07-.017-.036-.052-.088-.052-.14 0-.036.052-.07.035-.124v-.036s.017 0 0-.035c0-.018-.018-.035-.035-.053v-.088c0-.035 0-.105-.018-.105-.017-.018-.035-.018-.035 0h-.017s-.018-.018-.018-.036c0-.017-.035-.017-.052 0h-.07s-.017.018-.035.018c0 0-.017-.018-.035-.018-.035 0-.052 0-.07.018a.502.502 0 0 1-.122-.14v-.018l-.035-.036v-.017c0-.018 0-.035-.017-.07v-.177c0-.088.017-.158.07-.193h.017v-.053c0-.035.035-.088.07-.106.017-.017 0-.035.052-.053h.297v.036l.018.017s.017 0 0 .035c.017 0 .035 0 .052.036l.035.035c.017 0 .035 0 .052-.018 0 0 0-.017.018-.035 0 0 .017-.018.035 0h.017v.02s0-.019.018 0h.156c0-.037 0-.054.017-.089 0-.036 0-.088-.052-.088h-.105v-.072h-.017s-.035 0-.035.018v.035s0 .035.017.035c0 0 0 .018-.017.035 0 0-.018.018-.035 0 0 0-.035 0-.035-.035v-.053s-.018-.017-.018-.035v-.07h-.017v.017s.017 0 .035.036c0 0 0 .017.035.017h.035v.018h-.018v.035s0-.018-.017-.035a.133.133 0 0 1-.07-.035v-.018l-.017-.018c0-.017 0-.035-.018-.035h-.122s0 .035-.018.035c0 0-.035.018-.052.036v.035s0 .017-.017.035a.133.133 0 0 1-.07.035h-.07v-.088c0-.035.017-.053.052-.053h.053s.017 0 .017-.017v-.087h-.017v-.018h.017l.035-.035h.035v-.018h.017v-.052c0-.018 0-.036.018-.053h.035v.07h.174s.035-.017.035-.035v-.035c0-.018.018-.035.053-.035 0 0 .017 0 .017-.018s0-.053.035-.053.052 0 .087-.018h-.122s-.035-.017-.035-.035v-.07s.035 0 .035-.018c-.035 0-.035.035-.052.053 0 .018-.035.035-.053.035v.035c0 .018.018.036.035.053 0 .018 0 0-.017.018v.053s0 .017-.018.035h-.052c0-.035 0-.053-.017-.07 0 0-.018.017-.035.017v-.106c.035-.035.07-.088.104-.123 0 0 .035-.035.053-.035h.035c.017 0 .035 0 .07-.018h.087s.017.018 0 .036h.017c.053 0 .122.052.175.07 0 .018-.035.035-.07.035h-.07c.018 0 .035.053.053.07h.017s0-.035.017-.017h.053v-.018s.017-.017.052-.035c0 0 .035 0 .035-.035v-.018c0-.017.018-.035.035-.017v.035c.018-.018.105-.088.14-.088h.104s.017 0 0-.018h-.035c.035 0 .07 0 .105.036h.053v-.053s.017-.018.035-.018h.052v.035c0 .018.053.088.053.124h.017s.017 0 .017-.018.035-.035.053-.035h.017L62 21.542h-.053v-.053.036h.123c-.018 0 0-.036.017-.036h.07s0-.017.018-.035h.21v-.017h.14s.016 0 .034.017l.017.018s-.052.035-.087.035c.017 0 .035 0 .07-.018h.14a2.266 2.266 0 0 0-1.502-.563c-.454 0-.873.141-1.223.37.018 0 .053 0 .07-.018 0 0-.035 0-.052.018h-.018l-.017.017v.088h-.053s.035 0 .018.036h-.07s.035 0 0 .035a.334.334 0 0 0-.087.053c-.035 0-.053.052-.07.07h-.035s-.017.035-.035.035c0 0 0 .035-.017.053v.018h-.07v-.124c-.07.088-.122.194-.175.282v.123c0 .018-.035.053-.052.07 0 0-.035 0-.035.018v.106c-.035.176-.07.352-.07.546v.158c0 .018 0 .035.035.035s.052.036.07.053c0 .018.017.035.035.053v.07h.087v.036c.035.035.052.052.052.088v.035c0 .017 0 .035-.017.053v.21c.367.547.943.952 1.624 1.04h.611c.524-.07.978-.317 1.345-.67h-.035c0-.017.035-.052.035-.087v-.036a.2.2 0 0 1 .017-.088c0-.017.018-.035.035-.052h.07c.017 0 .035-.018.035-.036 0 0 0-.035.017-.035 0-.017.035-.035.053-.07 0 0 .035-.018.035 0h.017l.017-.035v-.036c.035-.07.07-.14.088-.21l-.716.351v.001zm-2.567-1.233h.017V22.3l-.017.018zm-.227 0h.052-.07.018zm-.245-.088h.018s.017 0 .017.017h-.035v-.017zm-.104-.07s.017 0 .017.017v.053-.035l-.017-.036zm2.008-1.409s.035 0 .035.018h-.035s-.035 0-.018-.036h.035l-.017.018zm-.227-.053h.035s.017 0 .035.018c0 0 .017.017 0 .035h-.035c-.035 0-.088-.035-.123-.035l.088-.018zm-.769.282v-.019s.035-.017.053-.035h.122c-.035 0-.07 0-.087.018l-.018.017v.053c-.017 0-.035 0-.052-.017l-.035-.018s-.017 0-.017-.018l.034.02zm-1.24.616v-.018h.018v.071h.018v.052c0 .017-.018.035-.035.035-.035 0-.07.035-.123.035.053-.035 0-.035.035-.088 0-.035-.035-.035-.035-.053v-.07l.123.035v.001zm-.07.088v.053c0 .018-.017.035-.052.053 0 0-.035 0-.035-.035v-.036c0-.017 0-.035.035-.053l.052.018zm-.174-.317h.018c.035 0 .087-.053.104-.053.018 0 .018.036 0 .053 0 0 0 .018-.035.035h-.052v-.017l-.035-.018zm-.559.704h-.017c0-.017.017-.035.035-.052v.105l-.018-.053zm2.113 1.937v.176h-.017c-.053-.018-.035-.035-.035-.088v-.088h.017v-.035.105l.035-.07zm.89-.687h-.017s-.017 0-.017-.017v-.07c0 .017.035.034.035.052v.035zm1.101-.845h.017v.053c0-.018 0-.053-.017-.07v.017zm-.052.652v.017s0-.035.017-.053l-.017.036zm-.035-.07s.017 0 0 .017v.035s-.018 0-.018-.035l.018-.017zm-.07-.283v-.034.053s-.018.018-.018 0v-.035l.018.018v-.002zm0 .23v-.036s.017 0 .017.018v.07c0 .018-.035.053-.035.018v-.054l.018-.018v.002zm-.053.228v-.017.035s0 .017-.035.035l.035-.053zm-.192-.264s.018 0 .018.035c0 0 0 .018-.035.018l.017-.053zm.018.493s0-.018.017-.035c.018 0 .035-.018.053-.053.017-.035 0-.035.035-.053h.017v.018c0 .017-.035.07-.017.088 0 0 .017 0 0 .035 0 .018 0 .035-.018.053v.018h-.07s-.017 0-.035-.018c0-.018-.017-.053-.017-.07 0-.018 0-.036.035-.053v.07zm-.122.106v.017s0 .018-.018 0v-.034l.018.017zm-.035.105c-.035 0-.035-.035-.053-.052v-.036h-.017v-.052s.017 0 .035.017c0 0 .017 0 .035.035 0 0 0 .018.017.036.053.052.105.105.105.193 0 0 0 .018-.018.035h-.017l-.087-.176zm.21.07h-.175v-.017h.104v.018h.071zm.052 0h.035c0 .018-.018.018-.053.018l.018-.018zm.122-.034s-.018.017-.035.017h.052l-.017-.017zm0-.088v-.07a.13.13 0 0 1 .035-.07l.017-.019s0 .018-.017.053h.017v.123l-.052-.017zm.087.088h-.017c-.018 0 0 .017-.035.035 0 0 0-.018.017-.035 0 0 .018 0 .035-.018v.018zm0-.282v.018h-.052.035l.017-.018zm.018-.176v-.018h-.035v-.017s.035-.018.052-.036c0 0 .018 0 .018.018v.018l-.035.035z"/><path d="M60.236 21.946h.017v-.016h-.052.017l.018.016zm.367.211v.036c0 .035.035.052.07.052v-.07s-.018 0-.035-.018a.134.134 0 0 0-.035-.07v-.035s.017-.018.035-.018c0 0 .017 0 .017-.017 0 0 0-.018-.017-.018h-.035v.106c0 .017.035.035.052.052h-.052zm-.489-.228h-.017v.053s-.035.035-.018.052c0 0 .018.018.035.018h.052s.035-.018.07-.018h.035c.035.018.053.036.122.018h.018c0-.035-.053-.053-.087-.07h-.035c-.035 0-.07 0-.088-.036l-.087-.017zM69.7 23.9c-.61.845-.733.97-1.746.97-.576 0-.663-.142-.663-.354v-1.654h.594c.593 0 .68.457.75.74h.14v-1.585h-.14c0 .14-.07.686-.75.686h-.594V21.26c0-.44.524-.44.768-.44.716 0 .821.088 1.52.862h.157l-.367-1.038h-3.266v.176c.42 0 .577.052.577.44v3.168c0 .37-.123.44-.577.44v.177h3.388l.367-1.145h-.175.017zm-22.264.898c-.785 0-.89-.193-.89-.475v-2.236h.82c.804 0 .926.617 1.013 1.004h.192v-2.148h-.192c0 .194-.104.933-1.012.933h-.82v-1.954c0-.58.697-.616 1.046-.616.978 0 1.1.123 2.043 1.18h.21l-.506-1.409h-4.436v.23c.56 0 .786.07.786.598V24.2c0 .493-.157.58-.786.598v.23h4.593l.506-1.55h-.227c-.82 1.144-.978 1.32-2.357 1.32h.017z"/><path d="M64.776 20.644h-2.078v.176c.42 0 .577.052.577.44v3.168c0 .37-.123.44-.577.44v.177h1.764v-.176c-.437 0-.576-.053-.576-.423v-1.408h.82s.594-.018.873-.176c.437-.247.56-.67.56-.969 0-.457-.332-1.25-1.38-1.25l.017.001zm-.419 2.235h-.47V21.26c0-.28.156-.44.627-.44.262 0 .96 0 .96 1.057 0 .704-.349 1.002-1.117 1.002zm9.133 1.444-1.397-3.767h-.087c-.105.07-.227.158-.629.23v.104s.157.088.157.3a.936.936 0 0 1-.07.316l-.854 2.184c-.28.74-.437 1.162-.908 1.18v.176h1.362v-.176c-.157 0-.524 0-.524-.388 0-.21.07-.37.297-.968h1.711l.28.74s.087.228.087.352c0 .246-.297.246-.576.246v.176H74.1v-.176c-.262 0-.419 0-.629-.546l.018.018h.001zm-2.55-1.056.786-2.007.751 2.007H70.94zm6.636-2.623v.176c.751 0 .751.334.751.65v2.66l-2.88-3.47h-1.17v.176c.366 0 .697.088.697.581v2.87c0 .246 0 .598-.698.616v.176h1.606v-.176c-.436 0-.768-.053-.768-.599v-3.062l3.196 3.873h.157V21.49c0-.335 0-.617.611-.652v-.176h-1.502v-.017zm-19.802 3.503c-.54-.88-.664-1.056-.856-1.215.245-.07.926-.282.926-1.056 0-.775-.68-1.232-1.485-1.232h-3.335v.176c.245 0 .716 0 .716.545v1.885c0 .58 0 1.655-1.397 1.655-.594 0-1.327-.247-1.327-1.373v-2.255c0-.37.14-.44.576-.44v-.176H49.83v.176c.436 0 .576.07.576.44v2.254c0 .281.035.74.28 1.038.244.282.68.581 1.501.581 1.222 0 1.711-.634 1.711-1.707V21.33c0-.246.175-.44.577-.475.314.017.42.105.42.44v3.17c0 .37-.124.44-.578.44v.175h1.764v-.176c-.436 0-.576-.07-.576-.44v-1.426h.454c.28 0 .35.088.42.158.191.23 1.047 1.585 1.24 1.866h.872v-.176c-.297 0-.402-.176-.734-.704l.018-.035zm-1.78-1.32h-.473v-1.586c0-.352.297-.44.664-.44.541 0 .96.14.96 1.056 0 .6-.174.968-1.152.968v.002zm-3.249-3.644-.245.898s-.052.105-.105.105h-.07v.053h.926l.122-.317h-.052c-.227.247-.244.264-.367.264h-.192c-.14 0-.14-.035-.105-.14l.105-.405h.14c.105 0 .14.07.14.158v.088h.035l.14-.493h-.036s-.104.194-.28.194h-.12l.104-.388c.034-.105.052-.105.122-.105h.192c.105 0 .122.017.21.3h.034l.035-.353h-.908v.053h.087c.07 0 .088.017.07.105l.018-.017zm-1.292-.018-.245.898s-.052.106-.14.106h-.034v.052h.49v-.05h-.036c-.105 0-.14-.019-.123-.107l.123-.44h.593l-.122.44s-.07.106-.14.106h-.07v.052h.524v-.052h-.087c-.052 0-.105-.018-.087-.088l.244-.898s.035-.106.123-.106h.052v-.053h-.489v.053h.035c.105 0 .122.018.087.123l-.105.388h-.593l.105-.423s.052-.088.14-.088h.07v-.053h-.525v.053h.035c.14 0 .105.07.105.088h.07z"/><path d="M50.492 19.077h.175l-.262.986c-.035.106-.053.123-.157.123h-.07v.053h.524v-.053c-.157 0-.175 0-.14-.123l.262-.986h.14s.087 0 .104.035c.018.036.035.088.105.264h.035v-.352h-.96l-.14.353h.052c.158-.194.227-.3.315-.3h.017zm-12.17 15.598v7.87h-1.03v-5.863l-2.603 5.862h-.716l-2.601-5.88v5.88h-1.03v-7.87h1.1l2.88 6.497 2.882-6.496h1.118zm2.112 7.57a2.727 2.727 0 0 1-1.1-1.127c-.262-.493-.401-1.057-.401-1.708 0-.65.14-1.197.419-1.69.28-.493.646-.863 1.117-1.127.472-.264.996-.387 1.59-.387.593 0 1.117.123 1.588.387.472.264.856.634 1.118 1.127.262.493.42 1.056.42 1.69 0 .634-.14 1.215-.42 1.708a2.85 2.85 0 0 1-1.153 1.126 3.3 3.3 0 0 1-1.606.405c-.594 0-1.1-.14-1.572-.405zm2.62-.775c.314-.176.576-.44.785-.793.193-.352.297-.774.297-1.267 0-.493-.104-.915-.297-1.268-.171-.33-.439-.6-.768-.774a2.09 2.09 0 0 0-1.03-.264 2.09 2.09 0 0 0-1.03.264c-.32.18-.582.449-.751.774-.192.353-.28.775-.28 1.268s.088.933.28 1.285c.192.352.436.616.733.775.314.176.646.264 1.013.264.367 0 .716-.088 1.03-.264h.018zm3.666.933a1.97 1.97 0 0 1-.89-.687c-.21-.3-.332-.634-.367-1.003h1.066c.034.317.174.563.436.757.262.193.594.3 1.013.3.384 0 .698-.089.925-.265.227-.176.332-.387.332-.65a.678.678 0 0 0-.367-.618c-.244-.14-.61-.264-1.117-.387a8.34 8.34 0 0 1-1.118-.37 1.974 1.974 0 0 1-.75-.563c-.21-.246-.315-.563-.315-.968 0-.317.088-.616.28-.88.192-.264.454-.476.803-.634.349-.159.733-.229 1.187-.229.68 0 1.24.176 1.66.528.418.352.645.828.68 1.426h-1.03a1.112 1.112 0 0 0-.384-.792c-.227-.194-.56-.3-.943-.3-.367 0-.664.09-.873.247-.21.16-.332.37-.332.616 0 .211.07.37.192.51.122.142.297.247.489.318.192.088.47.176.82.264.437.123.804.246 1.083.352.28.123.524.3.716.528.192.23.297.546.315.915 0 .335-.088.652-.28.916-.202.283-.48.503-.803.633-.35.16-.734.23-1.17.23-.471 0-.89-.089-1.275-.247l.017.053zm5.484-5.246v3.68c0 .298.07.51.192.65.122.124.35.194.664.194h.75v.88h-.925c-.576 0-.995-.14-1.292-.405-.28-.264-.437-.704-.437-1.302v-3.68h-.803v-.845h.803v-1.566h1.03v1.566h1.607v.845h-1.606l.017-.017zm8.539 5.387-1.868-3.24h-1.24v3.24h-1.03v-7.922h2.532c.593 0 1.1.106 1.5.3.403.21.717.475.927.827.21.352.297.74.297 1.197 0 .545-.158 1.02-.472 1.443-.314.423-.786.687-1.397.828l1.973 3.327h-1.222zm-3.108-4.067h1.519c.559 0 .978-.14 1.257-.422.28-.282.42-.65.42-1.11 0-.457-.14-.827-.42-1.09-.28-.265-.698-.388-1.257-.388h-1.52v3.01zm10.705 1.338h-4.943c.035.616.245 1.091.629 1.443.384.352.838.51 1.38.51.436 0 .82-.105 1.117-.316.297-.21.507-.493.629-.827h1.1a2.574 2.574 0 0 1-.995 1.46c-.49.37-1.118.564-1.852.564-.593 0-1.117-.14-1.571-.405a2.796 2.796 0 0 1-1.083-1.126c-.262-.493-.401-1.057-.401-1.708 0-.65.122-1.215.384-1.69.262-.475.61-.863 1.082-1.127.454-.264.996-.387 1.59-.387.593 0 1.1.123 1.554.387.454.264.803.616 1.047 1.057.245.457.367.968.367 1.531 0 .194 0 .405-.035.616v.018zm-1.293-1.866a1.784 1.784 0 0 0-.7-.652 2.054 2.054 0 0 0-.976-.228c-.524 0-.96.158-1.328.493-.366.334-.576.792-.628 1.39h3.894c0-.387-.087-.74-.262-1.02v.017zm2.968-3.82v8.415h-1.03V34.13h1.03zm1.048.97a.669.669 0 0 1-.21-.494c0-.194.07-.37.21-.493a.658.658 0 0 1 .489-.212c.192 0 .35.07.47.212a.65.65 0 0 1 .194.493.69.69 0 0 1-.664.704.657.657 0 0 1-.49-.21zm.995 1.213v6.232h-1.03v-6.232h1.03zm1.013 1.408c.262-.475.612-.863 1.048-1.127a2.91 2.91 0 0 1 1.502-.404c.559 0 1.013.123 1.414.352.402.228.699.528.89.88v-1.145h1.03v6.232h-1.03v-1.162c-.21.37-.506.67-.907.898-.402.247-.873.352-1.397.352a2.89 2.89 0 0 1-1.484-.404c-.437-.265-.786-.652-1.048-1.145s-.384-1.056-.384-1.69c0-.633.122-1.197.384-1.672l-.018.035zm4.575.458a2.014 2.014 0 0 0-.768-.81 1.95 1.95 0 0 0-1.048-.282c-.384 0-.733.088-1.047.264-.315.176-.577.44-.751.792-.192.353-.28.758-.28 1.233 0 .475.088.898.28 1.25a2.1 2.1 0 0 0 .75.81c.315.193.664.281 1.048.281.385 0 .734-.088 1.048-.282.314-.193.576-.457.768-.81.192-.35.28-.756.28-1.232 0-.475-.088-.88-.28-1.232v.018zm4.26-1.62a2.773 2.773 0 0 1 1.38-.352c.559 0 1.066.141 1.502.405.447.272.81.662 1.048 1.127.262.475.384 1.038.384 1.672 0 .634-.122 1.197-.384 1.69-.262.493-.611.88-1.048 1.144a2.91 2.91 0 0 1-1.502.405c-.558 0-.995-.123-1.397-.352-.38-.21-.694-.52-.908-.898v1.145h-1.03V34.13h1.03v3.345c.21-.37.524-.67.926-.916zm2.987 1.62c-.192-.352-.437-.616-.768-.792a2.107 2.107 0 0 0-1.048-.264 1.95 1.95 0 0 0-1.048.281 2.137 2.137 0 0 0-.768.81c-.192.352-.28.757-.28 1.215 0 .457.088.88.28 1.232.192.352.454.616.768.81.315.192.679.29 1.048.282a1.95 1.95 0 0 0 1.048-.282c.314-.194.576-.458.768-.81.192-.352.28-.775.28-1.25s-.088-.88-.28-1.232zm2.969-4.049v8.415h-1.03V34.13h1.03zm6.618 5.686h-4.942c.035.616.244 1.091.629 1.443.384.352.838.51 1.38.51.436 0 .82-.105 1.117-.316.296-.21.506-.493.628-.827h1.1a2.574 2.574 0 0 1-.995 1.46c-.49.37-1.118.564-1.85.564-.595 0-1.118-.14-1.572-.405a2.794 2.794 0 0 1-1.083-1.126c-.262-.493-.402-1.057-.402-1.708 0-.65.123-1.215.384-1.69.262-.475.612-.863 1.083-1.127.454-.264.995-.387 1.59-.387.593 0 1.1.123 1.553.387.454.264.803.616 1.048 1.057a3.2 3.2 0 0 1 .367 1.531c0 .194 0 .405-.035.616v.018zm-1.292-1.866a1.786 1.786 0 0 0-.7-.652 2.055 2.055 0 0 0-.977-.228c-.524 0-.96.158-1.327.493-.367.334-.576.792-.63 1.39h3.895c0-.387-.087-.74-.261-1.02v.017zM37.15 54.813v.845h-2.148v7.077h-1.03v-7.077h-2.148v-.845h5.326zm2.339 1.867c.333-.194.734-.3 1.223-.3v1.074h-.28c-1.152 0-1.728.633-1.728 1.883v3.38h-1.03v-6.23h1.03v1.002c.175-.352.437-.634.768-.828l.018.018-.001.001zm1.677 1.231c.262-.475.612-.862 1.048-1.126a2.91 2.91 0 0 1 1.502-.405c.559 0 1.013.123 1.414.352.402.23.699.528.89.88v-1.144h1.03V62.7h-1.03v-1.162c-.21.37-.505.67-.907.898-.402.246-.873.352-1.397.352a2.89 2.89 0 0 1-1.484-.405c-.437-.264-.786-.652-1.048-1.144-.262-.493-.384-1.057-.384-1.69 0-.634.122-1.197.384-1.673l-.018.035zm4.576.458a2.013 2.013 0 0 0-.77-.81 1.95 1.95 0 0 0-1.046-.28c-.385 0-.734.087-1.048.263a1.83 1.83 0 0 0-.751.792c-.192.352-.28.757-.28 1.232s.088.898.28 1.25c.192.352.437.616.75.81.315.192.679.29 1.048.282.385 0 .734-.089 1.048-.282.315-.194.577-.458.769-.81.192-.352.279-.757.279-1.232 0-.476-.087-.88-.28-1.233v.018zm7.14-1.303c.473.458.7 1.127.7 1.99v3.68H52.57v-3.52c0-.618-.157-1.093-.471-1.428-.315-.334-.734-.493-1.258-.493s-.978.176-1.292.51c-.314.335-.471.846-.471 1.497v3.45h-1.03v-6.23h1.03v.88a2.09 2.09 0 0 1 .82-.74 2.53 2.53 0 0 1 1.153-.265c.75 0 1.362.23 1.833.687v-.018zm2.569 5.528a1.97 1.97 0 0 1-1.258-1.69h1.066c.035.317.174.563.436.757.262.194.594.3 1.013.3.384 0 .698-.089.925-.265.227-.176.332-.387.332-.65a.679.679 0 0 0-.367-.617c-.244-.14-.61-.264-1.117-.388a8.326 8.326 0 0 1-1.118-.37 1.974 1.974 0 0 1-.75-.563c-.21-.246-.315-.563-.315-.968 0-.317.087-.616.28-.88.192-.264.453-.475.803-.634.349-.158.733-.228 1.187-.228.68 0 1.24.175 1.66.528.418.352.645.827.68 1.425h-1.03a1.112 1.112 0 0 0-.384-.792c-.227-.193-.56-.299-.943-.299-.367 0-.664.088-.873.247-.21.158-.332.37-.332.616 0 .21.07.37.192.51.122.141.297.247.489.317.192.088.47.176.82.264.437.123.804.247 1.083.352.28.123.524.3.716.528.192.23.297.546.315.916 0 .334-.088.651-.28.915-.202.284-.48.504-.803.634-.37.16-.768.238-1.17.23-.472 0-.89-.089-1.275-.248l.018.053zm6.163-5.844c.402-.247.873-.352 1.397-.352s1.048.14 1.502.404c.454.264.803.634 1.048 1.127.262.475.384 1.04.384 1.672 0 .634-.122 1.197-.384 1.69-.262.493-.611.88-1.048 1.145a2.91 2.91 0 0 1-1.502.405c-.558 0-.995-.124-1.397-.352-.401-.247-.715-.529-.925-.898v4.101h-1.03v-9.189h1.03v1.144c.21-.352.506-.65.908-.898l.017.001zm3.004 1.602c-.192-.353-.437-.617-.768-.793a2.107 2.107 0 0 0-1.048-.264c-.384 0-.734.088-1.048.282a2.137 2.137 0 0 0-.768.81c-.192.352-.28.757-.28 1.214 0 .458.088.88.28 1.233.192.352.454.616.768.81.314.193.664.281 1.048.281s.733-.088 1.048-.28c.314-.195.576-.459.768-.81.192-.353.28-.776.28-1.25 0-.477-.088-.88-.28-1.233zm1.956-.44c.262-.476.61-.863 1.047-1.127a2.91 2.91 0 0 1 1.502-.405c.559 0 1.013.123 1.415.352.4.23.698.528.89.88v-1.144h1.03V62.7h-1.03v-1.162c-.21.37-.506.67-.908.898-.401.246-.873.352-1.397.352a2.893 2.893 0 0 1-1.484-.405c-.437-.264-.786-.652-1.048-1.144-.262-.493-.384-1.057-.384-1.69 0-.634.122-1.197.384-1.673l-.017.035zm4.575.457a2.013 2.013 0 0 0-.77-.81 1.95 1.95 0 0 0-1.046-.28c-.384 0-.734.087-1.048.263-.314.176-.576.44-.75.792-.193.352-.28.757-.28 1.232s.087.898.28 1.25c.19.352.436.616.75.81.314.194.664.282 1.048.282s.733-.089 1.047-.282c.315-.194.577-.458.769-.81.192-.352.28-.757.28-1.232 0-.476-.088-.88-.28-1.233v.018zm4.12-1.689c.333-.194.735-.3 1.223-.3v1.074h-.28c-1.151 0-1.728.633-1.728 1.883v3.38h-1.03v-6.23h1.03v1.002c.175-.352.437-.634.769-.828l.017.02zm7.265 3.326h-4.941c.035.616.244 1.092.628 1.444.384.352.839.51 1.38.51.436 0 .82-.105 1.117-.316.297-.212.507-.493.629-.828h1.1a2.574 2.574 0 0 1-.995 1.461c-.49.37-1.118.564-1.851.564a3.074 3.074 0 0 1-1.572-.405 2.795 2.795 0 0 1-1.082-1.127c-.262-.493-.402-1.056-.402-1.708 0-.65.122-1.214.384-1.69.262-.475.61-.862 1.083-1.126.454-.264.995-.387 1.589-.387.593 0 1.1.123 1.554.387.44.25.802.615 1.048 1.056.244.458.366.968.366 1.532 0 .193 0 .404-.035.616v.017zm-1.292-1.866a1.786 1.786 0 0 0-.698-.65 2.283 2.283 0 0 0-.978-.23c-.524 0-.96.16-1.327.493-.367.334-.576.792-.63 1.39h3.895c0-.387-.087-.739-.262-1.02v.017zm6.793-1.074c.47.458.698 1.127.698 1.99v3.68H87.72v-3.52c0-.618-.157-1.093-.471-1.428-.314-.334-.734-.493-1.257-.493-.524 0-.978.176-1.292.51-.315.335-.472.846-.472 1.497v3.45h-1.03v-6.23h1.03v.88a2.09 2.09 0 0 1 .82-.74 2.53 2.53 0 0 1 1.153-.265c.75 0 1.362.23 1.834.687v-.018zm2.898.282v3.68c0 .3.07.51.193.65.122.124.349.195.663.195h.75v.88h-.924c-.577 0-.996-.14-1.293-.405-.28-.264-.436-.704-.436-1.303v-3.68h-.803v-.844h.803v-1.567h1.03v1.567h1.606v.845h-1.606l.017-.018zM51.942 72.013c.244.194.419.422.559.704.14.282.21.581.21.898 0 .405-.106.757-.298 1.091-.192.335-.506.581-.89.757-.434.194-.905.29-1.38.282H47.21v-7.922h2.812c.54 0 .995.088 1.362.264.384.176.663.423.838.722.192.3.28.651.28 1.021 0 .475-.123.863-.385 1.162-.244.3-.576.528-.995.67.28.052.54.157.786.351h.034zm-3.685-.775h1.729c.489 0 .856-.123 1.117-.334.262-.21.402-.546.402-.95 0-.406-.14-.722-.402-.95-.261-.23-.646-.336-1.135-.336h-1.693v2.57h-.018zm3.004 3.292c.28-.246.436-.58.436-1.02 0-.44-.157-.793-.454-1.04-.297-.246-.698-.387-1.205-.387h-1.78v2.8h1.815c.507 0 .908-.124 1.188-.37v.017zm3.929-4.84c.33-.195.733-.3 1.222-.3v1.074h-.28c-1.152 0-1.728.633-1.728 1.883v3.38h-1.03v-6.232h1.03V70.5c.174-.352.436-.634.768-.828l.018.017zm2.794 5.755a2.724 2.724 0 0 1-1.1-1.126 3.549 3.549 0 0 1-.402-1.69c0-.634.14-1.197.419-1.69.28-.493.646-.863 1.118-1.127.47-.264.995-.387 1.589-.387.593 0 1.117.123 1.589.387.47.264.855.634 1.117 1.127.28.493.42 1.056.42 1.69 0 .634-.14 1.214-.42 1.69a2.85 2.85 0 0 1-1.152 1.126 3.3 3.3 0 0 1-1.607.405c-.593 0-1.1-.14-1.571-.405zm2.619-.774c.314-.176.576-.44.786-.792.192-.352.297-.775.297-1.268s-.105-.933-.297-1.267a1.818 1.818 0 0 0-.77-.775 2.296 2.296 0 0 0-1.03-.264c-.366 0-.715.088-1.03.264-.32.18-.58.45-.75.775-.192.352-.28.774-.28 1.267 0 .493.088.933.28 1.285.192.352.437.616.733.775.315.176.647.264 1.013.264.367 0 .716-.088 1.03-.264h.018zm6.199 1.074L64.374 73v2.746h-1.03V67.33h1.03v4.947l2.375-2.764h1.432l-2.916 3.098 2.916 3.134h-1.397.018z"/><path d="M74.03 73.016h-4.94c.035.616.245 1.092.629 1.444.384.352.838.51 1.38.51.436 0 .82-.105 1.117-.317a1.73 1.73 0 0 0 .629-.827h1.1a2.575 2.575 0 0 1-.996 1.461c-.506.37-1.117.563-1.85.563-.594 0-1.118-.14-1.572-.405a2.795 2.795 0 0 1-1.083-1.126 3.549 3.549 0 0 1-.401-1.69c0-.634.122-1.215.384-1.69a2.685 2.685 0 0 1 1.082-1.127c.454-.264.996-.387 1.59-.387.593 0 1.1.123 1.553.387.455.264.804.616 1.048 1.056.245.44.367.97.367 1.532 0 .194 0 .405-.035.634v-.018zm-1.29-1.866a1.784 1.784 0 0 0-.7-.65 2.052 2.052 0 0 0-.977-.23c-.523 0-.96.16-1.327.493-.366.334-.576.792-.628 1.39H73c0-.387-.088-.739-.262-1.02v.017zm3.737-1.46c.332-.195.733-.3 1.222-.3v1.074h-.28c-1.152 0-1.728.633-1.728 1.883v3.38h-1.03v-6.232h1.03V70.5c.175-.352.436-.634.768-.828l.018.017zM55.382 48.387a1.974 1.974 0 0 1 1.816-1.09c.384 0 .716.087 1.013.245.28.176.506.388.646.634v-.81h.733v4.454h-.733v-.827c-.14.264-.367.475-.646.651-.3.18-.645.271-.995.264-.367 0-.751-.105-1.066-.3a2.021 2.021 0 0 1-.75-.827 2.683 2.683 0 0 1-.28-1.197c0-.44.087-.862.28-1.197h-.018zm3.266.335a1.57 1.57 0 0 0-.542-.58 1.407 1.407 0 0 0-.75-.195c-.263 0-.525.07-.752.194a1.4 1.4 0 0 0-.54.563c-.14.247-.21.546-.21.88 0 .335.07.634.21.898.139.264.313.44.54.581.227.141.472.194.75.194.28 0 .525-.07.752-.194.227-.14.402-.317.54-.58.14-.265.21-.547.21-.88 0-.335-.068-.635-.208-.88zm5.116-.933c.332.334.506.792.506 1.426v2.623h-.733V49.32c0-.44-.105-.792-.332-1.02-.227-.23-.524-.353-.908-.353s-.698.123-.925.37c-.227.246-.35.6-.35 1.056v2.465h-.733v-4.454h.733v.634c.14-.23.35-.405.594-.528.254-.128.535-.194.82-.194.542 0 .979.158 1.31.493h.018v.001zm1.17.6c.167-.337.427-.618.75-.81.315-.195.682-.283 1.083-.283a2 2 0 0 1 .96.247 1.7 1.7 0 0 1 .682.633v-2.359h.733v6.021h-.733v-.845c-.14.264-.367.475-.646.651-.28.176-.612.264-.996.264s-.75-.105-1.065-.299a2.02 2.02 0 0 1-.75-.827 2.683 2.683 0 0 1-.28-1.197c0-.44.087-.863.28-1.197h-.018zm3.265.333a1.572 1.572 0 0 0-.541-.58 1.409 1.409 0 0 0-.751-.195c-.262 0-.524.07-.75.194-.23.133-.419.328-.542.563-.14.247-.21.546-.21.88 0 .335.07.634.21.898.14.265.314.44.54.581.228.141.473.194.752.194.28 0 .524-.07.75-.194.231-.138.42-.339.542-.58.14-.265.21-.546.21-.88 0-.335-.07-.635-.21-.88zm-13.865 51.949c.402-.37.733-.74.995-1.127.28-.387.402-.774.402-1.162 0-.352-.087-.65-.262-.844-.175-.212-.454-.317-.838-.317-.384 0-.664.123-.873.352-.21.23-.315.546-.332.933h-.716c.017-.616.21-1.092.559-1.426.349-.335.803-.51 1.362-.51s1.013.158 1.344.475c.332.316.507.74.507 1.302 0 .458-.14.898-.402 1.338-.262.44-.576.81-.925 1.144-.35.335-.786.705-1.328 1.145h2.83v.634H52.71v-.546a33.976 33.976 0 0 0 1.64-1.39l-.016-.001zm3.806-3.274c.315-.528.839-.792 1.607-.792s1.292.264 1.607.792c.314.528.454 1.267.454 2.218 0 .95-.158 1.725-.454 2.253-.297.528-.84.81-1.607.81-.768 0-1.31-.264-1.606-.81-.297-.546-.454-1.285-.454-2.253 0-.969.156-1.69.453-2.218zm2.83 1.003c-.07-.334-.193-.599-.385-.81-.192-.21-.471-.299-.838-.299s-.663.106-.856.3a1.53 1.53 0 0 0-.384.81 7.926 7.926 0 0 0-.087 1.214c0 .475.035.915.087 1.25.053.334.192.598.384.81.193.21.472.299.856.299s.646-.106.838-.3c.192-.21.315-.475.384-.81.07-.334.088-.756.088-1.25 0-.492-.034-.88-.087-1.214zm3.58 2.271c.4-.37.733-.74.995-1.127.279-.387.4-.774.4-1.162 0-.352-.086-.65-.261-.844-.174-.212-.454-.317-.838-.317-.384 0-.663.123-.873.352-.21.23-.314.546-.332.933h-.716c.018-.616.21-1.092.56-1.426.348-.335.802-.51 1.36-.51.56 0 1.014.158 1.346.475.33.316.506.74.506 1.302 0 .458-.14.898-.401 1.338a5.396 5.396 0 0 1-.926 1.144c-.35.335-.786.705-1.327 1.145h2.829v.634h-3.947v-.546a34.441 34.441 0 0 0 1.642-1.39h-.018v-.001zm3.91-3.679c.35-.282.804-.423 1.363-.423.366 0 .698.07.96.212.262.14.472.316.61.545.14.23.21.493.21.793 0 .334-.104.633-.296.88-.188.24-.453.408-.75.475v.035c.348.088.628.264.837.528.21.264.315.599.315 1.021 0 .317-.07.599-.21.845-.14.247-.35.44-.646.599-.28.14-.63.211-1.03.211-.576 0-1.065-.158-1.432-.458-.367-.299-.576-.739-.63-1.302h.717c.035.334.175.598.402.81.227.21.54.316.925.316.384 0 .68-.105.873-.299.2-.214.306-.499.297-.792 0-.405-.14-.704-.42-.898-.28-.176-.68-.264-1.24-.264h-.191v-.634h.192c.507 0 .89-.088 1.135-.246.262-.159.385-.423.385-.757 0-.3-.088-.528-.28-.704-.192-.176-.454-.264-.803-.264-.35 0-.611.088-.82.264a1.07 1.07 0 0 0-.368.704h-.733c.035-.51.227-.898.576-1.197h.052zM45.883 84.916a1.48 1.48 0 0 0-.612-.616c-.261-.14-.576-.21-.943-.21-.628 0-1.135.21-1.501.615-.384.422-.576.968-.576 1.672 0 .74.192 1.32.593 1.725.402.423.943.617 1.642.617.47 0 .873-.124 1.205-.37.33-.247.576-.599.715-1.056h-2.462V85.85h4.226v1.813c-.14.493-.384.95-.733 1.356-.35.405-.786.757-1.31 1.02-.524.265-1.135.388-1.8.388-.784 0-1.483-.176-2.112-.528a3.82 3.82 0 0 1-1.45-1.444c-.35-.616-.505-1.32-.505-2.112s.174-1.496.506-2.13a3.819 3.819 0 0 1 1.432-1.46c.61-.353 1.31-.529 2.096-.529.96 0 1.763.228 2.41.704.663.457 1.082 1.11 1.29 1.936h-2.146l.035.053zm5.29 3.978h2.55v1.514h-4.488v-8.027h1.939v6.531-.018zm5.187 1.074a3.957 3.957 0 0 1-1.484-1.46c-.367-.634-.541-1.339-.541-2.13 0-.793.174-1.497.54-2.113a3.832 3.832 0 0 1 1.485-1.462 4.13 4.13 0 0 1 2.06-.528 4.13 4.13 0 0 1 2.06.528 3.79 3.79 0 0 1 1.468 1.462c.35.616.54 1.338.54 2.112 0 .775-.173 1.497-.54 2.13a3.787 3.787 0 0 1-1.467 1.461 4.13 4.13 0 0 1-2.06.528 4.134 4.134 0 0 1-2.061-.528zm3.58-1.9c.384-.423.576-.987.576-1.69 0-.705-.192-1.268-.576-1.69-.384-.423-.89-.635-1.537-.635-.646 0-1.152.212-1.536.634-.385.423-.577.986-.577 1.708s.192 1.285.577 1.707c.384.423.89.634 1.536.634s1.153-.21 1.537-.634v-.034zm9.569-1.093c.28.37.419.775.419 1.25 0 .67-.227 1.198-.698 1.602-.472.388-1.118.581-1.956.581h-3.702v-8.027h3.58c.803 0 1.449.194 1.903.563.454.37.68.88.68 1.514 0 .475-.121.863-.366 1.18-.25.315-.592.543-.978.651.454.106.838.334 1.118.686zm-4-1.355h1.276c.314 0 .559-.07.733-.21.175-.142.262-.353.262-.617s-.087-.493-.262-.634c-.174-.14-.42-.21-.733-.21H65.51v1.69-.019zm2.184 2.975c.175-.14.262-.37.262-.65 0-.283-.087-.51-.28-.67-.192-.159-.436-.247-.768-.247h-1.414v1.778h1.43c.333 0 .578-.07.752-.228l.018.017zm8.312.405h-2.97l-.47 1.426h-2.026l2.88-8.028h2.254l2.88 8.028h-2.06L76.023 89h-.017zm-.507-1.514-.995-2.94-.978 2.94h1.973zm5.85 1.408h2.55v1.514H79.41v-8.027h1.939v6.531-.018z"/></g><defs><clipPath id="a"><path fill="#fff" d="M1 16h121v87H1z"/></clipPath></defs></svg>