<svg xmlns="http://www.w3.org/2000/svg" width="120" height="103" fill="none"><g clip-path="url(#a)"><mask id="b" width="120" height="88" x="0" y="15" maskUnits="userSpaceOnUse" style="mask-type:luminance"><path fill="#fff" d="M0 15h120v87.122H0V15z"/></mask><g fill="#036" mask="url(#b)"><path d="M35.665 31.618v8.04h-1.06v-5.99l-2.68 5.99h-.738l-2.68-6.008v6.008h-1.06v-8.04h1.132l2.968 6.637 2.967-6.637h1.151zm2.177 7.735a2.907 2.907 0 0 1-1.133-1.15c-.27-.487-.414-1.08-.414-1.746 0-.666.144-1.223.432-1.727a2.95 2.95 0 0 1 1.15-1.15c.486-.27 1.026-.396 1.637-.396.612 0 1.151.126 1.637.395.486.27.881.648 1.151 1.151.27.504.432 1.08.432 1.727 0 .648-.144 1.241-.432 1.745a2.92 2.92 0 0 1-1.187 1.15 3.42 3.42 0 0 1-1.655.414 3.233 3.233 0 0 1-1.618-.413zm2.697-.792c.324-.18.594-.45.81-.81.216-.359.306-.79.306-1.294s-.108-.935-.306-1.295a1.866 1.866 0 0 0-.79-.79 2.38 2.38 0 0 0-1.063-.27c-.377 0-.737.09-1.06.27-.325.18-.576.43-.774.79-.198.36-.288.791-.288 1.295 0 .504.09.953.288 1.313.198.36.45.611.755.791.324.18.666.252 1.043.252.378 0 .738-.09 1.062-.27l.017.018zm3.777.953a2.027 2.027 0 0 1-.917-.7 2.091 2.091 0 0 1-.377-1.026h1.097c.036.324.18.576.45.773.27.198.61.306 1.042.306.396 0 .72-.09.954-.27.233-.18.341-.395.341-.665a.692.692 0 0 0-.377-.63c-.252-.144-.63-.27-1.15-.395a8.644 8.644 0 0 1-1.152-.378 2.032 2.032 0 0 1-.774-.576c-.216-.25-.324-.575-.324-.989 0-.324.09-.63.288-.9.215-.285.5-.508.828-.647.36-.162.755-.233 1.223-.233.701 0 1.276.18 1.708.54.432.36.666.845.702 1.456h-1.062a1.167 1.167 0 0 0-.395-.81c-.234-.197-.576-.305-.97-.305-.379 0-.685.072-.9.252-.217.162-.342.377-.342.63a.75.75 0 0 0 .197.52c.126.145.306.253.504.325.198.072.486.18.845.27.45.125.828.251 1.115.36.288.125.54.305.738.54.198.232.306.556.324.934 0 .342-.09.665-.288.935-.198.27-.468.504-.828.665-.36.162-.755.234-1.205.234-.485 0-.917-.09-1.313-.25l.018.034zm5.648-5.34v3.758c0 .305.072.521.197.665.126.126.36.198.684.198h.773v.9h-.953c-.593 0-1.025-.145-1.33-.414-.289-.27-.45-.72-.45-1.33v-3.76h-.828v-.864h.828v-1.6h1.06v1.6H51.6v.864h-1.654l.018-.018zm8.795 5.484-1.925-3.31h-1.277v3.31h-1.06v-8.094h2.607c.611 0 1.133.108 1.547.306.413.216.737.486.953.845.216.36.306.756.306 1.224 0 .557-.162 1.043-.486 1.474-.324.432-.81.702-1.439.846l2.033 3.4H58.76zm-3.202-4.155h1.565c.575 0 1.007-.144 1.295-.43.288-.289.432-.667.432-1.134 0-.468-.144-.846-.432-1.116-.288-.27-.72-.395-1.295-.395h-1.565v3.075zm11.026 1.367h-5.09c.036.63.252 1.116.647 1.476.396.36.864.521 1.421.521.45 0 .845-.108 1.151-.324.306-.215.522-.503.648-.845h1.133a2.63 2.63 0 0 1-1.025 1.493c-.522.377-1.15.575-1.907.575a3.185 3.185 0 0 1-1.619-.413 2.983 2.983 0 0 1-1.115-1.15c-.27-.505-.413-1.08-.413-1.746 0-.666.125-1.24.395-1.727.27-.485.63-.88 1.115-1.15.468-.27 1.026-.396 1.637-.396.612 0 1.133.126 1.6.395.468.27.828.63 1.08 1.08.252.45.378.99.378 1.564 0 .198 0 .413-.036.647zm-1.33-1.906a1.834 1.834 0 0 0-.72-.665 2.131 2.131 0 0 0-1.008-.234c-.54 0-.99.162-1.367.504-.377.341-.593.81-.647 1.42h4.01c0-.395-.09-.755-.27-1.043l.001.018zm3.057-3.904v8.598h-1.062V31.06h1.062zm1.078.99a.68.68 0 0 1-.216-.503c0-.198.072-.378.216-.504.144-.126.306-.216.504-.216s.36.072.485.216a.738.738 0 0 1 .198.504.707.707 0 0 1-.198.503.67.67 0 0 1-.989 0zm1.025 1.241v6.367h-1.06v-6.367h1.06zm1.044 1.457c.27-.485.63-.88 1.08-1.15.467-.27.97-.414 1.546-.414.575 0 1.043.126 1.457.36.413.233.72.54.917.9v-1.17h1.06v6.366h-1.06v-1.187a2.414 2.414 0 0 1-.935.918c-.414.233-.9.36-1.44.36a3.005 3.005 0 0 1-1.528-.414c-.45-.27-.81-.666-1.08-1.17-.269-.503-.395-1.078-.395-1.726 0-.648.126-1.223.396-1.709l-.018.036zm4.712.468c-.198-.36-.45-.63-.79-.827a2.022 2.022 0 0 0-1.08-.288c-.396 0-.756.09-1.08.288a1.88 1.88 0 0 0-.773.81c-.198.36-.288.772-.288 1.258s.09.917.288 1.277c.198.36.45.63.773.827.324.198.684.288 1.08.288.395 0 .755-.09 1.08-.288.332-.2.605-.486.79-.827.198-.36.288-.773.288-1.259 0-.486-.09-.9-.288-1.259zm4.388-1.673c.414-.234.9-.36 1.421-.36.576 0 1.097.144 1.547.413.45.27.81.648 1.08 1.152.27.485.395 1.06.395 1.708 0 .648-.126 1.223-.396 1.727-.27.503-.63.9-1.079 1.17-.468.287-.97.413-1.547.413-.575 0-1.025-.126-1.439-.36a2.414 2.414 0 0 1-.935-.917v1.17h-1.06V31.06h1.06v3.418c.216-.378.54-.684.953-.935zm3.076 1.654c-.198-.36-.45-.63-.79-.81a2.198 2.198 0 0 0-1.08-.287c-.396 0-.756.09-1.08.288a2.19 2.19 0 0 0-.79.827c-.199.36-.289.774-.289 1.241 0 .468.09.9.288 1.26.198.36.468.63.791.827.324.197.684.287 1.08.287.395 0 .755-.09 1.078-.287.333-.2.607-.486.792-.828.198-.36.288-.79.288-1.277 0-.485-.09-.899-.288-1.259v.018zm3.076-4.137v8.598h-1.062V31.06h1.062zm6.816 5.81h-5.09c.036.63.252 1.116.648 1.476.395.36.863.521 1.42.521.45 0 .846-.108 1.151-.324.306-.215.522-.503.648-.845h1.133a2.63 2.63 0 0 1-1.025 1.493c-.522.377-1.15.575-1.907.575a3.185 3.185 0 0 1-1.618-.413 2.983 2.983 0 0 1-1.115-1.15c-.27-.505-.414-1.08-.414-1.746 0-.666.126-1.24.396-1.727.27-.485.63-.88 1.115-1.15.467-.27 1.025-.396 1.636-.396.612 0 1.133.126 1.601.395.468.27.828.63 1.08 1.08.251.45.377.99.377 1.564 0 .198 0 .413-.036.647zm-1.33-1.906a1.834 1.834 0 0 0-.72-.665 2.131 2.131 0 0 0-1.007-.234c-.54 0-.99.162-1.367.504-.378.341-.594.81-.648 1.42h4.01c0-.395-.09-.755-.269-1.043l.001.018zm-57.483 17.23v.864H32.5v7.23h-1.06v-7.23h-2.213v-.864h5.485zm2.411 1.906c.341-.197.755-.305 1.258-.305v1.097h-.287c-1.187 0-1.78.647-1.78 1.924v3.454h-1.062v-6.367h1.061v1.025a2 2 0 0 1 .791-.845l.02.018zm1.726 1.26c.27-.486.63-.882 1.08-1.15.467-.27.97-.415 1.546-.415.575 0 1.043.126 1.457.36.413.233.72.54.917.9v-1.17h1.061v6.367h-1.06v-1.187a2.415 2.415 0 0 1-.936.917c-.414.252-.9.36-1.44.36a2.996 2.996 0 0 1-1.528-.414 3.082 3.082 0 0 1-1.08-1.169c-.269-.504-.395-1.08-.395-1.727s.126-1.223.396-1.708l-.018.036zm4.712.467c-.198-.36-.45-.63-.79-.827a2.022 2.022 0 0 0-1.08-.288c-.396 0-.756.09-1.079.27-.324.18-.594.45-.774.81-.198.36-.288.773-.288 1.258 0 .486.09.918.288 1.277.198.36.45.63.773.828.324.197.684.287 1.08.287.395 0 .755-.09 1.08-.287.332-.2.605-.487.79-.828.198-.36.288-.773.288-1.259 0-.485-.09-.899-.288-1.259v.018zm7.356-1.312c.486.468.72 1.151.72 2.032v3.741h-1.044v-3.597c0-.63-.162-1.115-.485-1.457-.324-.34-.756-.503-1.295-.503-.54 0-1.007.18-1.33.521-.325.342-.487.864-.487 1.53v3.524h-1.06V53.94h1.06v.9c.216-.324.486-.576.846-.756.36-.18.755-.27 1.187-.27.773 0 1.402.233 1.888.701zm2.644 5.63a2.04 2.04 0 0 1-.917-.703 2.092 2.092 0 0 1-.378-1.025h1.097c.036.324.18.576.45.774.27.197.611.305 1.043.305.396 0 .72-.09.953-.27a.804.804 0 0 0 .342-.683c0-.288-.126-.486-.378-.63-.252-.143-.63-.27-1.15-.395a8.634 8.634 0 0 1-1.152-.378 2.03 2.03 0 0 1-.773-.575c-.216-.252-.324-.576-.324-.99 0-.323.09-.629.288-.899.198-.27.467-.485.827-.647.36-.162.756-.234 1.223-.234.702 0 1.277.18 1.71.54.43.36.664.845.7 1.456h-1.06c-.019-.34-.163-.593-.397-.809-.233-.198-.575-.306-.97-.306-.379 0-.684.09-.9.252-.216.162-.342.378-.342.648a.75.75 0 0 0 .198.521c.126.144.306.252.504.324.197.09.485.18.845.27.45.125.827.251 1.115.36.288.125.54.305.737.54.198.233.306.556.324.934 0 .342-.09.666-.288.935-.197.27-.467.504-.827.648-.36.162-.755.234-1.205.234-.486 0-.917-.09-1.313-.252l.018.054zm6.35-5.955c.413-.25.9-.359 1.438-.359.54 0 1.08.144 1.547.414.467.27.827.647 1.08 1.15.27.486.394 1.062.394 1.71 0 .647-.126 1.223-.395 1.726-.27.504-.63.9-1.08 1.17-.467.27-.97.413-1.546.413-.576 0-1.025-.126-1.44-.36a2.464 2.464 0 0 1-.952-.917v4.19h-1.062V53.94h1.062v1.17a2.69 2.69 0 0 1 .935-.918h.018v-.002zm3.092 1.638c-.197-.36-.45-.63-.79-.81a2.184 2.184 0 0 0-1.08-.27c-.396 0-.756.09-1.08.288a2.193 2.193 0 0 0-.79.827c-.198.36-.288.774-.288 1.241 0 .468.09.9.287 1.26.198.36.468.63.792.827.323.198.683.287 1.08.287.395 0 .754-.09 1.08-.287.322-.198.592-.468.79-.828.197-.36.287-.79.287-1.277 0-.485-.09-.899-.288-1.258zm2.015-.468c.27-.486.63-.882 1.08-1.15.467-.27.97-.415 1.546-.415.575 0 1.043.126 1.457.36.413.233.72.54.917.9v-1.17h1.061v6.367h-1.06v-1.187a2.413 2.413 0 0 1-.936.917c-.414.252-.9.36-1.44.36a2.996 2.996 0 0 1-1.528-.414 3.08 3.08 0 0 1-1.08-1.169c-.269-.504-.395-1.08-.395-1.727s.126-1.223.396-1.708l-.018.036zm4.712.467c-.198-.36-.45-.63-.79-.827a2.02 2.02 0 0 0-1.08-.288c-.396 0-.756.09-1.08.27-.323.18-.593.45-.773.81-.198.36-.288.773-.288 1.258 0 .486.09.918.288 1.277.198.36.45.63.773.828.324.197.684.287 1.08.287.395 0 .755-.09 1.08-.287.322-.198.592-.468.79-.828.198-.36.288-.773.288-1.259 0-.485-.09-.899-.288-1.259v.018zm4.245-1.727c.342-.197.755-.305 1.26-.305v1.097h-.289c-1.187 0-1.78.647-1.78 1.924v3.454h-1.06v-6.367h1.06v1.025a2 2 0 0 1 .791-.845l.018.018zm7.482 3.4h-5.09c.036.63.251 1.115.647 1.475.396.36.864.521 1.421.521.45 0 .845-.107 1.151-.323.306-.216.522-.504.648-.846h1.133a2.628 2.628 0 0 1-1.026 1.493c-.503.378-1.15.576-1.906.576a3.184 3.184 0 0 1-1.619-.414 2.864 2.864 0 0 1-1.115-1.15 3.602 3.602 0 0 1-.413-1.728c0-.647.126-1.24.395-1.726.27-.486.63-.882 1.115-1.15.468-.27 1.026-.397 1.637-.397.612 0 1.133.126 1.6.396.468.27.828.63 1.08 1.08.252.467.378.99.378 1.564 0 .197 0 .412-.036.63zm-1.33-1.906a1.83 1.83 0 0 0-.72-.666 2.13 2.13 0 0 0-1.008-.234c-.54 0-.99.162-1.367.504-.377.342-.593.81-.647 1.42h4.01c0-.395-.09-.755-.27-1.042l.001.018zm6.995-1.079c.486.468.72 1.151.72 2.032v3.741h-1.044v-3.597c0-.63-.162-1.115-.485-1.457-.324-.34-.756-.503-1.295-.503-.54 0-1.007.18-1.33.521-.325.342-.487.864-.487 1.53v3.524h-1.06V53.94h1.06v.9c.216-.324.486-.576.846-.756.36-.18.755-.27 1.187-.27.773 0 1.403.233 1.888.701zm2.986.288v3.74c0 .306.072.522.197.666.126.144.36.198.684.198h.773v.9h-.953c-.593 0-1.025-.145-1.33-.415-.289-.27-.45-.719-.45-1.33V54.82H88.2v-.864h.828v-1.6h1.06v1.6h1.655v.864H90.09l.018-.018v.001zm-40.18 14.963c.252.198.431.432.575.72.144.287.216.593.216.917 0 .413-.108.773-.306 1.115-.197.341-.52.593-.917.773-.396.18-.863.288-1.42.288h-3.022v-8.094h2.895c.558 0 1.026.09 1.403.27.396.18.684.432.864.738a1.9 1.9 0 0 1 .287 1.043c0 .485-.126.881-.395 1.187a2.2 2.2 0 0 1-1.025.683c.287.054.557.162.81.36h.035zm-3.795-.79h1.78c.504 0 .882-.127 1.152-.343.27-.216.413-.558.413-.97 0-.415-.144-.739-.413-.973-.27-.233-.666-.34-1.17-.34h-1.744v2.625h-.018zm3.093 3.362c.288-.252.45-.594.45-1.043 0-.45-.162-.81-.468-1.06-.305-.253-.719-.397-1.24-.397h-1.835v2.86h1.87c.522 0 .936-.126 1.223-.378v.018zm4.065-4.946c.342-.198.756-.306 1.26-.306v1.097h-.288c-1.187 0-1.78.647-1.78 1.924v3.454H51.42v-6.367h1.061v1.025a2 2 0 0 1 .791-.845l.018.018zm2.878 5.881a2.797 2.797 0 0 1-1.133-1.15 3.603 3.603 0 0 1-.414-1.728c0-.647.144-1.223.432-1.726a2.95 2.95 0 0 1 1.15-1.15c.486-.27 1.026-.397 1.638-.397.611 0 1.15.126 1.636.396s.881.647 1.151 1.15c.288.504.432 1.08.432 1.727 0 .648-.144 1.242-.432 1.727-.276.49-.689.89-1.187 1.151a3.422 3.422 0 0 1-1.654.414 3.23 3.23 0 0 1-1.619-.414zm2.698-.79c.323-.18.593-.45.81-.81.197-.36.305-.79.305-1.295 0-.504-.108-.954-.306-1.296a1.866 1.866 0 0 0-.79-.79 2.381 2.381 0 0 0-1.062-.27c-.378 0-.738.09-1.062.27a1.93 1.93 0 0 0-.773.79c-.198.36-.288.792-.288 1.296 0 .503.09.953.288 1.312.198.36.45.63.755.792a2.1 2.1 0 0 0 1.044.27c.377 0 .737-.09 1.06-.27h.02zm6.385 1.097-2.5-2.806v2.805H61.69v-8.597h1.062v5.054l2.446-2.823h1.474l-3.003 3.165 3.003 3.201h-1.438l.018.001z"/><path d="M72.698 70.79h-5.09c.036.63.252 1.116.647 1.476.396.36.864.52 1.42.52.45 0 .847-.106 1.152-.322.306-.216.522-.504.648-.846h1.133a2.63 2.63 0 0 1-1.025 1.493c-.522.378-1.151.576-1.907.576a3.186 3.186 0 0 1-1.618-.414 2.867 2.867 0 0 1-1.116-1.15 3.602 3.602 0 0 1-.413-1.728c0-.647.126-1.24.395-1.726.27-.504.63-.882 1.116-1.151.467-.27 1.025-.396 1.636-.396.612 0 1.133.126 1.6.396.469.27.828.63 1.08 1.079.25.45.378.99.378 1.565 0 .197 0 .413-.036.647v-.018zm-1.331-1.905a1.832 1.832 0 0 0-.72-.666 2.128 2.128 0 0 0-1.007-.234c-.54 0-.99.162-1.367.504-.377.342-.593.81-.647 1.42h4.01c0-.395-.09-.755-.27-1.042v.018zm3.849-1.493c.34-.198.755-.306 1.259-.306v1.097h-.288c-1.187 0-1.78.647-1.78 1.924v3.454h-1.062v-6.367h1.06v1.025c.18-.36.45-.647.793-.845l.018.018zM53.543 45.629c.18-.36.45-.63.773-.828a2.084 2.084 0 0 1 1.097-.287c.396 0 .738.09 1.043.252.288.18.522.395.666.647v-.827h.755v4.55h-.755v-.845c-.144.27-.378.485-.666.665-.287.18-.647.27-1.025.27a2.072 2.072 0 0 1-1.87-1.151 2.724 2.724 0 0 1-.288-1.223c0-.45.09-.881.288-1.223h-.018zm3.363.342a1.61 1.61 0 0 0-.557-.594 1.46 1.46 0 0 0-.774-.198c-.27 0-.54.072-.773.198a1.43 1.43 0 0 0-.558.575c-.15.276-.224.586-.216.9 0 .342.072.647.216.917.144.252.324.45.558.594.233.144.485.197.773.197.27 0 .536-.067.773-.197.234-.126.414-.324.558-.594.144-.252.216-.557.216-.9 0-.34-.072-.647-.216-.898zm5.288-.954c.342.342.52.827.52 1.457v2.68h-.754v-2.572c0-.45-.108-.81-.342-1.044-.233-.233-.54-.36-.935-.36-.396 0-.72.127-.953.378-.234.252-.36.612-.36 1.098v2.517h-.755v-4.55h.755v.648c.144-.234.36-.414.612-.54.25-.126.54-.198.845-.198.558 0 1.007.162 1.349.504l.018-.018zm1.205.612c.18-.36.45-.63.773-.828.324-.197.702-.287 1.115-.287.36 0 .684.072.99.252.305.16.539.377.7.647v-2.41h.756v6.15h-.755v-.862c-.155.28-.386.51-.666.665a2.1 2.1 0 0 1-2.122-.036 2.07 2.07 0 0 1-.773-.845 2.722 2.722 0 0 1-.288-1.223c0-.45.09-.881.288-1.223h-.018zm3.363.342a1.612 1.612 0 0 0-.558-.594 1.46 1.46 0 0 0-.773-.198c-.27 0-.54.072-.773.198-.237.135-.43.335-.558.576-.15.275-.224.585-.216.899 0 .342.072.647.216.917.144.252.324.45.558.594.233.144.485.197.773.197.27 0 .536-.067.773-.197.234-.126.414-.324.558-.594.144-.252.216-.557.216-.9 0-.34-.072-.647-.216-.898zm-14.37 54.083c.385-.343.729-.73 1.025-1.151.288-.396.414-.791.414-1.187 0-.36-.09-.666-.27-.863-.18-.216-.468-.324-.863-.324-.396 0-.684.126-.9.36-.215.233-.323.557-.341.953h-.738c.018-.63.216-1.115.576-1.457.36-.342.827-.522 1.403-.522.575 0 1.043.162 1.385.486.34.324.52.755.52 1.33 0 .468-.143.918-.412 1.368a5.539 5.539 0 0 1-.954 1.169c-.36.342-.81.719-1.367 1.169h2.914v.647h-4.065v-.557c.578-.456 1.141-.93 1.69-1.421h-.017zm3.92-3.363c.325-.54.864-.81 1.655-.81.792 0 1.33.27 1.655.81.324.54.468 1.295.468 2.266 0 .972-.162 1.763-.468 2.303-.306.539-.863.827-1.654.827-.792 0-1.35-.27-1.655-.827-.306-.558-.468-1.313-.468-2.303s.162-1.726.468-2.266zm2.914 1.025c-.071-.341-.197-.611-.395-.827-.198-.216-.486-.306-.864-.306-.377 0-.683.108-.88.306a1.55 1.55 0 0 0-.397.827c-.062.41-.092.825-.09 1.24 0 .487.037.937.09 1.278.055.342.198.612.396.828.198.216.486.305.882.305.395 0 .665-.107.863-.305.198-.216.324-.486.395-.828.072-.341.09-.773.09-1.277 0-.503-.035-.9-.09-1.241zm3.687 2.338c.385-.343.73-.73 1.026-1.151.287-.396.413-.791.413-1.187 0-.36-.09-.666-.27-.863-.18-.216-.467-.324-.863-.324-.395 0-.683.126-.9.36-.215.233-.323.557-.34.953h-.738c.018-.63.215-1.115.575-1.457.36-.342.828-.522 1.403-.522.576 0 1.043.162 1.385.486.342.324.522.755.522 1.33 0 .468-.144.918-.414 1.368a5.56 5.56 0 0 1-.953 1.169c-.36.342-.81.719-1.367 1.169h2.913v.647H61.24v-.557c.578-.456 1.141-.93 1.69-1.421h-.018zm4.01-3.777c.36-.287.829-.431 1.404-.431.378 0 .72.072.99.215.27.144.485.324.63.558.143.234.215.504.215.81 0 .34-.108.647-.306.899a1.366 1.366 0 0 1-.773.485v.036c.36.09.647.27.863.54.216.27.324.61.324 1.043 0 .324-.072.612-.216.863-.144.252-.36.45-.666.612-.287.144-.647.216-1.06.216-.594 0-1.098-.162-1.475-.468-.378-.306-.594-.755-.648-1.331h.737c.037.342.18.612.414.827.234.216.558.324.953.324.396 0 .702-.108.9-.306.197-.215.305-.467.305-.809 0-.414-.143-.72-.431-.917-.288-.18-.702-.27-1.277-.27h-.198v-.647h.198c.52 0 .917-.09 1.169-.252.27-.162.396-.432.396-.774 0-.305-.09-.54-.288-.72-.198-.18-.468-.27-.828-.27-.36 0-.63.09-.845.27a1.09 1.09 0 0 0-.378.72h-.755c.036-.521.234-.917.594-1.223h.053zm-22.14-15.234c.667.503 1.08 1.187 1.26 2.05H43.92a1.532 1.532 0 0 0-.647-.701 2.085 2.085 0 0 0-1.044-.27c-.63 0-1.133.216-1.51.63-.378.43-.576 1.007-.576 1.726 0 .79.198 1.385.594 1.817.395.413.97.63 1.708.63.468 0 .9-.127 1.26-.397.359-.27.61-.63.755-1.115h-2.518v-1.438h4.19v1.978c-.166.492-.422.95-.755 1.349-.357.43-.805.774-1.313 1.007-.54.252-1.151.378-1.835.378-.827 0-1.564-.18-2.194-.54a3.598 3.598 0 0 1-1.44-1.493c-.34-.63-.502-1.367-.502-2.176 0-.81.162-1.547.503-2.194a3.71 3.71 0 0 1 1.44-1.493c.61-.36 1.348-.522 2.175-.522 1.044 0 1.889.252 2.554.756l.019.018zm4.48 6.06h2.662v1.53h-4.658v-8.274h1.996v6.745zm9.622-6.33a3.89 3.89 0 0 1 1.493 1.51 4.4 4.4 0 0 1 .558 2.177c0 .81-.18 1.547-.558 2.194-.36.63-.88 1.15-1.51 1.51-.63.36-1.35.54-2.105.54a4.21 4.21 0 0 1-2.104-.54 4.06 4.06 0 0 1-1.511-1.51c-.378-.647-.558-1.367-.558-2.194s.18-1.53.558-2.176c.36-.63.88-1.151 1.51-1.511.63-.36 1.332-.54 2.105-.54.773 0 1.493.18 2.122.54zm-3.687 1.96c-.377.432-.575 1.008-.575 1.727 0 .72.198 1.295.575 1.727.378.43.9.647 1.565.647.666 0 1.17-.216 1.547-.647.377-.432.593-1.008.593-1.727 0-.72-.198-1.295-.575-1.727-.378-.431-.9-.647-1.565-.647-.666 0-1.17.216-1.565.63v.017zm13.004 2.357c.288.36.43.79.43 1.277 0 .7-.232 1.259-.7 1.655-.468.395-1.151.593-2.032.593h-3.85v-8.273h3.76c.845 0 1.493.18 1.96.557.468.36.684.882.684 1.565 0 .504-.126.917-.396 1.24a1.921 1.921 0 0 1-1.043.649c.503.126.9.36 1.187.719v.018zm-4.137-1.35h1.313c.702 0 1.043-.305 1.043-.88 0-.576-.36-.882-1.06-.882h-1.278v1.78l-.018-.017zm2.536 2.357c0-.306-.09-.521-.288-.701-.198-.162-.467-.252-.827-.252h-1.42v1.852h1.42c.737 0 1.115-.305 1.115-.917v.018zm8.219 1.025h-3.093l-.522 1.51H69.1l3.022-8.2h2.302l3.02 8.2h-2.121l-.522-1.51h.018zm-.521-1.51-1.025-3.04-1.043 3.04h2.068zm5.935 1.492h2.662v1.529h-4.658v-8.274h1.996v6.745zM26.493 99.317c-.052.39-.155.77-.306 1.133-.36.791-1.08 1.618-2.662 1.672-.791.018-1.78-.144-2.824-.431-1.007-.324-2.104-.738-3.057-1.223-.458-.22-.908-.454-1.35-.702a32.57 32.57 0 0 1-1.06-.647c-.612-.378-.99-.63-.99-.63s.846-.63 2.087-1.24c1.24-.612 2.806-1.188 4.316-1.134.936.036 1.817.324 2.626.684-.503-.432-1.043-.918-1.636-1.44a77.494 77.494 0 0 1-1.781-1.744c-.121.35-.297.677-.522.97-.503.667-1.402 1.332-2.95 1.098-1.528-.233-3.65-1.402-5.287-2.661-.845-.612-1.53-1.241-2.032-1.691-.504-.468-.81-.773-.81-.773s.917-.45 2.194-.792c1.295-.36 2.896-.611 4.317-.288.737.162 1.42.504 2.014.882.126.072.252.162.36.252-.557-.684-1.133-1.385-1.69-2.14-.35-.476-.687-.962-1.008-1.458-.19.3-.427.567-.701.792-.63.52-1.637.989-3.094.45-.72-.27-1.546-.756-2.32-1.385a15.115 15.115 0 0 1-1.17-1.008c-.36-.36-.72-.737-1.06-1.097-.683-.72-1.223-1.44-1.62-1.96-.394-.522-.63-.864-.63-.864s.955-.251 2.25-.36c1.295-.107 2.86-.053 4.173.504.662.306 1.27.719 1.798 1.223.09.072.144.144.234.234-.306-.54-.593-1.08-.9-1.655-.36-.701-.7-1.42-1.024-2.158-.198.18-.468.396-.828.594-.72.377-1.798.61-3.093-.18-1.313-.773-2.752-2.5-3.723-4.12-.24-.375-.468-.759-.684-1.15-.18-.36-.36-.701-.485-.971-.27-.558-.432-.917-.432-.917s.953-.072 2.194.054c1.24.125 2.716.45 3.867 1.205.666.45 1.205 1.043 1.655 1.672-.234-.665-.45-1.35-.666-2.032a69.62 69.62 0 0 1-.503-1.835c-.216.126-.54.288-.918.396-.773.216-1.852.216-2.985-.773-.558-.504-1.115-1.205-1.6-2.015-.45-.81-.864-1.708-1.224-2.536-.18-.413-.324-.827-.468-1.187-.125-.377-.215-.72-.287-.99l-.234-.934s.917.09 2.068.43c1.15.325 2.482.9 3.49 1.818.511.498.93 1.083 1.24 1.727.036.072.054.126.09.197l-.144-.97-.323-2.32-.054-.774c-.315.1-.641.161-.971.18-.792.035-1.835-.18-2.752-1.331-.99-1.152-1.547-3.13-1.943-4.82-.216-.846-.234-1.62-.305-2.195-.02-.306-.043-.612-.072-.917 0 0 .863.252 1.888.755 1.043.522 2.23 1.277 2.986 2.32.467.63.755 1.33.97 2.015.019-.791.055-1.583.073-2.374l.036-1.187c0-.09 0-.198.018-.288-.318.022-.638.01-.953-.036-.792-.126-1.745-.557-2.464-1.816-.378-.648-.594-1.457-.756-2.32a16.523 16.523 0 0 1-.288-2.61c0-1.635.162-2.966.162-2.966s3.094 1.529 4.119 3.759c.342.7.522 1.457.63 2.176.09-.611.197-1.223.34-1.816.145-.648.27-1.296.415-1.961a4.255 4.255 0 0 1-.953-.234c-.738-.288-1.601-.9-2.07-2.248-.215-.683-.304-1.493-.322-2.338 0-.845.018-1.727.18-2.482.27-1.547.629-2.752.629-2.752s2.68 1.96 3.31 4.263a9.87 9.87 0 0 1 .25 2.032c0 .126 0 .252-.017.378a44.407 44.407 0 0 1 1.367-3.76 3.822 3.822 0 0 1-.917-.45 3.638 3.638 0 0 1-.972-.934 3.357 3.357 0 0 1-.611-1.637c-.18-1.385.108-3.237.647-4.622.213-.593.442-1.181.684-1.763.09-.216.18-.395.234-.521.072-.108.108-.18.108-.18s.54.557 1.133 1.42c.575.864 1.205 2.015 1.313 3.166.054.81-.036 1.655-.18 2.428.144-.306.288-.593.432-.9.467-.862.953-1.69 1.438-2.5a3.614 3.614 0 0 1-.827-.647 4.221 4.221 0 0 1-.791-1.115c-.216-.467-.324-1.025-.306-1.69 0-.702.18-1.457.413-2.212.216-.756.594-1.44.936-2.07.342-.63.665-1.15.917-1.546.126-.197.234-.341.306-.431.04-.05.082-.098.126-.144 0 0 .108.162.27.43.16.27.36.649.575 1.099.414.917.827 2.104.755 3.219-.072.845-.305 1.673-.593 2.446.486-.701.953-1.385 1.457-2.032.305-.36.593-.72.88-1.061a4.582 4.582 0 0 1-.72-.828c-.448-.665-.826-1.654-.574-2.95.126-.683.396-1.384.738-2.068.34-.665.79-1.26 1.204-1.798.414-.522.81-.972 1.098-1.277.287-.324.485-.468.485-.468s.072.162.18.45c.108.27.234.665.36 1.133.252.935.45 2.122.198 3.165-.216.828-.576 1.619-.972 2.32.774-.791 1.53-1.564 2.267-2.284.143-.108.27-.234.395-.341a4.676 4.676 0 0 1-.54-.954 3.872 3.872 0 0 1-.053-3.003c.234-.648.593-1.277 1.025-1.87.414-.594.953-1.062 1.403-1.512.935-.845 1.744-1.384 1.744-1.384s.756 2.697-.035 4.622c-.342.773-.81 1.529-1.296 2.158.792-.647 1.62-1.187 2.357-1.727a5.343 5.343 0 0 1 2.32-3.58C31.205 15.559 35.827 15 35.827 15s-2.194 4.083-4.586 5.72c-1.69 1.15-3.363.989-4.227.79-.701.576-1.493 1.116-2.266 1.78l-.018.019c.72-.377 1.547-.701 2.428-.72 2.032-.09 4.029 1.728 4.029 1.728s-.612.467-1.53.953c-.45.252-1.006.45-1.546.683-.557.216-1.15.396-1.762.45-.576.054-1.115 0-1.601-.126a4.82 4.82 0 0 1-1.223-.486 4.798 4.798 0 0 1-.881-.611c-.126.108-.252.234-.378.342-.701.7-1.403 1.456-2.14 2.212.63-.432 1.367-.774 2.176-.9 1.043-.18 2.14.144 2.968.504.413.18.773.378 1.025.54.252.162.395.252.395.252s-.161.125-.413.34c-.252.217-.63.505-1.08.81-.45.306-.988.612-1.528.9-.54.306-1.133.54-1.727.683-1.17.27-2.176.018-2.895-.27-.32-.131-.621-.3-.9-.503-.287.342-.557.7-.845 1.043-.45.594-.881 1.223-1.313 1.87.558-.485 1.205-.917 1.979-1.133 1.043-.305 2.212-.125 3.129.162.45.144.845.306 1.133.432.288.126.45.216.45.216l-.108.108c-.072.072-.18.162-.288.306-.252.25-.593.61-1.025.97-.414.378-.971.738-1.475 1.134a7.021 7.021 0 0 1-1.69.917 4.136 4.136 0 0 1-1.62.27c-.485 0-.917-.09-1.294-.216a4.12 4.12 0 0 1-.918-.414c-.467.81-.935 1.62-1.385 2.446-.125.252-.251.522-.377.792.485-.558 1.06-1.061 1.78-1.367 1.026-.45 2.267-.414 3.256-.252.97.162 1.708.45 1.708.45s-.035.036-.107.126c-.054.09-.144.197-.27.36-.234.287-.558.7-.954 1.132-.845.846-1.816 1.943-2.967 2.536a4.93 4.93 0 0 1-1.565.504c-.438.047-.88.029-1.313-.054a4.854 4.854 0 0 1-.953-.324 43.742 43.742 0 0 0-1.26 3.562c.055-.072.09-.144.127-.216.36-.522.81-1.026 1.403-1.367 1.996-1.223 5.144-.468 5.144-.468s-.45.845-1.17 1.853c-.395.503-.755 1.079-1.204 1.6-.45.54-.936 1.026-1.475 1.403-.79.619-1.79.909-2.788.81-.414-.036-.755-.144-.99-.216-.125.63-.251 1.277-.377 1.906-.144.594-.234 1.205-.324 1.799.306-.666.72-1.295 1.277-1.78 1.889-1.548 5.252-1.206 5.252-1.206s-.36.935-.99 2.069c-.287.575-.593 1.222-.988 1.834-.373.59-.8 1.144-1.277 1.655a3.83 3.83 0 0 1-2.698 1.187c-.396 0-.738-.054-.99-.108 0 .09-.017.198-.017.288l-.036 1.15-.054 2.303v.09c.216-.702.54-1.403 1.007-1.98.81-.934 2.158-1.438 3.237-1.707a11.025 11.025 0 0 1 1.979-.306s-.072.252-.198.666c-.108.413-.36.989-.54 1.618-.377 1.277-1.043 2.842-1.78 3.903-.756 1.043-1.745 1.439-2.536 1.547a3.6 3.6 0 0 1-.99 0c0 .252.037.503.055.755.107.756.215 1.493.323 2.248l.126.918s0-.126.036-.198c.126-.666.342-1.331.702-1.907.647-1.06 1.96-1.798 3.04-2.248a11.67 11.67 0 0 1 1.977-.63s-.035.27-.107.72c-.036.216-.09.486-.144.79-.036.289-.09.63-.144.973-.108.683-.27 1.457-.504 2.212-.18.737-.413 1.475-.737 2.068-.612 1.17-1.53 1.69-2.302 1.907-.378.09-.72.126-.99.108l.486 1.78c.198.684.432 1.35.666 2.015-.036-.756.072-1.547.395-2.267.522-1.187 1.727-2.14 2.77-2.751a12.488 12.488 0 0 1 1.925-.954v.756c0 .467-.018 1.133-.037 1.852-.071 1.457-.125 3.256-.557 4.533-.45 1.295-1.26 1.924-2.05 2.23a3.554 3.554 0 0 1-.972.234 48.498 48.498 0 0 0 1.835 3.615c0-.072-.036-.162-.054-.234-.108-.683-.108-1.403.072-2.086.36-1.313 1.42-2.464 2.374-3.256a13.722 13.722 0 0 1 1.817-1.277s.053.288.125.774c.072.485.162 1.169.252 1.906.054.378.09.774.126 1.187.054.396.09.81.108 1.223.036.828.054 1.619-.072 2.302-.252 1.367-.971 2.123-1.71 2.536a4.267 4.267 0 0 1-.97.378c.324.486.648.953.97 1.403.523.72 1.063 1.385 1.584 2.032a2.602 2.602 0 0 1-.144-.323 5.152 5.152 0 0 1-.287-2.087c.143-1.385 1.043-2.734 1.888-3.705a14.349 14.349 0 0 1 1.655-1.62s.09.289.252.775c.143.485.36 1.169.575 1.906.414 1.51.99 3.346.97 4.749 0 1.42-.63 2.284-1.312 2.787-.341.27-.701.414-.97.522.56.572 1.13 1.136 1.708 1.69.575.504 1.097.99 1.582 1.403-.467-.72-.845-1.564-.9-2.446-.107-1.42.595-2.967 1.278-4.1.702-1.133 1.403-1.925 1.403-1.925s.144.288.396.756c.108.233.252.52.413.827.162.306.324.665.504 1.007.342.756.755 1.529 1.08 2.356.34.792.647 1.565.755 2.266.233 1.42-.27 2.41-.882 3.004-.28.27-.602.495-.953.665.234.162.36.27.36.27h.036c.34.27.413.756.162 1.08a.754.754 0 0 1-1.062.16s-.126-.09-.36-.27l.073-.07zm66.654.269a.753.753 0 0 1-1.06-.162.752.752 0 0 1 .16-1.061h.037s.126-.126.36-.288a4.03 4.03 0 0 1-.953-.665c-.612-.594-1.115-1.583-.882-3.004.108-.701.414-1.493.756-2.266.323-.827.737-1.6 1.079-2.356.18-.36.36-.702.503-1.007.144-.306.288-.594.414-.828.234-.467.396-.755.396-.755s.7.79 1.403 1.924c.683 1.133 1.385 2.662 1.277 4.1-.054.9-.414 1.728-.9 2.447.486-.414 1.008-.9 1.583-1.403a74.408 74.408 0 0 0 1.709-1.69 3.473 3.473 0 0 1-.971-.522c-.684-.504-1.296-1.367-1.313-2.788 0-1.403.557-3.22.97-4.748.235-.737.432-1.42.576-1.906.162-.486.252-.774.252-.774s.81.648 1.655 1.619c.845.97 1.744 2.32 1.888 3.705.072.7-.054 1.42-.287 2.086-.036.108-.108.216-.144.324.521-.647 1.061-1.313 1.582-2.032.324-.45.648-.918.972-1.403a3.061 3.061 0 0 1-.972-.378c-.737-.414-1.456-1.151-1.708-2.536-.126-.683-.09-1.475-.072-2.302.018-.414.072-.827.108-1.223.036-.414.072-.81.126-1.187.108-.738.197-1.421.251-1.907.072-.467.126-.773.126-.773s.864.486 1.817 1.277c.953.79 2.032 1.942 2.374 3.255.18.684.18 1.403.072 2.087 0 .072-.036.162-.054.234a48.816 48.816 0 0 0 1.834-3.616 3.958 3.958 0 0 1-.971-.233c-.773-.306-1.582-.936-2.05-2.23-.432-1.296-.504-3.076-.558-4.533 0-.72-.018-1.367-.036-1.852v-.756s.9.324 1.925.953c1.025.612 2.248 1.565 2.77 2.752.323.72.413 1.51.395 2.266.234-.665.45-1.33.666-2.014.18-.594.341-1.187.485-1.78-.251 0-.611 0-.989-.11-.791-.196-1.708-.718-2.302-1.905-.324-.594-.558-1.313-.737-2.068a23.935 23.935 0 0 1-.504-2.213c-.054-.341-.108-.665-.144-.97-.036-.29-.108-.558-.144-.792-.072-.45-.108-.72-.108-.72s.9.18 1.979.63c1.079.45 2.392 1.169 3.039 2.248.36.576.576 1.24.702 1.907 0 .072.018.125.036.197l.126-.917c.108-.737.215-1.493.323-2.248.036-.252.036-.504.054-.756a3.6 3.6 0 0 1-.989 0c-.791-.107-1.78-.503-2.536-1.546-.719-1.061-1.403-2.626-1.78-3.903-.18-.648-.432-1.205-.54-1.62a39.232 39.232 0 0 1-.198-.664s.881.036 1.979.306c1.079.27 2.428.773 3.237 1.708.468.576.791 1.277 1.007 1.978v-.09l-.054-2.302-.036-1.15c0-.09 0-.2-.018-.288a4.73 4.73 0 0 1-.989.108c-.791 0-1.817-.27-2.698-1.188a11.221 11.221 0 0 1-1.277-1.654c-.395-.612-.701-1.26-.989-1.835a20.083 20.083 0 0 1-.989-2.068s3.363-.342 5.252 1.205c.557.486.971 1.133 1.277 1.78a19.563 19.563 0 0 0-.324-1.798c-.126-.63-.252-1.277-.378-1.907a3.71 3.71 0 0 1-.989.216 3.875 3.875 0 0 1-2.788-.81c-.539-.377-1.043-.88-1.475-1.402-.449-.54-.809-1.115-1.205-1.6a15.335 15.335 0 0 1-1.169-1.853s3.148-.773 5.144.468c.594.34 1.025.845 1.403 1.366.054.072.09.144.126.216a39.692 39.692 0 0 0-1.259-3.561 4.48 4.48 0 0 1-.953.324c-.378.072-.828.126-1.313.054a4.629 4.629 0 0 1-1.565-.504c-1.151-.575-2.104-1.672-2.968-2.536a12.43 12.43 0 0 1-.953-1.133c-.108-.144-.198-.27-.27-.36-.072-.072-.108-.126-.108-.126s.738-.287 1.709-.45c.971-.161 2.212-.215 3.255.253.72.305 1.313.809 1.781 1.366a29.153 29.153 0 0 0-.378-.79 61.737 61.737 0 0 0-1.385-2.447 4.53 4.53 0 0 1-.917.414 4.068 4.068 0 0 1-1.295.216 5 5 0 0 1-1.619-.27 6.997 6.997 0 0 1-1.69-.917c-.504-.378-1.061-.756-1.475-1.133a14.68 14.68 0 0 1-1.025-.972c-.126-.126-.216-.234-.288-.306l-.108-.107s.162-.09.45-.216c.37-.163.748-.308 1.133-.432.917-.27 2.086-.468 3.129-.162.756.216 1.421.648 1.979 1.133a38.59 38.59 0 0 0-1.313-1.87c-.288-.36-.576-.702-.845-1.043a4.331 4.331 0 0 1-.9.503 4.64 4.64 0 0 1-2.895.27c-.612-.126-1.188-.378-1.727-.683-.54-.288-1.097-.594-1.53-.9a12.31 12.31 0 0 1-1.078-.81c-.252-.215-.414-.341-.414-.341s.144-.108.396-.252c.327-.206.67-.386 1.025-.54.828-.36 1.925-.683 2.968-.503.81.126 1.547.486 2.176.9-.737-.756-1.44-1.511-2.14-2.213-.126-.108-.252-.234-.378-.341-.27.236-.566.44-.881.61-.342.199-.756.36-1.223.487a4.642 4.642 0 0 1-1.6.126 5.916 5.916 0 0 1-1.763-.45c-.54-.234-1.098-.432-1.547-.683a10.112 10.112 0 0 1-1.53-.954s1.997-1.816 4.03-1.726c.899 0 1.708.34 2.428.72l-.018-.02c-.774-.664-1.565-1.204-2.266-1.78a5.324 5.324 0 0 1-4.227-.791c-2.374-1.618-4.568-5.72-4.568-5.72s4.622.558 6.996 2.14a5.345 5.345 0 0 1 2.32 3.58c.756.54 1.565 1.079 2.356 1.727-.485-.648-.953-1.385-1.295-2.16-.773-1.923-.036-4.621-.036-4.621s.81.54 1.745 1.385c.468.432.99.917 1.403 1.51.413.594.79 1.224 1.025 1.87.468 1.206.252 2.25-.054 3.005-.18.432-.396.755-.54.953l.396.342c.738.72 1.493 1.493 2.266 2.284-.395-.701-.755-1.493-.97-2.32-.235-1.061-.037-2.248.197-3.166.126-.467.27-.863.36-1.133l.18-.45s.215.163.485.468c.288.306.684.756 1.097 1.277.414.54.864 1.134 1.205 1.799.342.683.612 1.385.738 2.068.252 1.295-.126 2.285-.576 2.95-.2.308-.442.586-.719.827.288.36.575.702.881 1.06.504.649.971 1.332 1.457 2.034-.288-.756-.522-1.6-.594-2.446-.072-1.115.342-2.302.756-3.22.216-.45.413-.845.575-1.097.162-.27.27-.431.27-.431s.036.053.126.143c.072.09.18.252.306.432.252.378.575.917.917 1.547.324.63.701 1.313.935 2.068.234.756.396 1.51.414 2.212a3.953 3.953 0 0 1-.306 1.69 3.85 3.85 0 0 1-.791 1.116c-.324.306-.63.522-.828.648.486.827.972 1.654 1.439 2.5.144.287.288.593.432.899-.144-.773-.234-1.62-.18-2.428.108-1.151.738-2.302 1.313-3.166.594-.863 1.133-1.42 1.133-1.42s.036.072.108.18c.054.125.126.305.234.52.198.45.45 1.062.683 1.764.54 1.385.828 3.219.648 4.622-.09.683-.306 1.205-.612 1.637a3.82 3.82 0 0 1-1.888 1.385 42.81 42.81 0 0 1 1.367 3.758c0-.125-.018-.251-.018-.377 0-.666.09-1.367.252-2.033.629-2.302 3.309-4.262 3.309-4.262s.36 1.205.629 2.752c.162.755.198 1.636.18 2.482 0 .845-.108 1.654-.323 2.338-.468 1.349-1.349 1.96-2.069 2.248-.36.144-.701.216-.953.234.144.647.27 1.295.414 1.96.143.594.251 1.205.341 1.817.108-.72.288-1.475.63-2.176 1.025-2.23 4.119-3.76 4.119-3.76s.161 1.313.161 2.968a16.438 16.438 0 0 1-.287 2.608c-.162.863-.36 1.673-.756 2.32-.701 1.277-1.672 1.69-2.464 1.817a4.482 4.482 0 0 1-.953.036c0 .09.018.197.018.288l.036 1.186c.018.792.054 1.583.072 2.375.216-.702.503-1.403.971-2.015.756-1.043 1.943-1.816 2.986-2.32 1.043-.522 1.888-.755 1.888-.755s-.018.34-.072.917c-.072.557-.108 1.33-.305 2.194-.396 1.69-.954 3.67-1.943 4.82-.917 1.15-1.96 1.367-2.752 1.33a4.083 4.083 0 0 1-.971-.18c0 .253-.036.523-.054.775l-.324 2.32-.144.97s.054-.125.09-.197a6.381 6.381 0 0 1 1.241-1.726c.99-.918 2.339-1.475 3.49-1.817 1.151-.324 2.068-.432 2.068-.432l-.234.936c-.072.288-.162.63-.288.989-.144.378-.287.773-.467 1.187a20.71 20.71 0 0 1-1.223 2.536c-.504.81-1.043 1.51-1.601 2.014-1.133.972-2.212.972-2.986.774a3.402 3.402 0 0 1-.917-.396c-.162.612-.324 1.24-.503 1.835a38.56 38.56 0 0 1-.666 2.032 7.65 7.65 0 0 1 1.655-1.673c1.151-.755 2.626-1.08 3.867-1.205 1.241-.126 2.194-.054 2.194-.054s-.162.36-.432.918c-.144.27-.306.61-.485.97-.198.36-.432.756-.684 1.152-.989 1.619-2.41 3.345-3.723 4.119-1.295.79-2.374.54-3.093.18a3.644 3.644 0 0 1-.828-.594 39.064 39.064 0 0 1-1.924 3.813c.072-.072.144-.162.234-.234a6.613 6.613 0 0 1 1.798-1.223c1.295-.575 2.878-.611 4.173-.504.757.063 1.509.183 2.248.36 0 0-.234.342-.629.863-.396.522-.936 1.24-1.619 1.96-.342.36-.684.738-1.061 1.098-.378.36-.774.683-1.169 1.007-.774.63-1.601 1.115-2.321 1.385-1.438.54-2.464.072-3.093-.45a3.753 3.753 0 0 1-.701-.79c-.342.503-.684.988-1.008 1.456-.557.755-1.133 1.457-1.69 2.14.126-.09.233-.18.359-.252.612-.395 1.277-.72 2.015-.88 1.421-.325 3.039-.073 4.316.287 1.277.36 2.195.79 2.195.79s-.288.307-.81.775c-.641.605-1.32 1.17-2.032 1.69-1.619 1.26-3.741 2.41-5.288 2.662-1.547.252-2.446-.431-2.95-1.097a3.243 3.243 0 0 1-.521-.971c-.612.63-1.223 1.205-1.78 1.744-.594.522-1.116 1.008-1.637 1.44.809-.36 1.69-.648 2.626-.684 1.51-.054 3.075.52 4.316 1.133.725.36 1.422.775 2.086 1.24 0 0-.377.235-.989.63-.306.18-.665.396-1.061.648-.414.216-.863.468-1.349.701-.953.486-2.032.9-3.057 1.223-1.044.288-2.033.45-2.824.432-1.6-.054-2.32-.881-2.662-1.673a3.834 3.834 0 0 1-.306-1.133c-.234.162-.36.27-.36.27l.036.036z"/></g><mask id="c" width="42" height="28" x="39" y="0" maskUnits="userSpaceOnUse" style="mask-type:luminance"><path fill="#fff" d="M39 0h42v28H39V0z"/></mask><g fill="#036" mask="url(#c)"><path d="M44.916 23.102c-5.687-6.069-5.466-15.682.496-21.47L43.944 0c-6.38 6.192-6.615 16.477-.532 22.97a15.76 15.76 0 0 0 22.566.537l-.04-.078c-5.961 5.79-15.333 5.741-21.024-.327h.002z"/><path d="M46.205 22.416a13.405 13.405 0 0 0 19.19.457l-.031-.066c-5.072 4.925-13.044 4.882-17.883-.278-4.836-5.162-4.648-13.338.423-18.26l-1.248-1.387c-5.426 5.267-5.626 14.013-.451 19.536v-.002z"/><path d="M48.63 21.956a11.4 11.4 0 0 0 16.318.39l-.028-.056c-4.31 4.188-11.088 4.15-15.203-.237-4.112-4.39-3.952-11.34.36-15.527l-1.062-1.178c-4.612 4.478-4.784 11.914-.385 16.608z"/><path d="M50.63 21.52a9.7 9.7 0 0 0 13.884.333l-.024-.047c-3.667 3.563-9.435 3.53-12.934-.202-3.5-3.735-3.364-9.65.305-13.21L50.96 7.39c-3.925 3.808-4.07 10.136-.328 14.13h-.002z"/><path d="M81 15.715H54.05v.305H81v-.305zm-25.43-5.61c.308 0 .557-.047.75-.14a1.46 1.46 0 0 0 .435-.296v-1.23H55.75v.343l.55.023v.75c-.07.047-.164.09-.281.13a1.478 1.478 0 0 1-.45.059c-.333 0-.594-.126-.782-.38-.19-.252-.284-.582-.284-.992V8.31c0-.403.097-.731.294-.984.196-.254.473-.38.835-.38a.975.975 0 0 1 .656.217l.11.472h.319v-.62a1.45 1.45 0 0 0-.475-.314 1.698 1.698 0 0 0-.656-.12c-.466 0-.838.16-1.117.48-.28.32-.421.738-.421 1.253v.056c0 .513.142.929.425 1.25.283.322.65.482 1.097.482v.003zm2.75-.345-.373-.066V6.388h-.83v.298l.377.066v2.942l-.377.066v.296h1.204V9.76zm1.276.346c.342 0 .613-.122.812-.363.2-.24.3-.552.3-.931V8.76c0-.377-.1-.688-.3-.932-.2-.243-.472-.364-.816-.364s-.613.12-.811.367c-.2.243-.3.554-.3.93v.052c0 .377.1.688.3.93.2.242.47.362.817.362h-.002zm-.664-1.345c0-.266.055-.49.166-.666a.545.545 0 0 1 .492-.266c.216 0 .382.089.496.266.11.177.168.4.168.666v.05c0 .27-.057.493-.168.668a.545.545 0 0 1-.49.264.556.556 0 0 1-.496-.264c-.111-.175-.166-.397-.166-.667V8.76h-.002zm2.2 1.296h.39l.04-.328c.08.124.18.218.3.28a.89.89 0 0 0 .424.095.85.85 0 0 0 .712-.338c.172-.224.26-.521.26-.888v-.05c0-.41-.086-.74-.258-.99a.823.823 0 0 0-.718-.377.88.88 0 0 0-.407.089.802.802 0 0 0-.291.26V6.383h-.828v.298l.374.066v3.304l.002.005zm.454-1.834a.75.75 0 0 1 .228-.278.583.583 0 0 1 .355-.103c.214 0 .374.09.48.276.104.184.155.422.155.715v.05c0 .255-.053.46-.156.615-.103.155-.261.233-.476.233a.608.608 0 0 1-.356-.103.712.712 0 0 1-.23-.28V8.223zm3.09.387c-.334 0-.595.066-.785.196a.64.64 0 0 0-.288.558c0 .24.067.418.203.546.136.13.332.194.59.194a.82.82 0 0 0 .422-.114c.13-.076.24-.17.328-.286.007.118.023.235.048.35h.593v-.296l-.184-.027c-.004-.031-.004-.062-.006-.095V8.314c0-.274-.087-.486-.263-.633-.174-.148-.403-.22-.686-.22-.188 0-.364.029-.524.084-.162.056-.298.13-.413.223v.494h.35l.048-.268a.554.554 0 0 1 .21-.121.947.947 0 0 1 .3-.045.54.54 0 0 1 .385.13.46.46 0 0 1 .138.354v.296h-.468l.002.002zm.468.732a.697.697 0 0 1-.268.265.787.787 0 0 1-.412.112c-.138 0-.24-.03-.306-.09-.067-.057-.101-.143-.101-.254a.399.399 0 0 1 .162-.32c.107-.088.255-.132.44-.132h.485v.419zm2.02.418-.373-.066V6.388h-.83v.298l.376.066v2.942l-.376.066v.296h1.204V9.76zm2.396 0-.375-.066V8.542h1.296v-.364h-1.296v-1.18h1.336l.038.457h.387v-.822h-2.59v.298l.374.066v2.697l-.374.066v.296h1.204V9.76zm2.695.346c.342 0 .613-.122.814-.363.2-.24.3-.552.3-.931V8.76c0-.377-.1-.688-.3-.932-.2-.243-.472-.364-.816-.364s-.613.12-.811.367c-.2.243-.3.554-.3.93v.052c0 .377.1.688.3.93.2.242.47.362.817.362h-.004zM71.59 8.76c0-.266.055-.49.166-.666a.545.545 0 0 1 .492-.266c.217 0 .383.089.496.266.11.177.168.4.168.666v.05c0 .27-.057.493-.168.668a.546.546 0 0 1-.49.264.556.556 0 0 1-.496-.264c-.111-.175-.166-.397-.166-.667V8.76h-.002zm3.252.999-.374-.066v-1.46a.56.56 0 0 1 .188-.242.507.507 0 0 1 .302-.086l.257.014.06-.43a.68.68 0 0 0-.196-.027.596.596 0 0 0-.356.11.895.895 0 0 0-.261.306l-.045-.37h-.78v.3l.374.066v1.817l-.375.066v.296h1.204v-.296l.002.002zm1.699.346c.206 0 .382-.031.528-.091.146-.06.265-.134.354-.222l-.178-.301a.95.95 0 0 1-.3.185c-.13.047-.266.07-.404.068a.57.57 0 0 1-.49-.237c-.118-.156-.178-.358-.182-.603l.006-.013h1.615v-.288c0-.344-.087-.62-.26-.828-.171-.208-.426-.311-.76-.311-.29 0-.54.12-.75.36-.21.24-.315.542-.315.905v.103c0 .377.103.68.308.918.204.237.48.355.828.355zm-.458-2.08a.49.49 0 0 1 .389-.197c.186 0 .328.062.423.184a.72.72 0 0 1 .144.457v.062h-1.15l-.004-.012a.935.935 0 0 1 .198-.493v-.002zm2.63 1.734-.221-.025.488-.64.487.64-.22.025v.297h.975V9.76l-.27-.054-.73-.935.71-.906.268-.054v-.298h-.984v.298l.225.025-.468.614-.465-.612.227-.027v-.298h-.978v.298l.267.054.713.906-.735.935-.267.054v.297h.98V9.76h-.001zM55.01 14.402l-.253-.045.229-.63h1.342l.22.63-.253.045v.297h.962v-.297l-.247-.035-1.152-3.092h-.39l-1.17 3.092-.25.035v.297h.96v-.297h.002zm.644-2.533h.014l.52 1.47h-1.063l.529-1.47zm2.285 2.83h.366l.474-1.55.097-.425.014-.002.103.428.484 1.55h.366l.627-2.213.217-.033v-.3h-.947v.3l.29.05-.306 1.268-.067.344h-.014l-.071-.344-.5-1.617h-.364l-.496 1.617-.065.31h-.014l-.053-.31-.325-1.267.285-.051v-.3h-.947v.3l.218.033.628 2.213zm4.08-1.446c-.334 0-.595.066-.785.196a.64.64 0 0 0-.288.558c0 .24.067.418.203.546.135.13.332.193.59.193a.83.83 0 0 0 .422-.113c.13-.076.24-.17.327-.286.007.118.024.235.049.35h.593V14.4l-.184-.027c-.004-.03-.004-.061-.006-.094v-1.323c0-.274-.087-.486-.263-.632-.174-.148-.403-.22-.686-.22-.19 0-.365.028-.525.084-.15.05-.289.125-.412.222v.495h.35l.048-.268a.555.555 0 0 1 .21-.122.949.949 0 0 1 .3-.045.54.54 0 0 1 .385.13.462.462 0 0 1 .137.354v.297h-.467l.002.002zm.467.73a.786.786 0 0 1-.68.377c-.137 0-.238-.028-.305-.087-.067-.058-.101-.145-.101-.256 0-.125.054-.233.162-.32.107-.088.255-.131.44-.131h.484v.418zm2.084.419-.373-.066v-1.46a.561.561 0 0 1 .188-.241.508.508 0 0 1 .3-.087l.258.015.06-.43a.695.695 0 0 0-.195-.027.596.596 0 0 0-.357.11.894.894 0 0 0-.26.306l-.045-.37h-.781v.3l.374.065v1.817l-.374.066v.297h1.204V14.4v.002zm2.217-3.372h-.375v.299l.375.066v1.038a.8.8 0 0 0-.29-.241.875.875 0 0 0-.39-.084.815.815 0 0 0-.717.377c-.172.25-.257.58-.257.99v.05c0 .367.085.663.257.888a.848.848 0 0 0 .713.337.794.794 0 0 0 .706-.352l.036.303h.77v-.297l-.375-.066v-3.306h-.453v-.002zm0 2.983a.698.698 0 0 1-.23.266.597.597 0 0 1-.34.095c-.214 0-.373-.08-.474-.233-.104-.155-.154-.36-.154-.616v-.05c0-.292.052-.531.156-.714a.514.514 0 0 1 .48-.276c.129 0 .242.03.335.094.093.062.17.147.229.254v1.18h-.002zm1.33-.688c.153.115.38.208.684.276.212.05.356.105.43.17.078.067.114.15.114.252 0 .11-.046.196-.138.262a.633.633 0 0 1-.378.1c-.093 0-.185-.01-.275-.032a.494.494 0 0 1-.213-.105l-.085-.342h-.34v.58c.12.085.255.15.405.194.15.046.32.068.508.068.29 0 .522-.07.7-.21a.664.664 0 0 0 .267-.548.57.57 0 0 0-.23-.476c-.154-.117-.387-.212-.703-.28-.212-.045-.352-.096-.42-.154a.294.294 0 0 1-.104-.237c0-.1.039-.19.118-.262.079-.072.198-.11.358-.11.105 0 .2.018.283.049a.624.624 0 0 1 .209.127l.072.305h.34l-.022-.562a1.087 1.087 0 0 0-.374-.21 1.62 1.62 0 0 0-.508-.076c-.275 0-.5.072-.674.218a.671.671 0 0 0-.26.53c0 .207.078.354.23.469l.006.004zm3.169-.933v-.103c0-.228.065-.416.194-.556.128-.138.312-.208.55-.208.225 0 .395.06.509.175.113.115.17.284.17.499 0 .13-.043.278-.13.436-.125.216-.27.42-.435.608l-1.101 1.296v.265h2.165v-.881h-.323v.55h-1.36l.807-.964c.186-.216.356-.446.508-.688.128-.21.192-.418.192-.624 0-.314-.093-.563-.28-.74-.181-.175-.426-.264-.723-.264-.322 0-.583.107-.778.318a1.06 1.06 0 0 0-.28.766l.033.113h.28l.002.002zm3.27 2.459c.35 0 .626-.133.818-.397.186-.256.28-.616.28-1.075v-.71c0-.456-.094-.817-.282-1.072-.195-.266-.47-.4-.82-.4s-.625.134-.818.4c-.186.255-.28.618-.28 1.073v.709c0 .457.094.818.283 1.075.194.266.47.4.82.4v-.002l-.001-.001zm-.781-2.183c0-.367.069-.655.206-.857.132-.194.318-.286.569-.286.25 0 .44.092.57.286.138.202.21.49.21.857v.705c0 .364-.07.655-.207.859a.637.637 0 0 1-.567.288c-.25 0-.44-.095-.57-.29-.138-.207-.21-.495-.21-.857l-.001-.705zm2.33-1.155c-.191.21-.286.467-.278.766l.032.113h.28v-.103c0-.228.065-.416.194-.556.128-.138.312-.208.55-.208.225 0 .395.06.508.175.114.115.17.284.17.499a.939.939 0 0 1-.127.436c-.125.216-.27.42-.435.608l-1.101 1.296v.265h2.165v-.881h-.323v.55h-1.36l.807-.964c.186-.217.356-.447.508-.688.128-.21.192-.418.192-.624 0-.314-.093-.563-.28-.74-.181-.175-.426-.264-.723-.264-.322 0-.583.107-.778.318v.002zm4.063 1.233a.859.859 0 0 0 .186-.54c0-.306-.095-.555-.283-.74-.186-.18-.437-.273-.745-.273-.307 0-.552.093-.757.278a.92.92 0 0 0-.301.74l.032.113h.28v-.103c0-.214.066-.38.206-.507.148-.13.34-.2.538-.193.235 0 .413.062.529.187.12.133.183.307.176.486a.563.563 0 0 1-.203.44c-.137.12-.334.182-.583.182h-.352v.336h.352c.272 0 .488.058.642.17.146.104.216.267.216.496 0 .228-.062.393-.192.515-.13.123-.32.185-.563.185a.862.862 0 0 1-.603-.216.69.69 0 0 1-.232-.538v-.103h-.277l-.033.113c-.008.342.11.61.348.8.23.18.5.274.8.274.3 0 .572-.093.773-.276.202-.186.305-.443.305-.765a.913.913 0 0 0-.202-.601.94.94 0 0 0-.308-.237.992.992 0 0 0 .253-.227l-.002.004zm-23.472 5.227c0-.554-.368-1.022-1.255-1.022H54.23v3.37h.623v-1.314h.529l.758 1.314h.73l-.867-1.41c.46-.16.692-.487.692-.94v.002zm-1.22.525h-.622v-1.011h.636c.348 0 .556.163.556.49 0 .404-.26.52-.57.52zm3.912.568c0-.785-.425-1.353-1.17-1.353-.745 0-1.202.558-1.202 1.333 0 .774.458 1.343 1.24 1.343.519 0 .887-.217 1.114-.594l-.49-.255a.637.637 0 0 1-.593.356c-.397 0-.631-.24-.65-.708h1.755v-.126l-.004.004zm-1.75-.294c.034-.385.246-.587.576-.587.33 0 .528.193.557.587h-1.132zm2.244-1.627v.665h-.34v.453h.34v1.4c0 .44.194.728.754.728.203 0 .377-.033.518-.082v-.482a1.474 1.474 0 0 1-.372.057c-.227 0-.297-.1-.297-.313v-1.31h.617v-.453h-.617v-.665h-.603v.002zm2.457 1.608c-.731.09-1.014.39-1.014.857 0 .468.305.78.84.78.263 0 .552-.082.74-.331.014.09.039.183.07.266h.61a1.446 1.446 0 0 1-.085-.554v-1.257c0-.5-.277-.8-1.018-.8-.635 0-1.042.26-1.056.819h.595c.004-.266.137-.367.447-.367.34 0 .43.097.43.39v.125l-.557.072h-.002zm.556.616c0 .317-.27.53-.575.53-.263 0-.376-.14-.376-.343 0-.24.16-.352.552-.403l.4-.058v.274h-.001zm1.433-1.992a.366.366 0 0 0 .388-.367.366.366 0 0 0-.387-.368.368.368 0 0 0-.001.735zm.302.408h-.604v2.538h.603v-2.538zm1.153-.832h-.603v3.37h.603v-3.37z"/></g></g><defs><clipPath id="a"><path fill="#fff" d="M0 0h120v103H0z"/></clipPath></defs></svg>