<svg viewBox="0 0 36 24" xmlns:xlink="http://www.w3.org/1999/xlink" xmlns="http://www.w3.org/2000/svg" width="36" height="24" fill="none"><path fill="#FF5F00" d="M13.121 3.318h9.215v17.365h-9.214V3.318Z"/><path fill="#EB001B" d="M13.676 12c0-3.53 1.66-6.66 4.21-8.687A11.004 11.004 0 0 0 11.064.95C4.948.95 0 5.892 0 12c0 6.108 4.948 11.05 11.064 11.05 2.581 0 4.948-.89 6.822-2.363A11.029 11.029 0 0 1 13.676 12Z"/><path fill="#F79E1B" d="M35.773 12c0 6.108-4.948 11.05-11.064 11.05-2.581 0-4.948-.89-6.823-2.363A10.982 10.982 0 0 0 22.096 12c0-3.53-1.659-6.66-4.21-8.687A11.004 11.004 0 0 1 24.71.95C30.825.95 35.773 5.922 35.773 12Z"/></svg>