<svg viewBox="0 0 238 78" xmlns:xlink="http://www.w3.org/1999/xlink" xmlns="http://www.w3.org/2000/svg" width="238" height="78" fill="none"><path fill="#fff" fill-opacity=".01" d="M0 0h238v78H0z"/><path fill="#8DC640" fill-rule="evenodd" d="M203.394 36.767c-1.102.772-2.704 1.153-4.894 1.153h-2.173l1.667-9.031h1.597c1.819 0 3.147.294 4.062.89.716.468 1.564 1.393 1.564 3.15 0 2.116-.987 3.255-1.823 3.838zm-129.6 11.335H56.98l1.087-5.904h10.545l1.199-6.649H59.366l1.01-5.842H77.16l-3.367 18.395zM212.452 24.64c-2.473-1.701-6.214-2.559-11.118-2.559H188.49l-4.776 26.021H166.89l1.079-5.903h10.137l1.204-6.63-10.13.018 1.085-5.879h10.439l1.389-7.625h-21.206l-4.532 24.684h-7.776l4.565-24.685h-11.086l-4.532 24.685h-7.582l4.569-24.685h-11.075l-4.787 26.021h-16.945l1.067-5.903h10.183l1.2-6.593-10.168-.009 1.08-5.89h10.555l1.382-7.625H50.939l-3.76 20.62-7.492-20.621H28.189L22 55.733h10.98l3.746-21.187 7.27 21.187h39.358l4.784-26.025h6.158L89.51 55.733h103.56l3-16.43 4.863 16.43h10.987l-5.034-13.424 1.149-.25c2.531-.544 4.514-1.716 5.889-3.473 1.377-1.773 2.077-4.05 2.077-6.783.001-3.185-1.158-5.527-3.547-7.163z" clip-rule="evenodd"/></svg>